<?xml version="1.0" encoding="utf-8" standalone="no"?>
<!DOCTYPE svg PUBLIC "-//W3C//DTD SVG 1.1//EN"
  "http://www.w3.org/Graphics/SVG/1.1/DTD/svg11.dtd">
<svg xmlns:xlink="http://www.w3.org/1999/xlink" width="576pt" height="432pt" viewBox="0 0 576 432" xmlns="http://www.w3.org/2000/svg" version="1.1">
 <metadata>
  <rdf:RDF xmlns:dc="http://purl.org/dc/elements/1.1/" xmlns:cc="http://creativecommons.org/ns#" xmlns:rdf="http://www.w3.org/1999/02/22-rdf-syntax-ns#">
   <cc:Work>
    <dc:type rdf:resource="http://purl.org/dc/dcmitype/StillImage"/>
    <dc:date>2022-06-22T19:49:12.539493</dc:date>
    <dc:format>image/svg+xml</dc:format>
    <dc:creator>
     <cc:Agent>
      <dc:title>Matplotlib v3.5.1, https://matplotlib.org/</dc:title>
     </cc:Agent>
    </dc:creator>
   </cc:Work>
  </rdf:RDF>
 </metadata>
 <defs>
  <style type="text/css">*{stroke-linejoin: round; stroke-linecap: butt}</style>
 </defs>
 <g id="figure_1">
  <g id="patch_1">
   <path d="M 0 432 
L 576 432 
L 576 0 
L 0 0 
z
" style="fill: #ffffff"/>
  </g>
  <g id="axes_1">
   <g id="patch_2">
    <path d="M 69.12 367.2 
L 541.44 367.2 
L 541.44 38.88 
L 69.12 38.88 
z
" style="fill: #ffffff"/>
   </g>
   <g id="matplotlib.axis_1">
    <g id="xtick_1">
     <g id="line2d_1">
      <defs>
       <path id="m15f849720d" d="M 0 0 
L 0 3.5 
" style="stroke: #000000; stroke-width: 0.8"/>
      </defs>
      <g>
       <use xlink:href="#m15f849720d" x="69.12" y="367.2" style="stroke: #000000; stroke-width: 0.8"/>
      </g>
     </g>
     <g id="text_1">
      <!-- 20 -->
      <g transform="translate(59.57625 385.597656)scale(0.15 -0.15)">
       <defs>
        <path id="DejaVuSans-32" d="M 1228 531 
L 3431 531 
L 3431 0 
L 469 0 
L 469 531 
Q 828 903 1448 1529 
Q 2069 2156 2228 2338 
Q 2531 2678 2651 2914 
Q 2772 3150 2772 3378 
Q 2772 3750 2511 3984 
Q 2250 4219 1831 4219 
Q 1534 4219 1204 4116 
Q 875 4013 500 3803 
L 500 4441 
Q 881 4594 1212 4672 
Q 1544 4750 1819 4750 
Q 2544 4750 2975 4387 
Q 3406 4025 3406 3419 
Q 3406 3131 3298 2873 
Q 3191 2616 2906 2266 
Q 2828 2175 2409 1742 
Q 1991 1309 1228 531 
z
" transform="scale(0.015625)"/>
        <path id="DejaVuSans-30" d="M 2034 4250 
Q 1547 4250 1301 3770 
Q 1056 3291 1056 2328 
Q 1056 1369 1301 889 
Q 1547 409 2034 409 
Q 2525 409 2770 889 
Q 3016 1369 3016 2328 
Q 3016 3291 2770 3770 
Q 2525 4250 2034 4250 
z
M 2034 4750 
Q 2819 4750 3233 4129 
Q 3647 3509 3647 2328 
Q 3647 1150 3233 529 
Q 2819 -91 2034 -91 
Q 1250 -91 836 529 
Q 422 1150 422 2328 
Q 422 3509 836 4129 
Q 1250 4750 2034 4750 
z
" transform="scale(0.015625)"/>
       </defs>
       <use xlink:href="#DejaVuSans-32"/>
       <use xlink:href="#DejaVuSans-30" x="63.623047"/>
      </g>
     </g>
    </g>
    <g id="xtick_2">
     <g id="line2d_2">
      <g>
       <use xlink:href="#m15f849720d" x="128.16" y="367.2" style="stroke: #000000; stroke-width: 0.8"/>
      </g>
     </g>
     <g id="text_2">
      <!-- 30 -->
      <g transform="translate(118.61625 385.597656)scale(0.15 -0.15)">
       <defs>
        <path id="DejaVuSans-33" d="M 2597 2516 
Q 3050 2419 3304 2112 
Q 3559 1806 3559 1356 
Q 3559 666 3084 287 
Q 2609 -91 1734 -91 
Q 1441 -91 1130 -33 
Q 819 25 488 141 
L 488 750 
Q 750 597 1062 519 
Q 1375 441 1716 441 
Q 2309 441 2620 675 
Q 2931 909 2931 1356 
Q 2931 1769 2642 2001 
Q 2353 2234 1838 2234 
L 1294 2234 
L 1294 2753 
L 1863 2753 
Q 2328 2753 2575 2939 
Q 2822 3125 2822 3475 
Q 2822 3834 2567 4026 
Q 2313 4219 1838 4219 
Q 1578 4219 1281 4162 
Q 984 4106 628 3988 
L 628 4550 
Q 988 4650 1302 4700 
Q 1616 4750 1894 4750 
Q 2613 4750 3031 4423 
Q 3450 4097 3450 3541 
Q 3450 3153 3228 2886 
Q 3006 2619 2597 2516 
z
" transform="scale(0.015625)"/>
       </defs>
       <use xlink:href="#DejaVuSans-33"/>
       <use xlink:href="#DejaVuSans-30" x="63.623047"/>
      </g>
     </g>
    </g>
    <g id="xtick_3">
     <g id="line2d_3">
      <g>
       <use xlink:href="#m15f849720d" x="187.2" y="367.2" style="stroke: #000000; stroke-width: 0.8"/>
      </g>
     </g>
     <g id="text_3">
      <!-- 40 -->
      <g transform="translate(177.65625 385.597656)scale(0.15 -0.15)">
       <defs>
        <path id="DejaVuSans-34" d="M 2419 4116 
L 825 1625 
L 2419 1625 
L 2419 4116 
z
M 2253 4666 
L 3047 4666 
L 3047 1625 
L 3713 1625 
L 3713 1100 
L 3047 1100 
L 3047 0 
L 2419 0 
L 2419 1100 
L 313 1100 
L 313 1709 
L 2253 4666 
z
" transform="scale(0.015625)"/>
       </defs>
       <use xlink:href="#DejaVuSans-34"/>
       <use xlink:href="#DejaVuSans-30" x="63.623047"/>
      </g>
     </g>
    </g>
    <g id="xtick_4">
     <g id="line2d_4">
      <g>
       <use xlink:href="#m15f849720d" x="246.24" y="367.2" style="stroke: #000000; stroke-width: 0.8"/>
      </g>
     </g>
     <g id="text_4">
      <!-- 50 -->
      <g transform="translate(236.69625 385.597656)scale(0.15 -0.15)">
       <defs>
        <path id="DejaVuSans-35" d="M 691 4666 
L 3169 4666 
L 3169 4134 
L 1269 4134 
L 1269 2991 
Q 1406 3038 1543 3061 
Q 1681 3084 1819 3084 
Q 2600 3084 3056 2656 
Q 3513 2228 3513 1497 
Q 3513 744 3044 326 
Q 2575 -91 1722 -91 
Q 1428 -91 1123 -41 
Q 819 9 494 109 
L 494 744 
Q 775 591 1075 516 
Q 1375 441 1709 441 
Q 2250 441 2565 725 
Q 2881 1009 2881 1497 
Q 2881 1984 2565 2268 
Q 2250 2553 1709 2553 
Q 1456 2553 1204 2497 
Q 953 2441 691 2322 
L 691 4666 
z
" transform="scale(0.015625)"/>
       </defs>
       <use xlink:href="#DejaVuSans-35"/>
       <use xlink:href="#DejaVuSans-30" x="63.623047"/>
      </g>
     </g>
    </g>
    <g id="xtick_5">
     <g id="line2d_5">
      <g>
       <use xlink:href="#m15f849720d" x="305.28" y="367.2" style="stroke: #000000; stroke-width: 0.8"/>
      </g>
     </g>
     <g id="text_5">
      <!-- 60 -->
      <g transform="translate(295.73625 385.597656)scale(0.15 -0.15)">
       <defs>
        <path id="DejaVuSans-36" d="M 2113 2584 
Q 1688 2584 1439 2293 
Q 1191 2003 1191 1497 
Q 1191 994 1439 701 
Q 1688 409 2113 409 
Q 2538 409 2786 701 
Q 3034 994 3034 1497 
Q 3034 2003 2786 2293 
Q 2538 2584 2113 2584 
z
M 3366 4563 
L 3366 3988 
Q 3128 4100 2886 4159 
Q 2644 4219 2406 4219 
Q 1781 4219 1451 3797 
Q 1122 3375 1075 2522 
Q 1259 2794 1537 2939 
Q 1816 3084 2150 3084 
Q 2853 3084 3261 2657 
Q 3669 2231 3669 1497 
Q 3669 778 3244 343 
Q 2819 -91 2113 -91 
Q 1303 -91 875 529 
Q 447 1150 447 2328 
Q 447 3434 972 4092 
Q 1497 4750 2381 4750 
Q 2619 4750 2861 4703 
Q 3103 4656 3366 4563 
z
" transform="scale(0.015625)"/>
       </defs>
       <use xlink:href="#DejaVuSans-36"/>
       <use xlink:href="#DejaVuSans-30" x="63.623047"/>
      </g>
     </g>
    </g>
    <g id="xtick_6">
     <g id="line2d_6">
      <g>
       <use xlink:href="#m15f849720d" x="364.32" y="367.2" style="stroke: #000000; stroke-width: 0.8"/>
      </g>
     </g>
     <g id="text_6">
      <!-- 70 -->
      <g transform="translate(354.77625 385.597656)scale(0.15 -0.15)">
       <defs>
        <path id="DejaVuSans-37" d="M 525 4666 
L 3525 4666 
L 3525 4397 
L 1831 0 
L 1172 0 
L 2766 4134 
L 525 4134 
L 525 4666 
z
" transform="scale(0.015625)"/>
       </defs>
       <use xlink:href="#DejaVuSans-37"/>
       <use xlink:href="#DejaVuSans-30" x="63.623047"/>
      </g>
     </g>
    </g>
    <g id="xtick_7">
     <g id="line2d_7">
      <g>
       <use xlink:href="#m15f849720d" x="423.36" y="367.2" style="stroke: #000000; stroke-width: 0.8"/>
      </g>
     </g>
     <g id="text_7">
      <!-- 80 -->
      <g transform="translate(413.81625 385.597656)scale(0.15 -0.15)">
       <defs>
        <path id="DejaVuSans-38" d="M 2034 2216 
Q 1584 2216 1326 1975 
Q 1069 1734 1069 1313 
Q 1069 891 1326 650 
Q 1584 409 2034 409 
Q 2484 409 2743 651 
Q 3003 894 3003 1313 
Q 3003 1734 2745 1975 
Q 2488 2216 2034 2216 
z
M 1403 2484 
Q 997 2584 770 2862 
Q 544 3141 544 3541 
Q 544 4100 942 4425 
Q 1341 4750 2034 4750 
Q 2731 4750 3128 4425 
Q 3525 4100 3525 3541 
Q 3525 3141 3298 2862 
Q 3072 2584 2669 2484 
Q 3125 2378 3379 2068 
Q 3634 1759 3634 1313 
Q 3634 634 3220 271 
Q 2806 -91 2034 -91 
Q 1263 -91 848 271 
Q 434 634 434 1313 
Q 434 1759 690 2068 
Q 947 2378 1403 2484 
z
M 1172 3481 
Q 1172 3119 1398 2916 
Q 1625 2713 2034 2713 
Q 2441 2713 2670 2916 
Q 2900 3119 2900 3481 
Q 2900 3844 2670 4047 
Q 2441 4250 2034 4250 
Q 1625 4250 1398 4047 
Q 1172 3844 1172 3481 
z
" transform="scale(0.015625)"/>
       </defs>
       <use xlink:href="#DejaVuSans-38"/>
       <use xlink:href="#DejaVuSans-30" x="63.623047"/>
      </g>
     </g>
    </g>
    <g id="xtick_8">
     <g id="line2d_8">
      <g>
       <use xlink:href="#m15f849720d" x="482.4" y="367.2" style="stroke: #000000; stroke-width: 0.8"/>
      </g>
     </g>
     <g id="text_8">
      <!-- 90 -->
      <g transform="translate(472.85625 385.597656)scale(0.15 -0.15)">
       <defs>
        <path id="DejaVuSans-39" d="M 703 97 
L 703 672 
Q 941 559 1184 500 
Q 1428 441 1663 441 
Q 2288 441 2617 861 
Q 2947 1281 2994 2138 
Q 2813 1869 2534 1725 
Q 2256 1581 1919 1581 
Q 1219 1581 811 2004 
Q 403 2428 403 3163 
Q 403 3881 828 4315 
Q 1253 4750 1959 4750 
Q 2769 4750 3195 4129 
Q 3622 3509 3622 2328 
Q 3622 1225 3098 567 
Q 2575 -91 1691 -91 
Q 1453 -91 1209 -44 
Q 966 3 703 97 
z
M 1959 2075 
Q 2384 2075 2632 2365 
Q 2881 2656 2881 3163 
Q 2881 3666 2632 3958 
Q 2384 4250 1959 4250 
Q 1534 4250 1286 3958 
Q 1038 3666 1038 3163 
Q 1038 2656 1286 2365 
Q 1534 2075 1959 2075 
z
" transform="scale(0.015625)"/>
       </defs>
       <use xlink:href="#DejaVuSans-39"/>
       <use xlink:href="#DejaVuSans-30" x="63.623047"/>
      </g>
     </g>
    </g>
    <g id="xtick_9">
     <g id="line2d_9">
      <g>
       <use xlink:href="#m15f849720d" x="541.44" y="367.2" style="stroke: #000000; stroke-width: 0.8"/>
      </g>
     </g>
     <g id="text_9">
      <!-- 100 -->
      <g transform="translate(527.124375 385.597656)scale(0.15 -0.15)">
       <defs>
        <path id="DejaVuSans-31" d="M 794 531 
L 1825 531 
L 1825 4091 
L 703 3866 
L 703 4441 
L 1819 4666 
L 2450 4666 
L 2450 531 
L 3481 531 
L 3481 0 
L 794 0 
L 794 531 
z
" transform="scale(0.015625)"/>
       </defs>
       <use xlink:href="#DejaVuSans-31"/>
       <use xlink:href="#DejaVuSans-30" x="63.623047"/>
       <use xlink:href="#DejaVuSans-30" x="127.246094"/>
      </g>
     </g>
    </g>
    <g id="text_10">
     <!-- Frequency (MHz) -->
     <g transform="translate(242.251875 404.114844)scale(0.15 -0.15)">
      <defs>
       <path id="DejaVuSans-46" d="M 628 4666 
L 3309 4666 
L 3309 4134 
L 1259 4134 
L 1259 2759 
L 3109 2759 
L 3109 2228 
L 1259 2228 
L 1259 0 
L 628 0 
L 628 4666 
z
" transform="scale(0.015625)"/>
       <path id="DejaVuSans-72" d="M 2631 2963 
Q 2534 3019 2420 3045 
Q 2306 3072 2169 3072 
Q 1681 3072 1420 2755 
Q 1159 2438 1159 1844 
L 1159 0 
L 581 0 
L 581 3500 
L 1159 3500 
L 1159 2956 
Q 1341 3275 1631 3429 
Q 1922 3584 2338 3584 
Q 2397 3584 2469 3576 
Q 2541 3569 2628 3553 
L 2631 2963 
z
" transform="scale(0.015625)"/>
       <path id="DejaVuSans-65" d="M 3597 1894 
L 3597 1613 
L 953 1613 
Q 991 1019 1311 708 
Q 1631 397 2203 397 
Q 2534 397 2845 478 
Q 3156 559 3463 722 
L 3463 178 
Q 3153 47 2828 -22 
Q 2503 -91 2169 -91 
Q 1331 -91 842 396 
Q 353 884 353 1716 
Q 353 2575 817 3079 
Q 1281 3584 2069 3584 
Q 2775 3584 3186 3129 
Q 3597 2675 3597 1894 
z
M 3022 2063 
Q 3016 2534 2758 2815 
Q 2500 3097 2075 3097 
Q 1594 3097 1305 2825 
Q 1016 2553 972 2059 
L 3022 2063 
z
" transform="scale(0.015625)"/>
       <path id="DejaVuSans-71" d="M 947 1747 
Q 947 1113 1208 752 
Q 1469 391 1925 391 
Q 2381 391 2643 752 
Q 2906 1113 2906 1747 
Q 2906 2381 2643 2742 
Q 2381 3103 1925 3103 
Q 1469 3103 1208 2742 
Q 947 2381 947 1747 
z
M 2906 525 
Q 2725 213 2448 61 
Q 2172 -91 1784 -91 
Q 1150 -91 751 415 
Q 353 922 353 1747 
Q 353 2572 751 3078 
Q 1150 3584 1784 3584 
Q 2172 3584 2448 3432 
Q 2725 3281 2906 2969 
L 2906 3500 
L 3481 3500 
L 3481 -1331 
L 2906 -1331 
L 2906 525 
z
" transform="scale(0.015625)"/>
       <path id="DejaVuSans-75" d="M 544 1381 
L 544 3500 
L 1119 3500 
L 1119 1403 
Q 1119 906 1312 657 
Q 1506 409 1894 409 
Q 2359 409 2629 706 
Q 2900 1003 2900 1516 
L 2900 3500 
L 3475 3500 
L 3475 0 
L 2900 0 
L 2900 538 
Q 2691 219 2414 64 
Q 2138 -91 1772 -91 
Q 1169 -91 856 284 
Q 544 659 544 1381 
z
M 1991 3584 
L 1991 3584 
z
" transform="scale(0.015625)"/>
       <path id="DejaVuSans-6e" d="M 3513 2113 
L 3513 0 
L 2938 0 
L 2938 2094 
Q 2938 2591 2744 2837 
Q 2550 3084 2163 3084 
Q 1697 3084 1428 2787 
Q 1159 2491 1159 1978 
L 1159 0 
L 581 0 
L 581 3500 
L 1159 3500 
L 1159 2956 
Q 1366 3272 1645 3428 
Q 1925 3584 2291 3584 
Q 2894 3584 3203 3211 
Q 3513 2838 3513 2113 
z
" transform="scale(0.015625)"/>
       <path id="DejaVuSans-63" d="M 3122 3366 
L 3122 2828 
Q 2878 2963 2633 3030 
Q 2388 3097 2138 3097 
Q 1578 3097 1268 2742 
Q 959 2388 959 1747 
Q 959 1106 1268 751 
Q 1578 397 2138 397 
Q 2388 397 2633 464 
Q 2878 531 3122 666 
L 3122 134 
Q 2881 22 2623 -34 
Q 2366 -91 2075 -91 
Q 1284 -91 818 406 
Q 353 903 353 1747 
Q 353 2603 823 3093 
Q 1294 3584 2113 3584 
Q 2378 3584 2631 3529 
Q 2884 3475 3122 3366 
z
" transform="scale(0.015625)"/>
       <path id="DejaVuSans-79" d="M 2059 -325 
Q 1816 -950 1584 -1140 
Q 1353 -1331 966 -1331 
L 506 -1331 
L 506 -850 
L 844 -850 
Q 1081 -850 1212 -737 
Q 1344 -625 1503 -206 
L 1606 56 
L 191 3500 
L 800 3500 
L 1894 763 
L 2988 3500 
L 3597 3500 
L 2059 -325 
z
" transform="scale(0.015625)"/>
       <path id="DejaVuSans-20" transform="scale(0.015625)"/>
       <path id="DejaVuSans-28" d="M 1984 4856 
Q 1566 4138 1362 3434 
Q 1159 2731 1159 2009 
Q 1159 1288 1364 580 
Q 1569 -128 1984 -844 
L 1484 -844 
Q 1016 -109 783 600 
Q 550 1309 550 2009 
Q 550 2706 781 3412 
Q 1013 4119 1484 4856 
L 1984 4856 
z
" transform="scale(0.015625)"/>
       <path id="DejaVuSans-4d" d="M 628 4666 
L 1569 4666 
L 2759 1491 
L 3956 4666 
L 4897 4666 
L 4897 0 
L 4281 0 
L 4281 4097 
L 3078 897 
L 2444 897 
L 1241 4097 
L 1241 0 
L 628 0 
L 628 4666 
z
" transform="scale(0.015625)"/>
       <path id="DejaVuSans-48" d="M 628 4666 
L 1259 4666 
L 1259 2753 
L 3553 2753 
L 3553 4666 
L 4184 4666 
L 4184 0 
L 3553 0 
L 3553 2222 
L 1259 2222 
L 1259 0 
L 628 0 
L 628 4666 
z
" transform="scale(0.015625)"/>
       <path id="DejaVuSans-7a" d="M 353 3500 
L 3084 3500 
L 3084 2975 
L 922 459 
L 3084 459 
L 3084 0 
L 275 0 
L 275 525 
L 2438 3041 
L 353 3041 
L 353 3500 
z
" transform="scale(0.015625)"/>
       <path id="DejaVuSans-29" d="M 513 4856 
L 1013 4856 
Q 1481 4119 1714 3412 
Q 1947 2706 1947 2009 
Q 1947 1309 1714 600 
Q 1481 -109 1013 -844 
L 513 -844 
Q 928 -128 1133 580 
Q 1338 1288 1338 2009 
Q 1338 2731 1133 3434 
Q 928 4138 513 4856 
z
" transform="scale(0.015625)"/>
      </defs>
      <use xlink:href="#DejaVuSans-46"/>
      <use xlink:href="#DejaVuSans-72" x="50.269531"/>
      <use xlink:href="#DejaVuSans-65" x="89.132812"/>
      <use xlink:href="#DejaVuSans-71" x="150.65625"/>
      <use xlink:href="#DejaVuSans-75" x="214.132812"/>
      <use xlink:href="#DejaVuSans-65" x="277.511719"/>
      <use xlink:href="#DejaVuSans-6e" x="339.035156"/>
      <use xlink:href="#DejaVuSans-63" x="402.414062"/>
      <use xlink:href="#DejaVuSans-79" x="457.394531"/>
      <use xlink:href="#DejaVuSans-20" x="516.574219"/>
      <use xlink:href="#DejaVuSans-28" x="548.361328"/>
      <use xlink:href="#DejaVuSans-4d" x="587.375"/>
      <use xlink:href="#DejaVuSans-48" x="673.654297"/>
      <use xlink:href="#DejaVuSans-7a" x="748.849609"/>
      <use xlink:href="#DejaVuSans-29" x="801.339844"/>
     </g>
    </g>
   </g>
   <g id="matplotlib.axis_2">
    <g id="ytick_1">
     <g id="line2d_10">
      <defs>
       <path id="mb73b5f8706" d="M 0 0 
L -3.5 0 
" style="stroke: #000000; stroke-width: 0.8"/>
      </defs>
      <g>
       <use xlink:href="#mb73b5f8706" x="69.12" y="367.2" style="stroke: #000000; stroke-width: 0.8"/>
      </g>
     </g>
     <g id="text_11">
      <!-- -60 -->
      <g transform="translate(37.620781 372.898828)scale(0.15 -0.15)">
       <defs>
        <path id="DejaVuSans-2d" d="M 313 2009 
L 1997 2009 
L 1997 1497 
L 313 1497 
L 313 2009 
z
" transform="scale(0.015625)"/>
       </defs>
       <use xlink:href="#DejaVuSans-2d"/>
       <use xlink:href="#DejaVuSans-36" x="36.083984"/>
       <use xlink:href="#DejaVuSans-30" x="99.707031"/>
      </g>
     </g>
    </g>
    <g id="ytick_2">
     <g id="line2d_11">
      <g>
       <use xlink:href="#mb73b5f8706" x="69.12" y="326.16" style="stroke: #000000; stroke-width: 0.8"/>
      </g>
     </g>
     <g id="text_12">
      <!-- -40 -->
      <g transform="translate(37.620781 331.858828)scale(0.15 -0.15)">
       <use xlink:href="#DejaVuSans-2d"/>
       <use xlink:href="#DejaVuSans-34" x="36.083984"/>
       <use xlink:href="#DejaVuSans-30" x="99.707031"/>
      </g>
     </g>
    </g>
    <g id="ytick_3">
     <g id="line2d_12">
      <g>
       <use xlink:href="#mb73b5f8706" x="69.12" y="285.12" style="stroke: #000000; stroke-width: 0.8"/>
      </g>
     </g>
     <g id="text_13">
      <!-- -20 -->
      <g transform="translate(37.620781 290.818828)scale(0.15 -0.15)">
       <use xlink:href="#DejaVuSans-2d"/>
       <use xlink:href="#DejaVuSans-32" x="36.083984"/>
       <use xlink:href="#DejaVuSans-30" x="99.707031"/>
      </g>
     </g>
    </g>
    <g id="ytick_4">
     <g id="line2d_13">
      <g>
       <use xlink:href="#mb73b5f8706" x="69.12" y="244.08" style="stroke: #000000; stroke-width: 0.8"/>
      </g>
     </g>
     <g id="text_14">
      <!-- 0 -->
      <g transform="translate(52.57625 249.778828)scale(0.15 -0.15)">
       <use xlink:href="#DejaVuSans-30"/>
      </g>
     </g>
    </g>
    <g id="ytick_5">
     <g id="line2d_14">
      <g>
       <use xlink:href="#mb73b5f8706" x="69.12" y="203.04" style="stroke: #000000; stroke-width: 0.8"/>
      </g>
     </g>
     <g id="text_15">
      <!-- 20 -->
      <g transform="translate(43.0325 208.738828)scale(0.15 -0.15)">
       <use xlink:href="#DejaVuSans-32"/>
       <use xlink:href="#DejaVuSans-30" x="63.623047"/>
      </g>
     </g>
    </g>
    <g id="ytick_6">
     <g id="line2d_15">
      <g>
       <use xlink:href="#mb73b5f8706" x="69.12" y="162" style="stroke: #000000; stroke-width: 0.8"/>
      </g>
     </g>
     <g id="text_16">
      <!-- 40 -->
      <g transform="translate(43.0325 167.698828)scale(0.15 -0.15)">
       <use xlink:href="#DejaVuSans-34"/>
       <use xlink:href="#DejaVuSans-30" x="63.623047"/>
      </g>
     </g>
    </g>
    <g id="ytick_7">
     <g id="line2d_16">
      <g>
       <use xlink:href="#mb73b5f8706" x="69.12" y="120.96" style="stroke: #000000; stroke-width: 0.8"/>
      </g>
     </g>
     <g id="text_17">
      <!-- 60 -->
      <g transform="translate(43.0325 126.658828)scale(0.15 -0.15)">
       <use xlink:href="#DejaVuSans-36"/>
       <use xlink:href="#DejaVuSans-30" x="63.623047"/>
      </g>
     </g>
    </g>
    <g id="ytick_8">
     <g id="line2d_17">
      <g>
       <use xlink:href="#mb73b5f8706" x="69.12" y="79.92" style="stroke: #000000; stroke-width: 0.8"/>
      </g>
     </g>
     <g id="text_18">
      <!-- 80 -->
      <g transform="translate(43.0325 85.618828)scale(0.15 -0.15)">
       <use xlink:href="#DejaVuSans-38"/>
       <use xlink:href="#DejaVuSans-30" x="63.623047"/>
      </g>
     </g>
    </g>
    <g id="ytick_9">
     <g id="line2d_18">
      <g>
       <use xlink:href="#mb73b5f8706" x="69.12" y="38.88" style="stroke: #000000; stroke-width: 0.8"/>
      </g>
     </g>
     <g id="text_19">
      <!-- 100 -->
      <g transform="translate(33.48875 44.578828)scale(0.15 -0.15)">
       <use xlink:href="#DejaVuSans-31"/>
       <use xlink:href="#DejaVuSans-30" x="63.623047"/>
       <use xlink:href="#DejaVuSans-30" x="127.246094"/>
      </g>
     </g>
    </g>
    <g id="text_20">
     <!-- Impedance (k$\Omega$) -->
     <g transform="translate(26.33875 262.89)rotate(-90)scale(0.15 -0.15)">
      <defs>
       <path id="DejaVuSans-49" d="M 628 4666 
L 1259 4666 
L 1259 0 
L 628 0 
L 628 4666 
z
" transform="scale(0.015625)"/>
       <path id="DejaVuSans-6d" d="M 3328 2828 
Q 3544 3216 3844 3400 
Q 4144 3584 4550 3584 
Q 5097 3584 5394 3201 
Q 5691 2819 5691 2113 
L 5691 0 
L 5113 0 
L 5113 2094 
Q 5113 2597 4934 2840 
Q 4756 3084 4391 3084 
Q 3944 3084 3684 2787 
Q 3425 2491 3425 1978 
L 3425 0 
L 2847 0 
L 2847 2094 
Q 2847 2600 2669 2842 
Q 2491 3084 2119 3084 
Q 1678 3084 1418 2786 
Q 1159 2488 1159 1978 
L 1159 0 
L 581 0 
L 581 3500 
L 1159 3500 
L 1159 2956 
Q 1356 3278 1631 3431 
Q 1906 3584 2284 3584 
Q 2666 3584 2933 3390 
Q 3200 3197 3328 2828 
z
" transform="scale(0.015625)"/>
       <path id="DejaVuSans-70" d="M 1159 525 
L 1159 -1331 
L 581 -1331 
L 581 3500 
L 1159 3500 
L 1159 2969 
Q 1341 3281 1617 3432 
Q 1894 3584 2278 3584 
Q 2916 3584 3314 3078 
Q 3713 2572 3713 1747 
Q 3713 922 3314 415 
Q 2916 -91 2278 -91 
Q 1894 -91 1617 61 
Q 1341 213 1159 525 
z
M 3116 1747 
Q 3116 2381 2855 2742 
Q 2594 3103 2138 3103 
Q 1681 3103 1420 2742 
Q 1159 2381 1159 1747 
Q 1159 1113 1420 752 
Q 1681 391 2138 391 
Q 2594 391 2855 752 
Q 3116 1113 3116 1747 
z
" transform="scale(0.015625)"/>
       <path id="DejaVuSans-64" d="M 2906 2969 
L 2906 4863 
L 3481 4863 
L 3481 0 
L 2906 0 
L 2906 525 
Q 2725 213 2448 61 
Q 2172 -91 1784 -91 
Q 1150 -91 751 415 
Q 353 922 353 1747 
Q 353 2572 751 3078 
Q 1150 3584 1784 3584 
Q 2172 3584 2448 3432 
Q 2725 3281 2906 2969 
z
M 947 1747 
Q 947 1113 1208 752 
Q 1469 391 1925 391 
Q 2381 391 2643 752 
Q 2906 1113 2906 1747 
Q 2906 2381 2643 2742 
Q 2381 3103 1925 3103 
Q 1469 3103 1208 2742 
Q 947 2381 947 1747 
z
" transform="scale(0.015625)"/>
       <path id="DejaVuSans-61" d="M 2194 1759 
Q 1497 1759 1228 1600 
Q 959 1441 959 1056 
Q 959 750 1161 570 
Q 1363 391 1709 391 
Q 2188 391 2477 730 
Q 2766 1069 2766 1631 
L 2766 1759 
L 2194 1759 
z
M 3341 1997 
L 3341 0 
L 2766 0 
L 2766 531 
Q 2569 213 2275 61 
Q 1981 -91 1556 -91 
Q 1019 -91 701 211 
Q 384 513 384 1019 
Q 384 1609 779 1909 
Q 1175 2209 1959 2209 
L 2766 2209 
L 2766 2266 
Q 2766 2663 2505 2880 
Q 2244 3097 1772 3097 
Q 1472 3097 1187 3025 
Q 903 2953 641 2809 
L 641 3341 
Q 956 3463 1253 3523 
Q 1550 3584 1831 3584 
Q 2591 3584 2966 3190 
Q 3341 2797 3341 1997 
z
" transform="scale(0.015625)"/>
       <path id="DejaVuSans-6b" d="M 581 4863 
L 1159 4863 
L 1159 1991 
L 2875 3500 
L 3609 3500 
L 1753 1863 
L 3688 0 
L 2938 0 
L 1159 1709 
L 1159 0 
L 581 0 
L 581 4863 
z
" transform="scale(0.015625)"/>
       <path id="DejaVuSans-3a9" d="M 4647 556 
L 4647 0 
L 2772 0 
L 2772 556 
Q 3325 859 3634 1378 
Q 3944 1897 3944 2528 
Q 3944 3278 3531 3731 
Q 3119 4184 2444 4184 
Q 1769 4184 1355 3729 
Q 941 3275 941 2528 
Q 941 1897 1250 1378 
Q 1563 859 2119 556 
L 2119 0 
L 244 0 
L 244 556 
L 1241 556 
Q 747 991 519 1456 
Q 294 1922 294 2497 
Q 294 3491 894 4106 
Q 1491 4722 2444 4722 
Q 3391 4722 3994 4106 
Q 4594 3494 4594 2528 
Q 4594 1922 4372 1459 
Q 4150 997 3647 556 
L 4647 556 
z
" transform="scale(0.015625)"/>
      </defs>
      <use xlink:href="#DejaVuSans-49" transform="translate(0 0.015625)"/>
      <use xlink:href="#DejaVuSans-6d" transform="translate(25.867188 0.015625)"/>
      <use xlink:href="#DejaVuSans-70" transform="translate(123.279297 0.015625)"/>
      <use xlink:href="#DejaVuSans-65" transform="translate(186.755859 0.015625)"/>
      <use xlink:href="#DejaVuSans-64" transform="translate(248.279297 0.015625)"/>
      <use xlink:href="#DejaVuSans-61" transform="translate(311.755859 0.015625)"/>
      <use xlink:href="#DejaVuSans-6e" transform="translate(373.035156 0.015625)"/>
      <use xlink:href="#DejaVuSans-63" transform="translate(436.414062 0.015625)"/>
      <use xlink:href="#DejaVuSans-65" transform="translate(491.394531 0.015625)"/>
      <use xlink:href="#DejaVuSans-20" transform="translate(552.917969 0.015625)"/>
      <use xlink:href="#DejaVuSans-28" transform="translate(584.705078 0.015625)"/>
      <use xlink:href="#DejaVuSans-6b" transform="translate(623.71875 0.015625)"/>
      <use xlink:href="#DejaVuSans-3a9" transform="translate(681.628906 0.015625)"/>
      <use xlink:href="#DejaVuSans-29" transform="translate(758.044922 0.015625)"/>
     </g>
    </g>
   </g>
   <g id="line2d_19">
    <path d="M -1 244.076788 
L 320.6304 243.989217 
L 323.5824 243.931835 
L 325.3536 243.95628 
L 335.9808 243.786548 
L 353.1024 243.186941 
L 353.6928 243.133537 
L 356.0544 243.071537 
L 356.6448 242.953317 
L 358.416 242.889431 
L 361.368 242.80439 
L 361.9584 242.627408 
L 363.7296 242.482447 
L 366.6816 242.2795 
L 367.8624 242.166312 
L 369.6336 241.924772 
L 370.224 242.170629 
L 370.8144 241.988709 
L 371.4048 241.941648 
L 375.5376 241.171903 
L 376.128 241.162092 
L 376.7184 240.912141 
L 377.3088 240.433532 
L 378.4896 240.555131 
L 379.08 240.393148 
L 379.6704 239.959165 
L 381.4416 239.334051 
L 382.032 239.446198 
L 382.6224 238.610506 
L 383.2128 238.385174 
L 384.3936 237.618077 
L 384.984 237.726875 
L 385.5744 237.206403 
L 386.1648 236.441339 
L 387.3456 236.164328 
L 387.936 234.56505 
L 388.5264 234.141019 
L 389.1168 233.097445 
L 390.2976 232.423578 
L 390.888 231.662749 
L 392.0688 228.601449 
L 393.2496 226.52771 
L 393.84 224.67847 
L 394.4304 222.415733 
L 395.0208 221.556427 
L 396.2016 220.219426 
L 396.792 218.273681 
L 397.3824 217.818045 
L 397.9728 215.662314 
L 399.1536 213.804908 
L 399.744 214.62512 
L 400.9248 213.913876 
L 402.1056 214.432395 
L 402.696 215.269255 
L 405.648 220.905251 
L 406.2384 222.772022 
L 406.8288 225.155138 
L 408.0096 225.141712 
L 408.6 227.005371 
L 409.1904 228.318955 
L 409.7808 229.004196 
L 410.9616 229.908975 
L 412.1424 231.801867 
L 412.7328 232.647482 
L 414.504 233.658718 
L 415.0944 234.350096 
L 415.6848 235.250885 
L 416.8656 235.351843 
L 418.0464 236.624044 
L 419.8176 237.044407 
L 420.9984 237.950854 
L 421.5888 238.318493 
L 422.7696 238.300971 
L 423.36 238.533319 
L 423.9504 238.956617 
L 424.5408 239.107548 
L 425.7216 239.232044 
L 427.4928 239.673035 
L 431.6256 240.314887 
L 437.5296 241.006789 
L 439.3008 241.161804 
L 462.9168 242.269009 
L 473.544 242.481213 
L 480.6288 242.614199 
L 490.6656 242.7986 
L 498.3408 242.897187 
L 521.3664 242.940805 
L 540.8496 242.976305 
L 541.44 242.978424 
L 541.44 242.978424 
" clip-path="url(#p0f86cd721e)" style="fill: none; stroke: #e41a1c; stroke-width: 2; stroke-linecap: square"/>
   </g>
   <g id="line2d_20">
    <path d="M -1 244.07643 
L 259.2288 243.983742 
L 267.4944 243.94775 
L 272.2176 243.928121 
L 299.9664 243.762264 
L 300.5568 243.684034 
L 302.9184 243.697148 
L 304.6896 243.621768 
L 305.28 243.564941 
L 305.8704 243.723687 
L 306.4608 243.724857 
L 309.4128 243.369478 
L 311.184 243.498569 
L 311.7744 243.216312 
L 312.3648 243.228705 
L 314.136 243.083904 
L 314.7264 243.200856 
L 315.3168 243.060048 
L 316.4976 243.204784 
L 317.088 242.508628 
L 318.2688 242.73125 
L 319.4496 242.644679 
L 320.6304 242.229343 
L 321.2208 241.969995 
L 322.992 241.53777 
L 323.5824 240.466977 
L 324.1728 240.666696 
L 325.3536 240.46933 
L 325.944 240.062098 
L 326.5344 238.71077 
L 327.1248 238.490352 
L 328.3056 238.217532 
L 329.4864 234.770815 
L 330.0768 233.16365 
L 331.2576 231.77492 
L 331.848 229.042327 
L 332.4384 227.206404 
L 333.0288 222.95809 
L 334.2096 220.543711 
L 334.8 218.69693 
L 335.3904 209.207822 
L 335.9808 207.620372 
L 337.1616 202.663377 
L 337.752 198.522776 
L 338.3424 196.386135 
L 338.9328 194.79319 
L 340.1136 201.535198 
L 340.704 200.101478 
L 341.2944 199.827921 
L 341.8848 207.189151 
L 343.0656 209.729945 
L 343.656 211.885508 
L 344.2464 215.433428 
L 344.8368 217.611058 
L 346.0176 219.737978 
L 347.1984 224.871948 
L 347.7888 225.704718 
L 348.9696 227.622894 
L 349.56 228.101334 
L 350.1504 230.040802 
L 350.7408 230.744687 
L 351.9216 231.001452 
L 352.512 231.508262 
L 353.1024 232.778954 
L 353.6928 233.596754 
L 355.464 234.372785 
L 356.0544 235.201169 
L 356.6448 234.988379 
L 357.8256 235.956408 
L 359.0064 236.383007 
L 359.5968 236.570471 
L 360.7776 237.237011 
L 361.368 237.38991 
L 361.9584 237.836723 
L 362.5488 237.825593 
L 364.32 238.347314 
L 364.9104 238.758127 
L 365.5008 238.760775 
L 366.6816 239.038339 
L 367.272 239.366339 
L 367.8624 239.540808 
L 368.4528 239.598937 
L 369.6336 239.937684 
L 370.224 240.395162 
L 370.8144 240.267433 
L 372.5856 240.71803 
L 373.176 240.598489 
L 373.7664 240.726913 
L 374.3568 241.085813 
L 375.5376 241.077107 
L 377.3088 241.418404 
L 378.4896 241.43282 
L 379.6704 241.744347 
L 380.2608 241.82344 
L 382.032 241.93535 
L 383.2128 242.140659 
L 384.3936 242.043467 
L 384.984 242.266904 
L 386.1648 242.303982 
L 397.9728 242.832793 
L 415.6848 243.120694 
L 427.4928 243.200811 
L 505.4256 243.273012 
L 541.44 243.090422 
L 541.44 243.090422 
" clip-path="url(#p0f86cd721e)" style="fill: none; stroke: #377eb8; stroke-width: 2; stroke-linecap: square"/>
   </g>
   <g id="line2d_21">
    <path d="M -1 244.076054 
L 223.8048 243.982508 
L 229.7088 243.918874 
L 249.7824 243.639549 
L 250.3728 243.574501 
L 252.7344 243.577573 
L 255.6864 243.512657 
L 257.4576 243.43731 
L 261 243.321727 
L 262.1808 243.25458 
L 263.952 243.256314 
L 265.1328 242.991668 
L 266.3136 242.990337 
L 266.904 242.825916 
L 268.0848 242.992861 
L 269.2656 242.890889 
L 270.4464 242.494037 
L 271.0368 242.662413 
L 272.2176 242.535492 
L 273.3984 242.010646 
L 273.9888 242.261412 
L 276.9408 241.738276 
L 278.1216 241.307049 
L 279.8928 241.356134 
L 281.664 240.394655 
L 282.2544 239.932488 
L 282.8448 239.14853 
L 284.0256 239.518376 
L 284.616 238.666308 
L 285.2064 239.190758 
L 285.7968 238.23586 
L 286.9776 237.185361 
L 287.568 237.054341 
L 288.1584 234.254808 
L 288.7488 233.57116 
L 289.9296 230.686553 
L 290.52 228.169411 
L 291.1104 227.984678 
L 291.7008 226.843984 
L 292.8816 219.58984 
L 293.472 217.65424 
L 294.0624 207.117362 
L 295.8336 170.569205 
L 296.424 167.269254 
L 297.0144 132.088152 
L 297.6048 145.150844 
L 298.7856 149.193675 
L 299.9664 191.485673 
L 300.5568 201.731232 
L 301.7376 217.45098 
L 302.328 221.727893 
L 302.9184 223.793429 
L 303.5088 228.59327 
L 304.6896 230.828546 
L 305.28 232.393785 
L 305.8704 235.145366 
L 306.4608 237.35574 
L 308.232 237.865378 
L 308.8224 238.682065 
L 309.4128 238.325336 
L 310.5936 240.031307 
L 311.184 239.834295 
L 311.7744 240.114864 
L 312.3648 240.546147 
L 313.5456 240.508321 
L 314.7264 241.557515 
L 315.3168 241.475044 
L 316.4976 242.009591 
L 317.088 241.509251 
L 318.2688 242.026127 
L 319.4496 242.05851 
L 320.6304 242.319245 
L 321.2208 242.34206 
L 322.992 242.618208 
L 323.5824 242.481949 
L 324.1728 242.657705 
L 325.3536 242.812158 
L 325.944 242.652468 
L 326.5344 242.609794 
L 327.1248 242.854882 
L 329.4864 242.777989 
L 330.0768 242.956056 
L 331.848 242.900332 
L 332.4384 242.98254 
L 333.0288 242.91606 
L 338.9328 243.000305 
L 340.704 242.963563 
L 343.656 243.045902 
L 344.8368 243.027403 
L 346.608 242.997517 
L 347.1984 243.075703 
L 348.9696 243.052955 
L 352.512 243.032358 
L 353.6928 243.062308 
L 361.368 243.101838 
L 383.2128 243.453315 
L 387.936 243.486587 
L 396.2016 243.53346 
L 409.1904 243.57349 
L 413.9136 243.559864 
L 441.072 243.503552 
L 481.8096 243.398505 
L 524.3184 243.155849 
L 541.44 242.990725 
L 541.44 242.990725 
" clip-path="url(#p0f86cd721e)" style="fill: none; stroke: #4daf4a; stroke-width: 2; stroke-linecap: square"/>
   </g>
   <g id="line2d_22">
    <path d="M -1 244.075804 
L 196.056 243.990906 
L 199.5984 243.963321 
L 216.72 243.797044 
L 217.3104 243.685292 
L 217.9008 243.724874 
L 219.0816 243.650663 
L 219.672 243.7583 
L 220.8528 243.685614 
L 222.624 243.589226 
L 223.2144 243.786889 
L 223.8048 243.59213 
L 225.576 243.415866 
L 227.9376 243.383463 
L 229.1184 243.027923 
L 229.7088 243.071463 
L 231.48 242.865721 
L 232.0704 242.92557 
L 232.6608 242.643937 
L 234.432 242.633227 
L 235.0224 242.35427 
L 235.6128 242.467849 
L 236.7936 242.442863 
L 237.384 242.178688 
L 238.5648 242.289427 
L 239.7456 241.859657 
L 240.336 241.423367 
L 240.9264 241.321419 
L 241.5168 240.764059 
L 242.6976 240.351925 
L 243.288 240.673359 
L 243.8784 239.882736 
L 244.4688 239.342507 
L 245.6496 239.405332 
L 246.24 239.224953 
L 246.8304 238.518279 
L 247.4208 237.432633 
L 248.6016 236.228202 
L 249.192 234.890979 
L 249.7824 234.47624 
L 250.3728 232.893548 
L 251.5536 231.063245 
L 252.144 231.730728 
L 252.7344 227.911268 
L 253.3248 226.357687 
L 254.5056 222.669667 
L 255.096 219.046926 
L 256.2768 206.923814 
L 257.4576 201.346544 
L 258.048 196.791811 
L 258.6384 189.47359 
L 259.2288 176.945314 
L 260.4096 176.557492 
L 261 182.017668 
L 261.5904 184.459153 
L 262.1808 185.282304 
L 263.3616 191.885893 
L 263.952 197.607442 
L 265.1328 214.114733 
L 266.3136 216.001235 
L 266.904 223.07349 
L 267.4944 225.946193 
L 268.0848 225.567057 
L 269.2656 228.264024 
L 269.856 231.024407 
L 270.4464 232.177881 
L 271.0368 233.678266 
L 272.2176 234.848989 
L 272.808 235.177824 
L 273.3984 235.661445 
L 273.9888 236.870483 
L 275.76 238.1765 
L 276.3504 238.690999 
L 276.9408 238.819278 
L 279.3024 240.277591 
L 279.8928 241.073365 
L 281.0736 240.944195 
L 281.664 241.074248 
L 282.2544 241.346479 
L 282.8448 241.360549 
L 284.0256 241.605431 
L 284.616 241.884431 
L 285.2064 241.875994 
L 285.7968 242.171142 
L 286.9776 242.274454 
L 287.568 242.458799 
L 288.1584 242.396359 
L 288.7488 242.542376 
L 290.52 242.673065 
L 291.7008 242.931267 
L 293.472 242.998077 
L 294.0624 243.098655 
L 294.6528 243.052265 
L 297.6048 243.28712 
L 298.7856 243.273427 
L 299.9664 243.425562 
L 300.5568 243.310486 
L 302.328 243.486377 
L 303.5088 243.495019 
L 305.8704 243.563926 
L 306.4608 243.64292 
L 309.4128 243.571781 
L 312.3648 243.619163 
L 314.7264 243.659009 
L 319.4496 243.660766 
L 321.2208 243.661276 
L 328.3056 243.696586 
L 331.848 243.673665 
L 481.8096 243.457217 
L 520.1856 243.163765 
L 541.44 242.865893 
L 541.44 242.865893 
" clip-path="url(#p0f86cd721e)" style="fill: none; stroke: #984ea3; stroke-width: 2; stroke-linecap: square"/>
   </g>
   <g id="line2d_23">
    <path d="M -1 244.075471 
L 176.5728 244.00367 
L 183.6576 243.905964 
L 184.248 243.987296 
L 186.6096 243.875001 
L 188.3808 243.918316 
L 192.5136 243.69797 
L 193.104 243.801886 
L 193.6944 243.673801 
L 194.2848 243.777594 
L 196.6464 243.535772 
L 197.2368 243.595912 
L 202.5504 243.281481 
L 203.1408 243.077521 
L 204.3216 243.071651 
L 204.912 242.874991 
L 205.5024 243.001385 
L 206.0928 242.925613 
L 207.2736 242.470881 
L 207.864 242.891461 
L 208.4544 242.601802 
L 209.0448 242.548945 
L 211.4064 241.931374 
L 211.9968 241.881921 
L 213.1776 241.477178 
L 213.768 241.487184 
L 216.72 240.169104 
L 217.3104 239.156519 
L 219.672 236.610009 
L 220.8528 233.916527 
L 222.0336 231.239557 
L 222.624 228.853353 
L 223.2144 227.912534 
L 223.8048 217.417431 
L 224.9856 207.129982 
L 225.576 206.699257 
L 226.1664 194.80484 
L 226.7568 180.373334 
L 227.9376 179.9922 
L 229.1184 176.268428 
L 229.7088 172.675834 
L 231.48 186.327549 
L 232.0704 198.276311 
L 232.6608 201.970497 
L 233.8416 208.510333 
L 234.432 215.496621 
L 235.6128 222.055729 
L 236.7936 224.512559 
L 237.384 226.758606 
L 237.9744 229.543976 
L 238.5648 231.101105 
L 239.7456 232.266366 
L 240.336 234.366434 
L 240.9264 234.961549 
L 241.5168 235.177205 
L 242.6976 236.690197 
L 243.288 237.029058 
L 243.8784 237.608473 
L 244.4688 238.412693 
L 246.24 239.163966 
L 246.8304 239.734539 
L 247.4208 239.795992 
L 248.6016 240.1007 
L 249.192 240.597944 
L 249.7824 240.539232 
L 250.3728 240.752967 
L 251.5536 241.354908 
L 252.144 241.250831 
L 252.7344 241.433042 
L 253.3248 241.745227 
L 255.096 241.798432 
L 256.2768 242.010695 
L 258.048 242.100135 
L 259.2288 242.464759 
L 260.4096 242.373287 
L 261 242.553936 
L 261.5904 242.402002 
L 262.1808 242.543935 
L 266.3136 242.822356 
L 269.856 243.046027 
L 270.4464 242.978774 
L 272.808 243.126192 
L 273.3984 243.107388 
L 273.9888 243.2015 
L 279.3024 243.359418 
L 279.8928 243.443847 
L 281.664 243.43013 
L 284.616 243.530843 
L 295.8336 243.743904 
L 303.5088 243.805105 
L 353.1024 243.710095 
L 371.4048 243.729081 
L 414.504 243.739126 
L 470.0016 243.481199 
L 512.5104 243.049167 
L 541.44 242.299238 
L 541.44 242.299238 
" clip-path="url(#p0f86cd721e)" style="fill: none; stroke: #ff7f00; stroke-width: 2; stroke-linecap: square"/>
   </g>
   <g id="line2d_24">
    <path d="M -1 244.075296 
L 154.1376 244.056468 
L 154.728 243.986606 
L 155.9088 244.028448 
L 161.8128 243.954631 
L 162.9936 244.055116 
L 164.1744 243.967214 
L 164.7648 244.035456 
L 166.536 244.000167 
L 170.6688 243.999141 
L 171.8496 244.081699 
L 173.6208 243.824851 
L 174.8016 243.953902 
L 175.392 243.841077 
L 175.9824 243.916606 
L 176.5728 243.869305 
L 177.7536 243.638025 
L 178.344 243.894288 
L 178.9344 243.876902 
L 179.5248 243.714785 
L 180.7056 243.841738 
L 181.296 243.432454 
L 182.4768 243.552449 
L 183.6576 243.205174 
L 184.248 243.480131 
L 184.8384 243.281829 
L 185.4288 242.600428 
L 186.6096 242.514253 
L 187.7904 242.736453 
L 188.3808 242.100397 
L 190.152 241.903189 
L 190.7424 241.117875 
L 192.5136 237.473891 
L 193.104 237.734313 
L 193.6944 236.186866 
L 194.2848 237.897296 
L 195.4656 232.785613 
L 196.056 231.326139 
L 197.2368 217.546692 
L 198.4176 213.031245 
L 199.5984 172.475079 
L 201.3696 147.176589 
L 201.96 130.106568 
L 202.5504 148.924063 
L 203.1408 176.911321 
L 204.3216 182.297094 
L 206.0928 215.207196 
L 207.2736 219.207288 
L 207.864 228.202253 
L 208.4544 226.508786 
L 209.0448 231.345587 
L 210.2256 230.246393 
L 210.816 234.344042 
L 211.4064 234.899479 
L 211.9968 235.95122 
L 213.1776 237.087312 
L 213.768 238.825702 
L 214.3584 238.609078 
L 214.9488 240.576813 
L 216.1296 239.93179 
L 216.72 240.080624 
L 217.3104 240.773807 
L 217.9008 240.621121 
L 219.0816 241.001653 
L 219.672 241.490977 
L 220.2624 241.3053 
L 220.8528 241.839891 
L 222.0336 241.87244 
L 222.624 242.020143 
L 223.2144 242.396521 
L 224.9856 241.909717 
L 226.1664 242.331174 
L 226.7568 242.39827 
L 227.9376 242.231224 
L 229.7088 242.429042 
L 231.48 242.534417 
L 232.0704 242.694023 
L 233.8416 242.674621 
L 234.432 242.801373 
L 237.384 242.779262 
L 238.5648 243.037433 
L 246.24 243.218478 
L 253.3248 243.444723 
L 256.2768 243.448308 
L 263.3616 243.575682 
L 267.4944 243.626643 
L 272.2176 243.656175 
L 278.712 243.718728 
L 287.568 243.83321 
L 296.424 243.882807 
L 308.8224 243.919215 
L 334.8 243.877437 
L 347.1984 243.826916 
L 362.5488 243.775269 
L 443.4336 243.6165 
L 498.3408 243.029292 
L 511.3296 242.574955 
L 514.872 242.382106 
L 523.1376 241.906998 
L 527.8608 241.428582 
L 530.2224 241.244724 
L 533.7648 240.832891 
L 535.536 240.602639 
L 536.7168 240.40496 
L 537.8976 240.298937 
L 539.0784 240.043428 
L 541.44 239.672779 
L 541.44 239.672779 
" clip-path="url(#p0f86cd721e)" style="fill: none; stroke: #a65628; stroke-width: 2; stroke-linecap: square"/>
   </g>
   <g id="line2d_25">
    <path d="M -1 244.075143 
L 151.776 244.04026 
L 152.3664 243.935579 
L 154.1376 244.048606 
L 154.728 243.803806 
L 155.9088 243.941726 
L 158.8608 243.741158 
L 160.0416 243.959967 
L 160.632 243.634841 
L 161.2224 243.807048 
L 161.8128 243.728945 
L 162.9936 243.930581 
L 163.584 243.497858 
L 164.1744 243.83431 
L 164.7648 243.790934 
L 167.7168 243.238879 
L 168.8976 243.625269 
L 169.488 242.800647 
L 170.0784 242.888672 
L 170.6688 243.578799 
L 171.8496 243.68969 
L 172.44 243.447691 
L 173.6208 241.510915 
L 174.8016 242.222233 
L 175.392 240.132344 
L 175.9824 240.32804 
L 176.5728 239.233922 
L 177.7536 238.160975 
L 178.344 235.74503 
L 178.9344 229.789447 
L 180.7056 157.839692 
L 181.296 119.996792 
L 181.8864 53.2096 
L 182.4768 105.223913 
L 183.6576 129.532169 
L 184.248 205.138965 
L 184.8384 205.118968 
L 185.4288 220.84154 
L 186.6096 223.907386 
L 187.2 234.486068 
L 187.7904 234.11392 
L 188.3808 235.887364 
L 189.5616 237.541449 
L 190.152 238.715382 
L 191.3328 239.253632 
L 192.5136 238.916612 
L 193.104 240.265325 
L 193.6944 240.501625 
L 194.2848 241.008389 
L 195.4656 241.717119 
L 196.056 241.291996 
L 196.6464 241.101334 
L 197.2368 241.653401 
L 198.4176 241.516147 
L 199.008 241.574802 
L 199.5984 241.890598 
L 201.3696 242.362329 
L 201.96 242.200895 
L 202.5504 242.248613 
L 203.1408 242.006757 
L 204.3216 242.420458 
L 204.912 242.323782 
L 206.0928 242.67526 
L 207.2736 242.527011 
L 207.864 242.966965 
L 209.0448 242.820648 
L 210.2256 242.819751 
L 210.816 242.985859 
L 213.1776 243.044403 
L 213.768 243.212892 
L 214.3584 243.167637 
L 214.9488 243.304795 
L 219.0816 243.302263 
L 220.2624 243.397338 
L 222.624 243.416477 
L 223.2144 243.496451 
L 224.9856 243.390427 
L 226.7568 243.470334 
L 231.48 243.423251 
L 232.6608 243.454962 
L 249.7824 243.633041 
L 254.5056 243.68017 
L 259.2288 243.719858 
L 273.3984 243.780915 
L 284.616 243.86012 
L 333.0288 243.900686 
L 425.7216 243.668643 
L 458.784 243.276001 
L 488.304 242.252571 
L 492.4368 241.829672 
L 494.7984 241.63284 
L 495.3888 241.497444 
L 497.16 241.322901 
L 498.3408 241.149052 
L 502.4736 240.396547 
L 503.064 240.175384 
L 503.6544 240.081683 
L 504.2448 239.790539 
L 505.4256 239.572488 
L 507.1968 238.831611 
L 508.3776 238.566251 
L 510.1488 237.627937 
L 511.3296 237.346155 
L 513.1008 236.247126 
L 514.2816 235.709426 
L 516.0528 234.292799 
L 517.824 233.530177 
L 518.4144 232.791777 
L 519.0048 232.265796 
L 520.1856 231.880292 
L 521.9568 230.62609 
L 523.1376 230.332795 
L 523.728 229.889143 
L 526.0896 229.214264 
L 526.68 229.469853 
L 527.2704 229.317535 
L 527.8608 229.879839 
L 529.0416 229.588166 
L 529.632 229.64527 
L 530.2224 230.354998 
L 530.8128 230.74184 
L 532.584 231.55412 
L 533.1744 232.342928 
L 533.7648 232.741441 
L 534.9456 233.266391 
L 536.1264 234.494532 
L 537.8976 235.482373 
L 538.488 236.124594 
L 539.0784 236.440682 
L 539.6688 236.957914 
L 540.8496 237.32501 
L 541.44 237.721078 
L 541.44 237.721078 
" clip-path="url(#p0f86cd721e)" style="fill: none; stroke: #000000; stroke-width: 2; stroke-linecap: square"/>
   </g>
   <g id="line2d_26">
    <path d="M -1 243.869828 
L 142.082061 243.122161 
L 216.638718 242.492779 
L 229.187859 242.343638 
L 243.951553 242.153423 
L 301.529962 240.9459 
L 318.508211 240.292808 
L 320.722765 240.17264 
L 324.413689 239.95371 
L 327.366428 239.750932 
L 328.842798 239.675915 
L 331.057352 239.530655 
L 341.391938 238.777879 
L 342.130123 238.618956 
L 344.344677 238.464005 
L 353.941078 237.446369 
L 355.417448 237.333467 
L 356.155633 237.14191 
L 356.893817 237.209962 
L 357.632002 237.008434 
L 359.108371 236.969136 
L 365.013849 235.969616 
L 365.752034 236.029285 
L 367.228404 235.659157 
L 368.704773 235.476236 
L 370.181142 234.918784 
L 371.657512 234.757753 
L 372.395697 234.328294 
L 373.133881 234.384877 
L 373.872066 234.226233 
L 374.610251 233.792399 
L 375.348436 233.731044 
L 376.824805 232.925599 
L 377.56299 232.784976 
L 378.301174 232.805024 
L 379.039359 232.23458 
L 379.777544 232.06689 
L 380.515729 231.599188 
L 381.253913 231.292064 
L 381.992098 231.236054 
L 382.730283 230.335453 
L 383.468468 230.174313 
L 384.206652 230.388951 
L 384.944837 229.143507 
L 385.683022 228.88273 
L 386.421207 228.748394 
L 387.159391 228.049723 
L 387.897576 228.042332 
L 388.635761 227.250208 
L 389.373945 227.180707 
L 390.11213 227.421028 
L 390.850315 225.947569 
L 391.5885 226.248214 
L 392.326684 226.830035 
L 393.064869 225.951359 
L 393.803054 225.937478 
L 395.279423 227.843382 
L 396.017608 229.275249 
L 396.755793 232.150652 
L 397.493977 233.527963 
L 398.232162 235.984152 
L 398.970347 237.821607 
L 399.708532 238.402222 
L 400.446716 242.470231 
L 401.184901 244.316722 
L 401.923086 246.654153 
L 402.661271 248.311722 
L 404.13764 252.53738 
L 404.875825 253.991543 
L 405.614009 254.370612 
L 406.352194 254.570619 
L 407.090379 255.49624 
L 407.828564 255.776052 
L 408.566748 255.895054 
L 409.304933 257.062609 
L 410.043118 255.910385 
L 410.781303 256.04514 
L 411.519487 255.891884 
L 412.257672 256.045585 
L 412.995857 255.751243 
L 413.734042 255.020327 
L 414.472226 255.269556 
L 415.948596 254.775019 
L 416.68678 254.323432 
L 418.16315 254.334885 
L 418.901335 253.94011 
L 421.854074 253.020745 
L 422.592258 252.929881 
L 423.330443 252.518908 
L 424.806813 252.11637 
L 427.759551 251.498373 
L 428.497736 251.238828 
L 429.235921 251.099047 
L 429.974106 250.81032 
L 431.450475 250.657323 
L 432.926845 250.33908 
L 434.403214 250.132841 
L 437.355953 249.659357 
L 438.094138 249.581437 
L 438.832322 249.382681 
L 441.046877 249.153281 
L 454.334202 247.922496 
L 480.170667 246.480898 
L 500.83984 245.733577 
L 515.603534 245.293032 
L 541.44 244.738127 
L 541.44 244.738127 
" clip-path="url(#p0f86cd721e)" style="fill: none; stroke-dasharray: 7.4,3.2; stroke-dashoffset: 0; stroke: #e41a1c; stroke-width: 2"/>
   </g>
   <g id="line2d_27">
    <path d="M -1 243.814593 
L 108.863748 243.094248 
L 205.565947 241.923149 
L 247.642477 240.863255 
L 254.28614 240.608303 
L 264.620726 240.166805 
L 266.83528 239.989742 
L 269.788019 239.88223 
L 286.028083 238.737526 
L 288.242637 238.483373 
L 289.719007 238.33392 
L 292.671746 238.018616 
L 300.053593 236.98325 
L 302.268147 236.435714 
L 303.006332 236.430815 
L 303.744517 236.186448 
L 304.482701 236.141903 
L 305.959071 235.693295 
L 306.697256 235.651818 
L 308.91181 234.96537 
L 309.649994 234.930106 
L 310.388179 234.492128 
L 312.602733 233.853316 
L 315.555472 232.670159 
L 316.293657 232.174856 
L 317.031842 231.95308 
L 317.770027 231.507096 
L 318.508211 231.382704 
L 319.246396 230.285225 
L 319.984581 230.190517 
L 320.722765 229.752137 
L 321.46095 229.558622 
L 322.199135 228.363724 
L 322.93732 228.10787 
L 323.675504 226.841201 
L 324.413689 226.255426 
L 325.151874 225.08235 
L 325.890059 224.882905 
L 326.628243 224.459125 
L 327.366428 222.576445 
L 328.104613 222.082726 
L 328.842798 220.627871 
L 329.580982 219.979357 
L 330.319167 217.163107 
L 332.533721 215.401459 
L 334.010091 213.428964 
L 334.748275 214.431423 
L 335.48646 212.298019 
L 336.224645 218.704402 
L 336.96283 222.933218 
L 337.701014 225.659806 
L 339.177384 238.322225 
L 339.915568 246.695201 
L 340.653753 251.116429 
L 341.391938 250.650222 
L 342.130123 259.566655 
L 344.344677 260.989922 
L 345.082862 262.108097 
L 345.821046 261.699996 
L 346.559231 261.951342 
L 347.297416 262.767644 
L 348.0356 261.538785 
L 348.773785 261.594472 
L 350.250155 259.90847 
L 350.988339 259.655922 
L 351.726524 258.99254 
L 352.464709 259.166042 
L 353.202894 258.852346 
L 353.941078 258.824997 
L 355.417448 258.246454 
L 356.155633 257.561104 
L 356.893817 257.199041 
L 357.632002 256.994596 
L 359.108371 256.196435 
L 359.846556 256.173032 
L 360.584741 255.673099 
L 361.322926 255.84602 
L 362.06111 255.092274 
L 363.53748 254.789731 
L 365.013849 254.255149 
L 365.752034 254.30147 
L 366.490219 254.023342 
L 367.228404 253.963992 
L 367.966588 253.589228 
L 368.704773 253.562188 
L 369.442958 253.244345 
L 370.181142 253.351864 
L 370.919327 253.120878 
L 371.657512 253.019983 
L 372.395697 252.595169 
L 373.872066 252.381545 
L 376.08662 251.861775 
L 376.824805 251.758028 
L 377.56299 251.408979 
L 378.301174 251.444558 
L 389.373945 249.605461 
L 391.5885 249.363186 
L 393.803054 249.047874 
L 407.090379 247.795284 
L 409.304933 247.645996 
L 433.665029 246.378988 
L 446.21417 245.97595 
L 482.385222 245.158957 
L 535.534522 244.211036 
L 541.44 244.117312 
L 541.44 244.117312 
" clip-path="url(#p0f86cd721e)" style="fill: none; stroke-dasharray: 7.4,3.2; stroke-dashoffset: 0; stroke: #377eb8; stroke-width: 2"/>
   </g>
   <g id="line2d_28">
    <path d="M -1 243.759334 
L 91.147314 243.015208 
L 111.078302 242.802679 
L 137.652952 242.458905 
L 178.253112 241.690032 
L 187.849514 241.418679 
L 198.922285 241.06155 
L 226.23512 239.790184 
L 228.449674 239.66191 
L 233.616967 239.291457 
L 235.831521 239.130654 
L 246.166108 238.173274 
L 249.118847 237.763658 
L 252.071585 237.419756 
L 254.28614 237.079193 
L 255.762509 236.819501 
L 262.406172 235.53966 
L 263.882541 235.196331 
L 264.620726 235.108145 
L 265.358911 234.650973 
L 266.097095 234.681224 
L 266.83528 234.244831 
L 267.573465 234.036394 
L 268.31165 234.060333 
L 269.049834 233.867166 
L 269.788019 233.339883 
L 271.264389 232.910115 
L 272.740758 232.23847 
L 274.217127 231.804606 
L 274.955312 231.200098 
L 277.169866 230.246072 
L 278.646236 229.12527 
L 279.384421 228.724022 
L 280.122605 227.57524 
L 281.598975 226.956129 
L 283.075344 225.149824 
L 283.813529 224.622028 
L 284.551714 223.251392 
L 285.289898 222.966674 
L 286.028083 220.252596 
L 286.766268 220.188108 
L 287.504453 217.210567 
L 288.242637 215.774221 
L 288.980822 215.685757 
L 289.719007 213.200325 
L 290.457191 209.714667 
L 291.195376 205.552463 
L 291.933561 202.903388 
L 292.671746 201.998382 
L 293.40993 195.347629 
L 294.148115 194.743002 
L 294.8863 199.508225 
L 295.624485 198.5143 
L 296.362669 208.367106 
L 297.100854 250.513678 
L 297.839039 257.697102 
L 298.577224 274.13704 
L 299.315408 293.367414 
L 300.053593 298.71918 
L 300.791778 287.816036 
L 301.529962 288.380008 
L 302.268147 288.029404 
L 303.006332 282.999816 
L 304.482701 278.511901 
L 305.220886 275.233477 
L 305.959071 273.963604 
L 308.173625 267.384028 
L 309.649994 264.778228 
L 310.388179 263.490089 
L 312.602733 261.142701 
L 313.340918 260.063675 
L 314.817288 258.724304 
L 316.293657 257.671638 
L 317.031842 256.964027 
L 318.508211 256.630056 
L 319.246396 255.761473 
L 321.46095 254.841922 
L 322.199135 254.298034 
L 322.93732 254.165788 
L 323.675504 253.499719 
L 324.413689 253.436949 
L 325.151874 252.998579 
L 326.628243 252.690435 
L 327.366428 252.445798 
L 328.104613 252.348375 
L 328.842798 251.959328 
L 329.580982 251.826661 
L 330.319167 251.568069 
L 332.533721 251.112742 
L 340.653753 249.677292 
L 341.391938 249.624788 
L 342.868307 249.356997 
L 357.632002 248.088086 
L 386.421207 246.736215 
L 398.970347 246.242327 
L 425.544997 245.471303 
L 446.952354 245.046776 
L 531.105414 243.734855 
L 541.44 243.58589 
L 541.44 243.58589 
" clip-path="url(#p0f86cd721e)" style="fill: none; stroke-dasharray: 7.4,3.2; stroke-dashoffset: 0; stroke: #4daf4a; stroke-width: 2"/>
   </g>
   <g id="line2d_29">
    <path d="M -1 243.703205 
L 74.90725 242.979162 
L 150.940277 241.652995 
L 158.322125 241.415759 
L 162.013048 241.299842 
L 179.729482 240.5967 
L 187.849514 240.114859 
L 191.540438 239.890667 
L 193.754992 239.697468 
L 194.493176 239.709061 
L 195.969546 239.571447 
L 203.351393 238.978701 
L 207.042317 238.567474 
L 209.995056 238.346384 
L 210.733241 238.163387 
L 212.947795 237.92922 
L 220.329642 236.652324 
L 221.806011 236.34747 
L 222.544196 236.212136 
L 223.282381 235.958212 
L 224.020566 235.831798 
L 224.75875 235.561755 
L 225.496935 235.469364 
L 226.973305 235.022607 
L 227.711489 234.967494 
L 229.926044 234.237311 
L 231.402413 233.906154 
L 232.140598 233.357143 
L 232.878782 233.332429 
L 233.616967 232.936834 
L 234.355152 232.763355 
L 235.093337 232.216911 
L 237.307891 231.713881 
L 238.78426 230.770152 
L 239.522445 230.089749 
L 240.26063 229.761406 
L 240.998815 229.261567 
L 241.736999 228.9928 
L 242.475184 228.049311 
L 243.213369 227.34353 
L 243.951553 226.971111 
L 244.689738 225.934397 
L 245.427923 225.579501 
L 246.166108 225.088999 
L 247.642477 222.868124 
L 248.380662 222.462626 
L 249.118847 220.749588 
L 249.857031 219.769225 
L 250.595216 218.989894 
L 251.333401 215.984144 
L 252.071585 214.876403 
L 252.80977 214.113299 
L 253.547955 210.822199 
L 254.28614 210.323323 
L 255.024324 208.624833 
L 256.500694 209.787799 
L 257.238879 212.928471 
L 257.977063 211.818807 
L 258.715248 217.862781 
L 259.453433 231.026946 
L 260.191618 231.701762 
L 260.929802 252.466031 
L 261.667987 252.661674 
L 263.144356 275.698198 
L 263.882541 272.510014 
L 264.620726 275.729287 
L 266.097095 275.26674 
L 266.83528 273.19755 
L 267.573465 275.393502 
L 268.31165 274.260715 
L 269.049834 271.383427 
L 269.788019 269.967299 
L 270.526204 267.634517 
L 271.264389 267.654237 
L 272.002573 266.13022 
L 272.740758 265.319558 
L 273.478943 264.018961 
L 274.217127 263.586924 
L 274.955312 262.676759 
L 275.693497 262.048237 
L 276.431682 261.267421 
L 277.169866 261.135379 
L 277.908051 259.91148 
L 278.646236 259.487416 
L 279.384421 259.283451 
L 281.598975 257.552731 
L 282.337159 257.297523 
L 283.075344 256.754296 
L 283.813529 256.441046 
L 284.551714 255.962264 
L 285.289898 255.796974 
L 288.242637 254.209105 
L 288.980822 254.108961 
L 290.457191 253.467685 
L 291.195376 253.324092 
L 292.671746 252.838928 
L 294.148115 252.487268 
L 295.624485 252.041578 
L 297.839039 251.524236 
L 304.482701 250.22512 
L 308.91181 249.54052 
L 314.079103 248.907447 
L 317.770027 248.531811 
L 320.722765 248.273807 
L 331.057352 247.467126 
L 347.297416 246.66644 
L 398.970347 245.353874 
L 432.926845 244.699887 
L 541.44 242.992024 
L 541.44 242.992024 
" clip-path="url(#p0f86cd721e)" style="fill: none; stroke-dasharray: 7.4,3.2; stroke-dashoffset: 0; stroke: #984ea3; stroke-width: 2"/>
   </g>
   <g id="line2d_30">
    <path d="M -1 243.646949 
L 67.525403 242.875133 
L 128.794735 241.646088 
L 143.55843 241.125244 
L 153.893016 240.639587 
L 158.322125 240.389981 
L 163.489418 240.094556 
L 165.703972 239.914352 
L 167.918526 239.743972 
L 170.871265 239.548264 
L 171.60945 239.39918 
L 173.824004 239.248333 
L 181.205851 238.446075 
L 182.682221 238.24787 
L 184.896775 237.987417 
L 185.63496 237.774809 
L 186.373144 237.728778 
L 187.111329 237.50231 
L 188.587699 237.358173 
L 191.540438 236.804253 
L 192.278622 236.508828 
L 193.016807 236.488619 
L 193.754992 236.17448 
L 194.493176 236.223131 
L 195.231361 235.970138 
L 196.707731 235.681595 
L 197.445915 235.289887 
L 198.922285 234.954548 
L 199.66047 234.561956 
L 200.398654 234.615133 
L 201.136839 234.232524 
L 205.565947 232.617348 
L 207.042317 231.922148 
L 207.780502 231.239304 
L 208.518686 231.164854 
L 209.256871 230.460066 
L 209.995056 230.423995 
L 210.733241 229.390902 
L 211.471425 229.094665 
L 212.947795 227.978589 
L 213.685979 227.054348 
L 214.424164 226.634099 
L 215.162349 224.494783 
L 215.900534 224.31497 
L 216.638718 223.179356 
L 217.376903 221.271814 
L 218.115088 221.323441 
L 219.591457 217.119764 
L 220.329642 216.317903 
L 221.067827 213.291579 
L 222.544196 208.395896 
L 223.282381 203.103359 
L 224.020566 202.498879 
L 224.75875 203.609639 
L 225.496935 203.463543 
L 226.23512 197.540702 
L 226.973305 205.884108 
L 227.711489 216.402212 
L 228.449674 230.044294 
L 229.187859 236.841476 
L 230.664228 261.36782 
L 231.402413 266.843991 
L 232.140598 279.111772 
L 232.878782 274.368016 
L 233.616967 277.421396 
L 234.355152 279.190084 
L 235.093337 275.272673 
L 235.831521 275.427283 
L 236.569706 273.876887 
L 237.307891 271.340728 
L 238.046076 272.228758 
L 238.78426 271.080024 
L 239.522445 269.261974 
L 240.26063 266.993432 
L 240.998815 265.973936 
L 241.736999 264.014931 
L 242.475184 263.863253 
L 243.951553 262.063526 
L 244.689738 261.307676 
L 245.427923 260.89849 
L 246.166108 260.665408 
L 248.380662 258.379354 
L 249.118847 258.043523 
L 249.857031 257.365704 
L 251.333401 256.471289 
L 252.071585 256.276073 
L 252.80977 255.861536 
L 255.762509 254.646627 
L 256.500694 254.205877 
L 257.238879 253.924207 
L 257.977063 253.829246 
L 258.715248 253.482616 
L 260.191618 253.141359 
L 260.929802 252.808889 
L 261.667987 252.77029 
L 264.620726 251.983584 
L 265.358911 251.67993 
L 266.097095 251.612467 
L 267.573465 251.258502 
L 268.31165 251.245788 
L 270.526204 250.738365 
L 271.264389 250.722387 
L 272.740758 250.401882 
L 286.766268 248.803428 
L 291.933561 248.343903 
L 302.268147 247.577256 
L 317.770027 246.723196 
L 350.250155 245.661798 
L 384.944837 245.058739 
L 511.912611 242.73616 
L 517.818089 242.599372 
L 541.44 241.953195 
L 541.44 241.953195 
" clip-path="url(#p0f86cd721e)" style="fill: none; stroke-dasharray: 7.4,3.2; stroke-dashoffset: 0; stroke: #ff7f00; stroke-width: 2"/>
   </g>
   <g id="line2d_31">
    <path d="M -1 243.58993 
L 60.143555 242.791458 
L 91.147314 242.172807 
L 96.314607 242.050882 
L 105.172824 241.820024 
L 111.078302 241.617864 
L 120.674703 241.278904 
L 144.296615 239.948036 
L 145.772984 239.795058 
L 150.940277 239.353108 
L 154.631201 238.883916 
L 156.10757 238.762135 
L 158.322125 238.454819 
L 159.060309 238.41432 
L 162.013048 237.88897 
L 162.751233 237.852444 
L 164.227602 237.560046 
L 164.965787 237.483052 
L 165.703972 237.264235 
L 166.442157 237.189534 
L 170.13308 236.23725 
L 170.871265 236.170151 
L 171.60945 235.769352 
L 173.085819 235.575709 
L 173.824004 235.155423 
L 175.300373 234.851828 
L 176.038558 234.384263 
L 177.514928 234.009887 
L 178.253112 233.672949 
L 178.991297 233.108242 
L 179.729482 232.777862 
L 180.467667 232.24638 
L 181.205851 231.987454 
L 181.944036 231.372023 
L 183.420406 230.658416 
L 184.896775 229.425276 
L 185.63496 228.481192 
L 186.373144 227.88004 
L 187.111329 226.613935 
L 188.587699 224.971274 
L 189.325883 224.183196 
L 190.064068 222.449767 
L 191.540438 219.742616 
L 192.278622 216.453366 
L 193.016807 216.194424 
L 193.754992 212.656234 
L 194.493176 211.998923 
L 195.231361 204.172231 
L 195.969546 204.25626 
L 196.707731 202.990026 
L 197.445915 195.507076 
L 198.1841 195.002966 
L 198.922285 197.253515 
L 199.66047 200.214978 
L 200.398654 195.246107 
L 201.136839 215.802806 
L 201.875024 245.960265 
L 202.613209 263.884361 
L 203.351393 269.184959 
L 204.089578 287.623144 
L 204.827763 281.750666 
L 205.565947 289.025885 
L 206.304132 288.318964 
L 207.042317 278.859239 
L 207.780502 283.085592 
L 209.256871 274.585026 
L 209.995056 273.328562 
L 210.733241 271.297298 
L 211.471425 270.081402 
L 212.20961 268.146918 
L 212.947795 266.71971 
L 213.685979 265.896724 
L 214.424164 264.554137 
L 215.162349 262.732582 
L 215.900534 262.328744 
L 216.638718 261.397665 
L 217.376903 260.012735 
L 218.115088 259.721156 
L 218.853273 258.55976 
L 219.591457 258.333201 
L 220.329642 257.575862 
L 222.544196 256.117151 
L 224.020566 255.290306 
L 224.75875 254.778397 
L 226.973305 254.021722 
L 228.449674 253.45547 
L 234.355152 251.798649 
L 235.831521 251.458896 
L 236.569706 251.434511 
L 238.78426 251.009939 
L 248.380662 249.561012 
L 252.80977 249.056402 
L 256.500694 248.689959 
L 265.358911 247.987568 
L 269.049834 247.780281 
L 273.478943 247.519454 
L 301.529962 246.279728 
L 318.508211 245.742217 
L 330.319167 245.427487 
L 359.108371 244.902069 
L 390.850315 244.433723 
L 475.003374 242.849652 
L 497.887101 242.114227 
L 508.221687 241.628295 
L 521.509012 240.955078 
L 541.44 240.018481 
L 541.44 240.018481 
" clip-path="url(#p0f86cd721e)" style="fill: none; stroke-dasharray: 7.4,3.2; stroke-dashoffset: 0; stroke: #a65628; stroke-width: 2"/>
   </g>
   <g id="line2d_32">
    <path d="M -1 243.531647 
L 51.285339 242.765364 
L 105.172824 241.309333 
L 111.078302 241.00723 
L 115.50741 240.818697 
L 132.485659 239.535171 
L 137.652952 238.99254 
L 140.605691 238.522399 
L 141.343876 238.490044 
L 142.820245 238.259486 
L 144.296615 238.019111 
L 145.0348 237.776138 
L 146.511169 237.667178 
L 147.987538 237.277707 
L 148.725723 237.208218 
L 153.893016 235.849277 
L 154.631201 235.46723 
L 156.845755 234.903112 
L 158.322125 234.218089 
L 159.060309 234.073846 
L 159.798494 233.667488 
L 160.536679 233.502603 
L 161.274864 232.868278 
L 162.751233 232.16966 
L 164.227602 230.918507 
L 164.965787 230.880586 
L 166.442157 229.633166 
L 167.918526 227.813216 
L 169.394896 226.073313 
L 170.871265 224.14807 
L 171.60945 220.413823 
L 173.085819 219.915538 
L 173.824004 215.102564 
L 174.562189 213.038751 
L 175.300373 210.045084 
L 176.038558 206.019991 
L 176.776743 199.682738 
L 177.514928 197.754592 
L 178.253112 188.93125 
L 178.991297 167.334645 
L 179.729482 167.033527 
L 180.467667 109.483864 
L 181.205851 189.911367 
L 181.944036 255.058074 
L 182.682221 299.500993 
L 183.420406 326.390505 
L 184.15859 338.52469 
L 184.896775 325.408459 
L 185.63496 293.307676 
L 186.373144 290.709531 
L 187.111329 284.855945 
L 187.849514 282.193926 
L 188.587699 278.656357 
L 189.325883 273.961271 
L 190.064068 271.628444 
L 190.802253 268.84307 
L 192.278622 264.797001 
L 193.016807 264.433206 
L 193.754992 262.907245 
L 194.493176 262.780476 
L 195.231361 261.013597 
L 195.969546 260.590996 
L 197.445915 258.740218 
L 198.1841 258.477395 
L 198.922285 257.449071 
L 199.66047 256.824879 
L 200.398654 256.780085 
L 204.089578 254.769576 
L 204.827763 254.439509 
L 205.565947 254.245334 
L 207.042317 253.529541 
L 208.518686 253.2477 
L 209.256871 252.779463 
L 209.995056 252.670241 
L 211.471425 252.213083 
L 212.20961 252.181126 
L 212.947795 251.808737 
L 214.424164 251.55717 
L 215.162349 251.202288 
L 216.638718 250.969874 
L 217.376903 250.715739 
L 218.115088 250.675264 
L 220.329642 250.213813 
L 226.973305 249.230047 
L 230.664228 248.82411 
L 232.140598 248.700799 
L 235.831521 248.378295 
L 239.522445 248.137107 
L 243.213369 247.854483 
L 256.500694 247.113203 
L 272.002573 246.476251 
L 294.8863 245.789653 
L 312.602733 245.318104 
L 348.773785 244.583074 
L 412.995857 243.497331 
L 437.355953 242.876438 
L 457.286941 242.218033 
L 475.741559 241.340232 
L 481.647037 240.963091 
L 490.505254 240.148498 
L 504.530763 238.345349 
L 506.007133 238.046819 
L 508.959872 237.808611 
L 511.174426 237.678998 
L 511.912611 237.791298 
L 512.650795 237.314234 
L 513.38898 237.502918 
L 514.127165 237.452768 
L 514.86535 237.793601 
L 515.603534 237.760154 
L 517.818089 238.302559 
L 518.556273 238.739409 
L 519.294458 238.651476 
L 520.032643 239.384421 
L 520.770828 239.732966 
L 521.509012 240.38597 
L 522.247197 240.697125 
L 522.985382 241.222379 
L 524.461751 242.947423 
L 525.199936 243.573437 
L 525.938121 244.453764 
L 526.676305 245.084808 
L 529.629044 248.403162 
L 530.367229 248.77531 
L 531.105414 249.688771 
L 531.843598 250.147199 
L 532.581783 250.858359 
L 534.058153 251.523871 
L 534.796337 251.536601 
L 536.272707 252.270283 
L 537.010892 252.333024 
L 537.749076 252.075157 
L 538.487261 252.341817 
L 540.701815 252.369299 
L 541.44 252.136782 
L 541.44 252.136782 
" clip-path="url(#p0f86cd721e)" style="fill: none; stroke-dasharray: 7.4,3.2; stroke-dashoffset: 0; stroke: #000000; stroke-width: 2"/>
   </g>
   <g id="patch_3">
    <path d="M 69.12 367.2 
L 69.12 38.88 
" style="fill: none; stroke: #000000; stroke-width: 0.8; stroke-linejoin: miter; stroke-linecap: square"/>
   </g>
   <g id="patch_4">
    <path d="M 541.44 367.2 
L 541.44 38.88 
" style="fill: none; stroke: #000000; stroke-width: 0.8; stroke-linejoin: miter; stroke-linecap: square"/>
   </g>
   <g id="patch_5">
    <path d="M 69.12 367.2 
L 541.44 367.2 
" style="fill: none; stroke: #000000; stroke-width: 0.8; stroke-linejoin: miter; stroke-linecap: square"/>
   </g>
   <g id="patch_6">
    <path d="M 69.12 38.88 
L 541.44 38.88 
" style="fill: none; stroke: #000000; stroke-width: 0.8; stroke-linejoin: miter; stroke-linecap: square"/>
   </g>
   <g id="legend_1">
    <g id="patch_7">
     <path d="M 419.461875 205.000313 
L 530.94 205.000313 
Q 533.94 205.000313 533.94 202.000313 
L 533.94 49.38 
Q 533.94 46.38 530.94 46.38 
L 419.461875 46.38 
Q 416.461875 46.38 416.461875 49.38 
L 416.461875 202.000313 
Q 416.461875 205.000313 419.461875 205.000313 
z
" style="fill: #ffffff; opacity: 0.8; stroke: #cccccc; stroke-linejoin: miter"/>
    </g>
    <g id="line2d_33">
     <path d="M 422.461875 58.527656 
L 437.461875 58.527656 
L 452.461875 58.527656 
" style="fill: none; stroke: #e41a1c; stroke-width: 2; stroke-linecap: square"/>
    </g>
    <g id="text_21">
     <!-- 8 Turns -->
     <g transform="translate(464.461875 63.777656)scale(0.15 -0.15)">
      <defs>
       <path id="DejaVuSans-54" d="M -19 4666 
L 3928 4666 
L 3928 4134 
L 2272 4134 
L 2272 0 
L 1638 0 
L 1638 4134 
L -19 4134 
L -19 4666 
z
" transform="scale(0.015625)"/>
       <path id="DejaVuSans-73" d="M 2834 3397 
L 2834 2853 
Q 2591 2978 2328 3040 
Q 2066 3103 1784 3103 
Q 1356 3103 1142 2972 
Q 928 2841 928 2578 
Q 928 2378 1081 2264 
Q 1234 2150 1697 2047 
L 1894 2003 
Q 2506 1872 2764 1633 
Q 3022 1394 3022 966 
Q 3022 478 2636 193 
Q 2250 -91 1575 -91 
Q 1294 -91 989 -36 
Q 684 19 347 128 
L 347 722 
Q 666 556 975 473 
Q 1284 391 1588 391 
Q 1994 391 2212 530 
Q 2431 669 2431 922 
Q 2431 1156 2273 1281 
Q 2116 1406 1581 1522 
L 1381 1569 
Q 847 1681 609 1914 
Q 372 2147 372 2553 
Q 372 3047 722 3315 
Q 1072 3584 1716 3584 
Q 2034 3584 2315 3537 
Q 2597 3491 2834 3397 
z
" transform="scale(0.015625)"/>
      </defs>
      <use xlink:href="#DejaVuSans-38"/>
      <use xlink:href="#DejaVuSans-20" x="63.623047"/>
      <use xlink:href="#DejaVuSans-54" x="95.410156"/>
      <use xlink:href="#DejaVuSans-75" x="141.369141"/>
      <use xlink:href="#DejaVuSans-72" x="204.748047"/>
      <use xlink:href="#DejaVuSans-6e" x="244.111328"/>
      <use xlink:href="#DejaVuSans-73" x="307.490234"/>
     </g>
    </g>
    <g id="line2d_34">
     <path d="M 422.461875 80.544844 
L 437.461875 80.544844 
L 452.461875 80.544844 
" style="fill: none; stroke: #377eb8; stroke-width: 2; stroke-linecap: square"/>
    </g>
    <g id="text_22">
     <!-- 10 Turns -->
     <g transform="translate(464.461875 85.794844)scale(0.15 -0.15)">
      <use xlink:href="#DejaVuSans-31"/>
      <use xlink:href="#DejaVuSans-30" x="63.623047"/>
      <use xlink:href="#DejaVuSans-20" x="127.246094"/>
      <use xlink:href="#DejaVuSans-54" x="159.033203"/>
      <use xlink:href="#DejaVuSans-75" x="204.992188"/>
      <use xlink:href="#DejaVuSans-72" x="268.371094"/>
      <use xlink:href="#DejaVuSans-6e" x="307.734375"/>
      <use xlink:href="#DejaVuSans-73" x="371.113281"/>
     </g>
    </g>
    <g id="line2d_35">
     <path d="M 422.461875 102.562031 
L 437.461875 102.562031 
L 452.461875 102.562031 
" style="fill: none; stroke: #4daf4a; stroke-width: 2; stroke-linecap: square"/>
    </g>
    <g id="text_23">
     <!-- 12 Turns -->
     <g transform="translate(464.461875 107.812031)scale(0.15 -0.15)">
      <use xlink:href="#DejaVuSans-31"/>
      <use xlink:href="#DejaVuSans-32" x="63.623047"/>
      <use xlink:href="#DejaVuSans-20" x="127.246094"/>
      <use xlink:href="#DejaVuSans-54" x="159.033203"/>
      <use xlink:href="#DejaVuSans-75" x="204.992188"/>
      <use xlink:href="#DejaVuSans-72" x="268.371094"/>
      <use xlink:href="#DejaVuSans-6e" x="307.734375"/>
      <use xlink:href="#DejaVuSans-73" x="371.113281"/>
     </g>
    </g>
    <g id="line2d_36">
     <path d="M 422.461875 124.579219 
L 437.461875 124.579219 
L 452.461875 124.579219 
" style="fill: none; stroke: #984ea3; stroke-width: 2; stroke-linecap: square"/>
    </g>
    <g id="text_24">
     <!-- 14 Turns -->
     <g transform="translate(464.461875 129.829219)scale(0.15 -0.15)">
      <use xlink:href="#DejaVuSans-31"/>
      <use xlink:href="#DejaVuSans-34" x="63.623047"/>
      <use xlink:href="#DejaVuSans-20" x="127.246094"/>
      <use xlink:href="#DejaVuSans-54" x="159.033203"/>
      <use xlink:href="#DejaVuSans-75" x="204.992188"/>
      <use xlink:href="#DejaVuSans-72" x="268.371094"/>
      <use xlink:href="#DejaVuSans-6e" x="307.734375"/>
      <use xlink:href="#DejaVuSans-73" x="371.113281"/>
     </g>
    </g>
    <g id="line2d_37">
     <path d="M 422.461875 146.596406 
L 437.461875 146.596406 
L 452.461875 146.596406 
" style="fill: none; stroke: #ff7f00; stroke-width: 2; stroke-linecap: square"/>
    </g>
    <g id="text_25">
     <!-- 16 Turns -->
     <g transform="translate(464.461875 151.846406)scale(0.15 -0.15)">
      <use xlink:href="#DejaVuSans-31"/>
      <use xlink:href="#DejaVuSans-36" x="63.623047"/>
      <use xlink:href="#DejaVuSans-20" x="127.246094"/>
      <use xlink:href="#DejaVuSans-54" x="159.033203"/>
      <use xlink:href="#DejaVuSans-75" x="204.992188"/>
      <use xlink:href="#DejaVuSans-72" x="268.371094"/>
      <use xlink:href="#DejaVuSans-6e" x="307.734375"/>
      <use xlink:href="#DejaVuSans-73" x="371.113281"/>
     </g>
    </g>
    <g id="line2d_38">
     <path d="M 422.461875 168.613594 
L 437.461875 168.613594 
L 452.461875 168.613594 
" style="fill: none; stroke: #a65628; stroke-width: 2; stroke-linecap: square"/>
    </g>
    <g id="text_26">
     <!-- 18 Turns -->
     <g transform="translate(464.461875 173.863594)scale(0.15 -0.15)">
      <use xlink:href="#DejaVuSans-31"/>
      <use xlink:href="#DejaVuSans-38" x="63.623047"/>
      <use xlink:href="#DejaVuSans-20" x="127.246094"/>
      <use xlink:href="#DejaVuSans-54" x="159.033203"/>
      <use xlink:href="#DejaVuSans-75" x="204.992188"/>
      <use xlink:href="#DejaVuSans-72" x="268.371094"/>
      <use xlink:href="#DejaVuSans-6e" x="307.734375"/>
      <use xlink:href="#DejaVuSans-73" x="371.113281"/>
     </g>
    </g>
    <g id="line2d_39">
     <path d="M 422.461875 190.630781 
L 437.461875 190.630781 
L 452.461875 190.630781 
" style="fill: none; stroke: #000000; stroke-width: 2; stroke-linecap: square"/>
    </g>
    <g id="text_27">
     <!-- 20 Turns -->
     <g transform="translate(464.461875 195.880781)scale(0.15 -0.15)">
      <use xlink:href="#DejaVuSans-32"/>
      <use xlink:href="#DejaVuSans-30" x="63.623047"/>
      <use xlink:href="#DejaVuSans-20" x="127.246094"/>
      <use xlink:href="#DejaVuSans-54" x="159.033203"/>
      <use xlink:href="#DejaVuSans-75" x="204.992188"/>
      <use xlink:href="#DejaVuSans-72" x="268.371094"/>
      <use xlink:href="#DejaVuSans-6e" x="307.734375"/>
      <use xlink:href="#DejaVuSans-73" x="371.113281"/>
     </g>
    </g>
   </g>
  </g>
 </g>
 <defs>
  <clipPath id="p0f86cd721e">
   <rect x="69.12" y="38.88" width="472.32" height="328.32"/>
  </clipPath>
 </defs>
</svg>
