<?xml version="1.0" encoding="utf-8" standalone="no"?>
<!DOCTYPE svg PUBLIC "-//W3C//DTD SVG 1.1//EN"
  "http://www.w3.org/Graphics/SVG/1.1/DTD/svg11.dtd">
<svg xmlns:xlink="http://www.w3.org/1999/xlink" width="576pt" height="504pt" viewBox="0 0 576 504" xmlns="http://www.w3.org/2000/svg" version="1.1">
 <metadata>
  <rdf:RDF xmlns:dc="http://purl.org/dc/elements/1.1/" xmlns:cc="http://creativecommons.org/ns#" xmlns:rdf="http://www.w3.org/1999/02/22-rdf-syntax-ns#">
   <cc:Work>
    <dc:type rdf:resource="http://purl.org/dc/dcmitype/StillImage"/>
    <dc:date>2022-07-04T17:06:20.943151</dc:date>
    <dc:format>image/svg+xml</dc:format>
    <dc:creator>
     <cc:Agent>
      <dc:title>Matplotlib v3.5.1, https://matplotlib.org/</dc:title>
     </cc:Agent>
    </dc:creator>
   </cc:Work>
  </rdf:RDF>
 </metadata>
 <defs>
  <style type="text/css">*{stroke-linejoin: round; stroke-linecap: butt}</style>
 </defs>
 <g id="figure_1">
  <g id="patch_1">
   <path d="M 0 504 
L 576 504 
L 576 0 
L 0 0 
z
" style="fill: #ffffff"/>
  </g>
  <g id="axes_1">
   <g id="patch_2">
    <path d="M 69.12 453.6 
L 541.44 453.6 
L 541.44 30.24 
L 69.12 30.24 
z
" style="fill: #ffffff"/>
   </g>
   <g id="matplotlib.axis_1">
    <g id="xtick_1">
     <g id="line2d_1">
      <defs>
       <path id="mb535414ac6" d="M 0 0 
L 0 3.5 
" style="stroke: #000000; stroke-width: 0.8"/>
      </defs>
      <g>
       <use xlink:href="#mb535414ac6" x="69.12" y="453.6" style="stroke: #000000; stroke-width: 0.8"/>
      </g>
     </g>
     <g id="text_1">
      <!-- 30 -->
      <g transform="translate(59.57625 471.997656)scale(0.15 -0.15)">
       <defs>
        <path id="DejaVuSans-33" d="M 2597 2516 
Q 3050 2419 3304 2112 
Q 3559 1806 3559 1356 
Q 3559 666 3084 287 
Q 2609 -91 1734 -91 
Q 1441 -91 1130 -33 
Q 819 25 488 141 
L 488 750 
Q 750 597 1062 519 
Q 1375 441 1716 441 
Q 2309 441 2620 675 
Q 2931 909 2931 1356 
Q 2931 1769 2642 2001 
Q 2353 2234 1838 2234 
L 1294 2234 
L 1294 2753 
L 1863 2753 
Q 2328 2753 2575 2939 
Q 2822 3125 2822 3475 
Q 2822 3834 2567 4026 
Q 2313 4219 1838 4219 
Q 1578 4219 1281 4162 
Q 984 4106 628 3988 
L 628 4550 
Q 988 4650 1302 4700 
Q 1616 4750 1894 4750 
Q 2613 4750 3031 4423 
Q 3450 4097 3450 3541 
Q 3450 3153 3228 2886 
Q 3006 2619 2597 2516 
z
" transform="scale(0.015625)"/>
        <path id="DejaVuSans-30" d="M 2034 4250 
Q 1547 4250 1301 3770 
Q 1056 3291 1056 2328 
Q 1056 1369 1301 889 
Q 1547 409 2034 409 
Q 2525 409 2770 889 
Q 3016 1369 3016 2328 
Q 3016 3291 2770 3770 
Q 2525 4250 2034 4250 
z
M 2034 4750 
Q 2819 4750 3233 4129 
Q 3647 3509 3647 2328 
Q 3647 1150 3233 529 
Q 2819 -91 2034 -91 
Q 1250 -91 836 529 
Q 422 1150 422 2328 
Q 422 3509 836 4129 
Q 1250 4750 2034 4750 
z
" transform="scale(0.015625)"/>
       </defs>
       <use xlink:href="#DejaVuSans-33"/>
       <use xlink:href="#DejaVuSans-30" x="63.623047"/>
      </g>
     </g>
    </g>
    <g id="xtick_2">
     <g id="line2d_2">
      <g>
       <use xlink:href="#mb535414ac6" x="163.584" y="453.6" style="stroke: #000000; stroke-width: 0.8"/>
      </g>
     </g>
     <g id="text_2">
      <!-- 40 -->
      <g transform="translate(154.04025 471.997656)scale(0.15 -0.15)">
       <defs>
        <path id="DejaVuSans-34" d="M 2419 4116 
L 825 1625 
L 2419 1625 
L 2419 4116 
z
M 2253 4666 
L 3047 4666 
L 3047 1625 
L 3713 1625 
L 3713 1100 
L 3047 1100 
L 3047 0 
L 2419 0 
L 2419 1100 
L 313 1100 
L 313 1709 
L 2253 4666 
z
" transform="scale(0.015625)"/>
       </defs>
       <use xlink:href="#DejaVuSans-34"/>
       <use xlink:href="#DejaVuSans-30" x="63.623047"/>
      </g>
     </g>
    </g>
    <g id="xtick_3">
     <g id="line2d_3">
      <g>
       <use xlink:href="#mb535414ac6" x="258.048" y="453.6" style="stroke: #000000; stroke-width: 0.8"/>
      </g>
     </g>
     <g id="text_3">
      <!-- 50 -->
      <g transform="translate(248.50425 471.997656)scale(0.15 -0.15)">
       <defs>
        <path id="DejaVuSans-35" d="M 691 4666 
L 3169 4666 
L 3169 4134 
L 1269 4134 
L 1269 2991 
Q 1406 3038 1543 3061 
Q 1681 3084 1819 3084 
Q 2600 3084 3056 2656 
Q 3513 2228 3513 1497 
Q 3513 744 3044 326 
Q 2575 -91 1722 -91 
Q 1428 -91 1123 -41 
Q 819 9 494 109 
L 494 744 
Q 775 591 1075 516 
Q 1375 441 1709 441 
Q 2250 441 2565 725 
Q 2881 1009 2881 1497 
Q 2881 1984 2565 2268 
Q 2250 2553 1709 2553 
Q 1456 2553 1204 2497 
Q 953 2441 691 2322 
L 691 4666 
z
" transform="scale(0.015625)"/>
       </defs>
       <use xlink:href="#DejaVuSans-35"/>
       <use xlink:href="#DejaVuSans-30" x="63.623047"/>
      </g>
     </g>
    </g>
    <g id="xtick_4">
     <g id="line2d_4">
      <g>
       <use xlink:href="#mb535414ac6" x="352.512" y="453.6" style="stroke: #000000; stroke-width: 0.8"/>
      </g>
     </g>
     <g id="text_4">
      <!-- 60 -->
      <g transform="translate(342.96825 471.997656)scale(0.15 -0.15)">
       <defs>
        <path id="DejaVuSans-36" d="M 2113 2584 
Q 1688 2584 1439 2293 
Q 1191 2003 1191 1497 
Q 1191 994 1439 701 
Q 1688 409 2113 409 
Q 2538 409 2786 701 
Q 3034 994 3034 1497 
Q 3034 2003 2786 2293 
Q 2538 2584 2113 2584 
z
M 3366 4563 
L 3366 3988 
Q 3128 4100 2886 4159 
Q 2644 4219 2406 4219 
Q 1781 4219 1451 3797 
Q 1122 3375 1075 2522 
Q 1259 2794 1537 2939 
Q 1816 3084 2150 3084 
Q 2853 3084 3261 2657 
Q 3669 2231 3669 1497 
Q 3669 778 3244 343 
Q 2819 -91 2113 -91 
Q 1303 -91 875 529 
Q 447 1150 447 2328 
Q 447 3434 972 4092 
Q 1497 4750 2381 4750 
Q 2619 4750 2861 4703 
Q 3103 4656 3366 4563 
z
" transform="scale(0.015625)"/>
       </defs>
       <use xlink:href="#DejaVuSans-36"/>
       <use xlink:href="#DejaVuSans-30" x="63.623047"/>
      </g>
     </g>
    </g>
    <g id="xtick_5">
     <g id="line2d_5">
      <g>
       <use xlink:href="#mb535414ac6" x="446.976" y="453.6" style="stroke: #000000; stroke-width: 0.8"/>
      </g>
     </g>
     <g id="text_5">
      <!-- 70 -->
      <g transform="translate(437.43225 471.997656)scale(0.15 -0.15)">
       <defs>
        <path id="DejaVuSans-37" d="M 525 4666 
L 3525 4666 
L 3525 4397 
L 1831 0 
L 1172 0 
L 2766 4134 
L 525 4134 
L 525 4666 
z
" transform="scale(0.015625)"/>
       </defs>
       <use xlink:href="#DejaVuSans-37"/>
       <use xlink:href="#DejaVuSans-30" x="63.623047"/>
      </g>
     </g>
    </g>
    <g id="xtick_6">
     <g id="line2d_6">
      <g>
       <use xlink:href="#mb535414ac6" x="541.44" y="453.6" style="stroke: #000000; stroke-width: 0.8"/>
      </g>
     </g>
     <g id="text_6">
      <!-- 80 -->
      <g transform="translate(531.89625 471.997656)scale(0.15 -0.15)">
       <defs>
        <path id="DejaVuSans-38" d="M 2034 2216 
Q 1584 2216 1326 1975 
Q 1069 1734 1069 1313 
Q 1069 891 1326 650 
Q 1584 409 2034 409 
Q 2484 409 2743 651 
Q 3003 894 3003 1313 
Q 3003 1734 2745 1975 
Q 2488 2216 2034 2216 
z
M 1403 2484 
Q 997 2584 770 2862 
Q 544 3141 544 3541 
Q 544 4100 942 4425 
Q 1341 4750 2034 4750 
Q 2731 4750 3128 4425 
Q 3525 4100 3525 3541 
Q 3525 3141 3298 2862 
Q 3072 2584 2669 2484 
Q 3125 2378 3379 2068 
Q 3634 1759 3634 1313 
Q 3634 634 3220 271 
Q 2806 -91 2034 -91 
Q 1263 -91 848 271 
Q 434 634 434 1313 
Q 434 1759 690 2068 
Q 947 2378 1403 2484 
z
M 1172 3481 
Q 1172 3119 1398 2916 
Q 1625 2713 2034 2713 
Q 2441 2713 2670 2916 
Q 2900 3119 2900 3481 
Q 2900 3844 2670 4047 
Q 2441 4250 2034 4250 
Q 1625 4250 1398 4047 
Q 1172 3844 1172 3481 
z
" transform="scale(0.015625)"/>
       </defs>
       <use xlink:href="#DejaVuSans-38"/>
       <use xlink:href="#DejaVuSans-30" x="63.623047"/>
      </g>
     </g>
    </g>
    <g id="text_7">
     <!-- Frequency (MHz) -->
     <g transform="translate(242.251875 490.514844)scale(0.15 -0.15)">
      <defs>
       <path id="DejaVuSans-46" d="M 628 4666 
L 3309 4666 
L 3309 4134 
L 1259 4134 
L 1259 2759 
L 3109 2759 
L 3109 2228 
L 1259 2228 
L 1259 0 
L 628 0 
L 628 4666 
z
" transform="scale(0.015625)"/>
       <path id="DejaVuSans-72" d="M 2631 2963 
Q 2534 3019 2420 3045 
Q 2306 3072 2169 3072 
Q 1681 3072 1420 2755 
Q 1159 2438 1159 1844 
L 1159 0 
L 581 0 
L 581 3500 
L 1159 3500 
L 1159 2956 
Q 1341 3275 1631 3429 
Q 1922 3584 2338 3584 
Q 2397 3584 2469 3576 
Q 2541 3569 2628 3553 
L 2631 2963 
z
" transform="scale(0.015625)"/>
       <path id="DejaVuSans-65" d="M 3597 1894 
L 3597 1613 
L 953 1613 
Q 991 1019 1311 708 
Q 1631 397 2203 397 
Q 2534 397 2845 478 
Q 3156 559 3463 722 
L 3463 178 
Q 3153 47 2828 -22 
Q 2503 -91 2169 -91 
Q 1331 -91 842 396 
Q 353 884 353 1716 
Q 353 2575 817 3079 
Q 1281 3584 2069 3584 
Q 2775 3584 3186 3129 
Q 3597 2675 3597 1894 
z
M 3022 2063 
Q 3016 2534 2758 2815 
Q 2500 3097 2075 3097 
Q 1594 3097 1305 2825 
Q 1016 2553 972 2059 
L 3022 2063 
z
" transform="scale(0.015625)"/>
       <path id="DejaVuSans-71" d="M 947 1747 
Q 947 1113 1208 752 
Q 1469 391 1925 391 
Q 2381 391 2643 752 
Q 2906 1113 2906 1747 
Q 2906 2381 2643 2742 
Q 2381 3103 1925 3103 
Q 1469 3103 1208 2742 
Q 947 2381 947 1747 
z
M 2906 525 
Q 2725 213 2448 61 
Q 2172 -91 1784 -91 
Q 1150 -91 751 415 
Q 353 922 353 1747 
Q 353 2572 751 3078 
Q 1150 3584 1784 3584 
Q 2172 3584 2448 3432 
Q 2725 3281 2906 2969 
L 2906 3500 
L 3481 3500 
L 3481 -1331 
L 2906 -1331 
L 2906 525 
z
" transform="scale(0.015625)"/>
       <path id="DejaVuSans-75" d="M 544 1381 
L 544 3500 
L 1119 3500 
L 1119 1403 
Q 1119 906 1312 657 
Q 1506 409 1894 409 
Q 2359 409 2629 706 
Q 2900 1003 2900 1516 
L 2900 3500 
L 3475 3500 
L 3475 0 
L 2900 0 
L 2900 538 
Q 2691 219 2414 64 
Q 2138 -91 1772 -91 
Q 1169 -91 856 284 
Q 544 659 544 1381 
z
M 1991 3584 
L 1991 3584 
z
" transform="scale(0.015625)"/>
       <path id="DejaVuSans-6e" d="M 3513 2113 
L 3513 0 
L 2938 0 
L 2938 2094 
Q 2938 2591 2744 2837 
Q 2550 3084 2163 3084 
Q 1697 3084 1428 2787 
Q 1159 2491 1159 1978 
L 1159 0 
L 581 0 
L 581 3500 
L 1159 3500 
L 1159 2956 
Q 1366 3272 1645 3428 
Q 1925 3584 2291 3584 
Q 2894 3584 3203 3211 
Q 3513 2838 3513 2113 
z
" transform="scale(0.015625)"/>
       <path id="DejaVuSans-63" d="M 3122 3366 
L 3122 2828 
Q 2878 2963 2633 3030 
Q 2388 3097 2138 3097 
Q 1578 3097 1268 2742 
Q 959 2388 959 1747 
Q 959 1106 1268 751 
Q 1578 397 2138 397 
Q 2388 397 2633 464 
Q 2878 531 3122 666 
L 3122 134 
Q 2881 22 2623 -34 
Q 2366 -91 2075 -91 
Q 1284 -91 818 406 
Q 353 903 353 1747 
Q 353 2603 823 3093 
Q 1294 3584 2113 3584 
Q 2378 3584 2631 3529 
Q 2884 3475 3122 3366 
z
" transform="scale(0.015625)"/>
       <path id="DejaVuSans-79" d="M 2059 -325 
Q 1816 -950 1584 -1140 
Q 1353 -1331 966 -1331 
L 506 -1331 
L 506 -850 
L 844 -850 
Q 1081 -850 1212 -737 
Q 1344 -625 1503 -206 
L 1606 56 
L 191 3500 
L 800 3500 
L 1894 763 
L 2988 3500 
L 3597 3500 
L 2059 -325 
z
" transform="scale(0.015625)"/>
       <path id="DejaVuSans-20" transform="scale(0.015625)"/>
       <path id="DejaVuSans-28" d="M 1984 4856 
Q 1566 4138 1362 3434 
Q 1159 2731 1159 2009 
Q 1159 1288 1364 580 
Q 1569 -128 1984 -844 
L 1484 -844 
Q 1016 -109 783 600 
Q 550 1309 550 2009 
Q 550 2706 781 3412 
Q 1013 4119 1484 4856 
L 1984 4856 
z
" transform="scale(0.015625)"/>
       <path id="DejaVuSans-4d" d="M 628 4666 
L 1569 4666 
L 2759 1491 
L 3956 4666 
L 4897 4666 
L 4897 0 
L 4281 0 
L 4281 4097 
L 3078 897 
L 2444 897 
L 1241 4097 
L 1241 0 
L 628 0 
L 628 4666 
z
" transform="scale(0.015625)"/>
       <path id="DejaVuSans-48" d="M 628 4666 
L 1259 4666 
L 1259 2753 
L 3553 2753 
L 3553 4666 
L 4184 4666 
L 4184 0 
L 3553 0 
L 3553 2222 
L 1259 2222 
L 1259 0 
L 628 0 
L 628 4666 
z
" transform="scale(0.015625)"/>
       <path id="DejaVuSans-7a" d="M 353 3500 
L 3084 3500 
L 3084 2975 
L 922 459 
L 3084 459 
L 3084 0 
L 275 0 
L 275 525 
L 2438 3041 
L 353 3041 
L 353 3500 
z
" transform="scale(0.015625)"/>
       <path id="DejaVuSans-29" d="M 513 4856 
L 1013 4856 
Q 1481 4119 1714 3412 
Q 1947 2706 1947 2009 
Q 1947 1309 1714 600 
Q 1481 -109 1013 -844 
L 513 -844 
Q 928 -128 1133 580 
Q 1338 1288 1338 2009 
Q 1338 2731 1133 3434 
Q 928 4138 513 4856 
z
" transform="scale(0.015625)"/>
      </defs>
      <use xlink:href="#DejaVuSans-46"/>
      <use xlink:href="#DejaVuSans-72" x="50.269531"/>
      <use xlink:href="#DejaVuSans-65" x="89.132812"/>
      <use xlink:href="#DejaVuSans-71" x="150.65625"/>
      <use xlink:href="#DejaVuSans-75" x="214.132812"/>
      <use xlink:href="#DejaVuSans-65" x="277.511719"/>
      <use xlink:href="#DejaVuSans-6e" x="339.035156"/>
      <use xlink:href="#DejaVuSans-63" x="402.414062"/>
      <use xlink:href="#DejaVuSans-79" x="457.394531"/>
      <use xlink:href="#DejaVuSans-20" x="516.574219"/>
      <use xlink:href="#DejaVuSans-28" x="548.361328"/>
      <use xlink:href="#DejaVuSans-4d" x="587.375"/>
      <use xlink:href="#DejaVuSans-48" x="673.654297"/>
      <use xlink:href="#DejaVuSans-7a" x="748.849609"/>
      <use xlink:href="#DejaVuSans-29" x="801.339844"/>
     </g>
    </g>
   </g>
   <g id="matplotlib.axis_2">
    <g id="ytick_1">
     <g id="line2d_7">
      <defs>
       <path id="m959c6773a5" d="M 0 0 
L -3.5 0 
" style="stroke: #000000; stroke-width: 0.8"/>
      </defs>
      <g>
       <use xlink:href="#m959c6773a5" x="69.12" y="453.6" style="stroke: #000000; stroke-width: 0.8"/>
      </g>
     </g>
     <g id="text_8">
      <!-- -60 -->
      <g transform="translate(37.620781 459.298828)scale(0.15 -0.15)">
       <defs>
        <path id="DejaVuSans-2d" d="M 313 2009 
L 1997 2009 
L 1997 1497 
L 313 1497 
L 313 2009 
z
" transform="scale(0.015625)"/>
       </defs>
       <use xlink:href="#DejaVuSans-2d"/>
       <use xlink:href="#DejaVuSans-36" x="36.083984"/>
       <use xlink:href="#DejaVuSans-30" x="99.707031"/>
      </g>
     </g>
    </g>
    <g id="ytick_2">
     <g id="line2d_8">
      <g>
       <use xlink:href="#m959c6773a5" x="69.12" y="400.68" style="stroke: #000000; stroke-width: 0.8"/>
      </g>
     </g>
     <g id="text_9">
      <!-- -40 -->
      <g transform="translate(37.620781 406.378828)scale(0.15 -0.15)">
       <use xlink:href="#DejaVuSans-2d"/>
       <use xlink:href="#DejaVuSans-34" x="36.083984"/>
       <use xlink:href="#DejaVuSans-30" x="99.707031"/>
      </g>
     </g>
    </g>
    <g id="ytick_3">
     <g id="line2d_9">
      <g>
       <use xlink:href="#m959c6773a5" x="69.12" y="347.76" style="stroke: #000000; stroke-width: 0.8"/>
      </g>
     </g>
     <g id="text_10">
      <!-- -20 -->
      <g transform="translate(37.620781 353.458828)scale(0.15 -0.15)">
       <defs>
        <path id="DejaVuSans-32" d="M 1228 531 
L 3431 531 
L 3431 0 
L 469 0 
L 469 531 
Q 828 903 1448 1529 
Q 2069 2156 2228 2338 
Q 2531 2678 2651 2914 
Q 2772 3150 2772 3378 
Q 2772 3750 2511 3984 
Q 2250 4219 1831 4219 
Q 1534 4219 1204 4116 
Q 875 4013 500 3803 
L 500 4441 
Q 881 4594 1212 4672 
Q 1544 4750 1819 4750 
Q 2544 4750 2975 4387 
Q 3406 4025 3406 3419 
Q 3406 3131 3298 2873 
Q 3191 2616 2906 2266 
Q 2828 2175 2409 1742 
Q 1991 1309 1228 531 
z
" transform="scale(0.015625)"/>
       </defs>
       <use xlink:href="#DejaVuSans-2d"/>
       <use xlink:href="#DejaVuSans-32" x="36.083984"/>
       <use xlink:href="#DejaVuSans-30" x="99.707031"/>
      </g>
     </g>
    </g>
    <g id="ytick_4">
     <g id="line2d_10">
      <g>
       <use xlink:href="#m959c6773a5" x="69.12" y="294.84" style="stroke: #000000; stroke-width: 0.8"/>
      </g>
     </g>
     <g id="text_11">
      <!-- 0 -->
      <g transform="translate(52.57625 300.538828)scale(0.15 -0.15)">
       <use xlink:href="#DejaVuSans-30"/>
      </g>
     </g>
    </g>
    <g id="ytick_5">
     <g id="line2d_11">
      <g>
       <use xlink:href="#m959c6773a5" x="69.12" y="241.92" style="stroke: #000000; stroke-width: 0.8"/>
      </g>
     </g>
     <g id="text_12">
      <!-- 20 -->
      <g transform="translate(43.0325 247.618828)scale(0.15 -0.15)">
       <use xlink:href="#DejaVuSans-32"/>
       <use xlink:href="#DejaVuSans-30" x="63.623047"/>
      </g>
     </g>
    </g>
    <g id="ytick_6">
     <g id="line2d_12">
      <g>
       <use xlink:href="#m959c6773a5" x="69.12" y="189" style="stroke: #000000; stroke-width: 0.8"/>
      </g>
     </g>
     <g id="text_13">
      <!-- 40 -->
      <g transform="translate(43.0325 194.698828)scale(0.15 -0.15)">
       <use xlink:href="#DejaVuSans-34"/>
       <use xlink:href="#DejaVuSans-30" x="63.623047"/>
      </g>
     </g>
    </g>
    <g id="ytick_7">
     <g id="line2d_13">
      <g>
       <use xlink:href="#m959c6773a5" x="69.12" y="136.08" style="stroke: #000000; stroke-width: 0.8"/>
      </g>
     </g>
     <g id="text_14">
      <!-- 60 -->
      <g transform="translate(43.0325 141.778828)scale(0.15 -0.15)">
       <use xlink:href="#DejaVuSans-36"/>
       <use xlink:href="#DejaVuSans-30" x="63.623047"/>
      </g>
     </g>
    </g>
    <g id="ytick_8">
     <g id="line2d_14">
      <g>
       <use xlink:href="#m959c6773a5" x="69.12" y="83.16" style="stroke: #000000; stroke-width: 0.8"/>
      </g>
     </g>
     <g id="text_15">
      <!-- 80 -->
      <g transform="translate(43.0325 88.858828)scale(0.15 -0.15)">
       <use xlink:href="#DejaVuSans-38"/>
       <use xlink:href="#DejaVuSans-30" x="63.623047"/>
      </g>
     </g>
    </g>
    <g id="ytick_9">
     <g id="line2d_15">
      <g>
       <use xlink:href="#m959c6773a5" x="69.12" y="30.24" style="stroke: #000000; stroke-width: 0.8"/>
      </g>
     </g>
     <g id="text_16">
      <!-- 100 -->
      <g transform="translate(33.48875 35.938828)scale(0.15 -0.15)">
       <defs>
        <path id="DejaVuSans-31" d="M 794 531 
L 1825 531 
L 1825 4091 
L 703 3866 
L 703 4441 
L 1819 4666 
L 2450 4666 
L 2450 531 
L 3481 531 
L 3481 0 
L 794 0 
L 794 531 
z
" transform="scale(0.015625)"/>
       </defs>
       <use xlink:href="#DejaVuSans-31"/>
       <use xlink:href="#DejaVuSans-30" x="63.623047"/>
       <use xlink:href="#DejaVuSans-30" x="127.246094"/>
      </g>
     </g>
    </g>
    <g id="text_17">
     <!-- Impedance (k$\Omega$) -->
     <g transform="translate(26.33875 301.77)rotate(-90)scale(0.15 -0.15)">
      <defs>
       <path id="DejaVuSans-49" d="M 628 4666 
L 1259 4666 
L 1259 0 
L 628 0 
L 628 4666 
z
" transform="scale(0.015625)"/>
       <path id="DejaVuSans-6d" d="M 3328 2828 
Q 3544 3216 3844 3400 
Q 4144 3584 4550 3584 
Q 5097 3584 5394 3201 
Q 5691 2819 5691 2113 
L 5691 0 
L 5113 0 
L 5113 2094 
Q 5113 2597 4934 2840 
Q 4756 3084 4391 3084 
Q 3944 3084 3684 2787 
Q 3425 2491 3425 1978 
L 3425 0 
L 2847 0 
L 2847 2094 
Q 2847 2600 2669 2842 
Q 2491 3084 2119 3084 
Q 1678 3084 1418 2786 
Q 1159 2488 1159 1978 
L 1159 0 
L 581 0 
L 581 3500 
L 1159 3500 
L 1159 2956 
Q 1356 3278 1631 3431 
Q 1906 3584 2284 3584 
Q 2666 3584 2933 3390 
Q 3200 3197 3328 2828 
z
" transform="scale(0.015625)"/>
       <path id="DejaVuSans-70" d="M 1159 525 
L 1159 -1331 
L 581 -1331 
L 581 3500 
L 1159 3500 
L 1159 2969 
Q 1341 3281 1617 3432 
Q 1894 3584 2278 3584 
Q 2916 3584 3314 3078 
Q 3713 2572 3713 1747 
Q 3713 922 3314 415 
Q 2916 -91 2278 -91 
Q 1894 -91 1617 61 
Q 1341 213 1159 525 
z
M 3116 1747 
Q 3116 2381 2855 2742 
Q 2594 3103 2138 3103 
Q 1681 3103 1420 2742 
Q 1159 2381 1159 1747 
Q 1159 1113 1420 752 
Q 1681 391 2138 391 
Q 2594 391 2855 752 
Q 3116 1113 3116 1747 
z
" transform="scale(0.015625)"/>
       <path id="DejaVuSans-64" d="M 2906 2969 
L 2906 4863 
L 3481 4863 
L 3481 0 
L 2906 0 
L 2906 525 
Q 2725 213 2448 61 
Q 2172 -91 1784 -91 
Q 1150 -91 751 415 
Q 353 922 353 1747 
Q 353 2572 751 3078 
Q 1150 3584 1784 3584 
Q 2172 3584 2448 3432 
Q 2725 3281 2906 2969 
z
M 947 1747 
Q 947 1113 1208 752 
Q 1469 391 1925 391 
Q 2381 391 2643 752 
Q 2906 1113 2906 1747 
Q 2906 2381 2643 2742 
Q 2381 3103 1925 3103 
Q 1469 3103 1208 2742 
Q 947 2381 947 1747 
z
" transform="scale(0.015625)"/>
       <path id="DejaVuSans-61" d="M 2194 1759 
Q 1497 1759 1228 1600 
Q 959 1441 959 1056 
Q 959 750 1161 570 
Q 1363 391 1709 391 
Q 2188 391 2477 730 
Q 2766 1069 2766 1631 
L 2766 1759 
L 2194 1759 
z
M 3341 1997 
L 3341 0 
L 2766 0 
L 2766 531 
Q 2569 213 2275 61 
Q 1981 -91 1556 -91 
Q 1019 -91 701 211 
Q 384 513 384 1019 
Q 384 1609 779 1909 
Q 1175 2209 1959 2209 
L 2766 2209 
L 2766 2266 
Q 2766 2663 2505 2880 
Q 2244 3097 1772 3097 
Q 1472 3097 1187 3025 
Q 903 2953 641 2809 
L 641 3341 
Q 956 3463 1253 3523 
Q 1550 3584 1831 3584 
Q 2591 3584 2966 3190 
Q 3341 2797 3341 1997 
z
" transform="scale(0.015625)"/>
       <path id="DejaVuSans-6b" d="M 581 4863 
L 1159 4863 
L 1159 1991 
L 2875 3500 
L 3609 3500 
L 1753 1863 
L 3688 0 
L 2938 0 
L 1159 1709 
L 1159 0 
L 581 0 
L 581 4863 
z
" transform="scale(0.015625)"/>
       <path id="DejaVuSans-3a9" d="M 4647 556 
L 4647 0 
L 2772 0 
L 2772 556 
Q 3325 859 3634 1378 
Q 3944 1897 3944 2528 
Q 3944 3278 3531 3731 
Q 3119 4184 2444 4184 
Q 1769 4184 1355 3729 
Q 941 3275 941 2528 
Q 941 1897 1250 1378 
Q 1563 859 2119 556 
L 2119 0 
L 244 0 
L 244 556 
L 1241 556 
Q 747 991 519 1456 
Q 294 1922 294 2497 
Q 294 3491 894 4106 
Q 1491 4722 2444 4722 
Q 3391 4722 3994 4106 
Q 4594 3494 4594 2528 
Q 4594 1922 4372 1459 
Q 4150 997 3647 556 
L 4647 556 
z
" transform="scale(0.015625)"/>
      </defs>
      <use xlink:href="#DejaVuSans-49" transform="translate(0 0.015625)"/>
      <use xlink:href="#DejaVuSans-6d" transform="translate(25.867188 0.015625)"/>
      <use xlink:href="#DejaVuSans-70" transform="translate(123.279297 0.015625)"/>
      <use xlink:href="#DejaVuSans-65" transform="translate(186.755859 0.015625)"/>
      <use xlink:href="#DejaVuSans-64" transform="translate(248.279297 0.015625)"/>
      <use xlink:href="#DejaVuSans-61" transform="translate(311.755859 0.015625)"/>
      <use xlink:href="#DejaVuSans-6e" transform="translate(373.035156 0.015625)"/>
      <use xlink:href="#DejaVuSans-63" transform="translate(436.414062 0.015625)"/>
      <use xlink:href="#DejaVuSans-65" transform="translate(491.394531 0.015625)"/>
      <use xlink:href="#DejaVuSans-20" transform="translate(552.917969 0.015625)"/>
      <use xlink:href="#DejaVuSans-28" transform="translate(584.705078 0.015625)"/>
      <use xlink:href="#DejaVuSans-6b" transform="translate(623.71875 0.015625)"/>
      <use xlink:href="#DejaVuSans-3a9" transform="translate(681.628906 0.015625)"/>
      <use xlink:href="#DejaVuSans-29" transform="translate(758.044922 0.015625)"/>
     </g>
    </g>
   </g>
   <g id="line2d_16">
    <path d="M -1 294.833341 
L 178.69824 294.827939 
L 202.31424 294.824741 
L 395.96544 294.580173 
L 403.52256 294.415521 
L 405.41184 294.419248 
L 406.35648 294.423248 
L 409.1904 294.314421 
L 411.07968 294.310164 
L 414.85824 294.17096 
L 423.36 293.922822 
L 427.13856 293.716005 
L 429.02784 293.688425 
L 429.97248 293.619561 
L 433.75104 293.539613 
L 434.69568 293.387172 
L 436.58496 293.413871 
L 439.41888 293.192573 
L 441.30816 293.048088 
L 442.2528 293.195134 
L 443.19744 292.966921 
L 444.14208 292.948759 
L 448.86528 292.586201 
L 452.64384 292.37235 
L 455.47776 292.06089 
L 456.4224 292.377916 
L 457.36704 292.143335 
L 458.31168 292.082651 
L 464.92416 291.090086 
L 465.8688 291.077434 
L 466.81344 290.75513 
L 467.75808 290.137976 
L 469.64736 290.294774 
L 470.592 290.085902 
L 471.53664 289.526292 
L 474.37056 288.720224 
L 475.3152 288.864834 
L 476.25984 287.787231 
L 477.20448 287.496672 
L 479.09376 286.50752 
L 480.0384 286.647812 
L 480.98304 285.976678 
L 481.92768 284.990147 
L 483.81696 284.632949 
L 484.7616 282.570723 
L 485.70624 282.023945 
L 486.65088 280.678285 
L 488.54016 279.809351 
L 489.4848 278.828282 
L 490.42944 276.67272 
L 491.37408 274.880816 
L 493.26336 272.206784 
L 494.208 269.822237 
L 495.15264 266.904498 
L 496.09728 265.796445 
L 497.98656 264.072417 
L 498.9312 261.563431 
L 499.87584 260.9759 
L 500.82048 258.196142 
L 502.70976 255.801065 
L 503.6544 256.858707 
L 505.54368 255.941577 
L 507.43296 256.610193 
L 508.3776 257.689303 
L 513.1008 264.956771 
L 514.04544 267.363923 
L 514.99008 270.436888 
L 516.87936 270.419576 
L 517.824 272.822716 
L 518.76864 274.516547 
L 519.71328 275.400147 
L 521.60256 276.566836 
L 523.49184 279.007671 
L 524.43648 280.098069 
L 527.2704 281.402032 
L 528.21504 282.293545 
L 529.15968 283.455088 
L 531.04896 283.585271 
L 532.93824 285.225741 
L 535.77216 285.767788 
L 537.66144 286.936627 
L 538.60608 287.410689 
L 540.49536 287.388094 
L 541.44 287.687701 
L 542.38464 288.233532 
L 543.32928 288.428155 
L 545.21856 288.588689 
L 548.05248 289.157335 
L 552.77568 289.89766 
L 556.55424 290.171048 
L 557.49888 290.336281 
L 562.22208 290.69008 
L 565.056 290.966801 
L 566.00064 290.94671 
L 566.94528 291.077063 
L 577 291.575068 
L 577 291.575068 
" clip-path="url(#pcaaf7b9078)" style="fill: none; stroke: #000000; stroke-width: 2; stroke-linecap: square"/>
   </g>
   <g id="line2d_17">
    <path d="M -1 294.833341 
L 178.69824 294.827939 
L 202.31424 294.824741 
L 395.96544 294.580173 
L 403.52256 294.415521 
L 405.41184 294.419248 
L 406.35648 294.423248 
L 409.1904 294.314421 
L 411.07968 294.310164 
L 414.85824 294.17096 
L 423.36 293.922822 
L 427.13856 293.716005 
L 429.02784 293.688425 
L 429.97248 293.619561 
L 433.75104 293.539613 
L 434.69568 293.387172 
L 436.58496 293.413871 
L 439.41888 293.192573 
L 441.30816 293.048088 
L 442.2528 293.195134 
L 443.19744 292.966921 
L 444.14208 292.948759 
L 448.86528 292.586201 
L 452.64384 292.37235 
L 455.47776 292.06089 
L 456.4224 292.377916 
L 457.36704 292.143335 
L 458.31168 292.082651 
L 464.92416 291.090086 
L 465.8688 291.077434 
L 466.81344 290.75513 
L 467.75808 290.137976 
L 469.64736 290.294774 
L 470.592 290.085902 
L 471.53664 289.526292 
L 474.37056 288.720224 
L 475.3152 288.864834 
L 476.25984 287.787231 
L 477.20448 287.496672 
L 479.09376 286.50752 
L 480.0384 286.647812 
L 480.98304 285.976678 
L 481.92768 284.990147 
L 483.81696 284.632949 
L 484.7616 282.570723 
L 485.70624 282.023945 
L 486.65088 280.678285 
L 488.54016 279.809351 
L 489.4848 278.828282 
L 490.42944 276.67272 
L 491.37408 274.880816 
L 493.26336 272.206784 
L 494.208 269.822237 
L 495.15264 266.904498 
L 496.09728 265.796445 
L 497.98656 264.072417 
L 498.9312 261.563431 
L 499.87584 260.9759 
L 500.82048 258.196142 
L 502.70976 255.801065 
L 503.6544 256.858707 
L 505.54368 255.941577 
L 507.43296 256.610193 
L 508.3776 257.689303 
L 513.1008 264.956771 
L 514.04544 267.363923 
L 514.99008 270.436888 
L 516.87936 270.419576 
L 517.824 272.822716 
L 518.76864 274.516547 
L 519.71328 275.400147 
L 521.60256 276.566836 
L 523.49184 279.007671 
L 524.43648 280.098069 
L 527.2704 281.402032 
L 528.21504 282.293545 
L 529.15968 283.455088 
L 531.04896 283.585271 
L 532.93824 285.225741 
L 535.77216 285.767788 
L 537.66144 286.936627 
L 538.60608 287.410689 
L 540.49536 287.388094 
L 541.44 287.687701 
L 542.38464 288.233532 
L 543.32928 288.428155 
L 545.21856 288.588689 
L 548.05248 289.157335 
L 552.77568 289.89766 
L 556.55424 290.171048 
L 557.49888 290.336281 
L 562.22208 290.69008 
L 565.056 290.966801 
L 566.00064 290.94671 
L 566.94528 291.077063 
L 577 291.575068 
L 577 291.575068 
" clip-path="url(#pcaaf7b9078)" style="fill: none; stroke: #000000; stroke-width: 2; stroke-linecap: square"/>
   </g>
   <g id="line2d_18">
    <path d="M -1 294.042812 
L 141.001311 293.314972 
L 161.079936 293.176188 
L 247.299912 292.440096 
L 260.291963 292.29095 
L 327.614411 291.254199 
L 373.677138 289.956515 
L 377.220425 289.801562 
L 380.763711 289.638431 
L 387.850285 289.25778 
L 389.03138 289.273195 
L 392.574667 289.020391 
L 399.661241 288.667957 
L 403.204527 288.420461 
L 406.747814 288.204171 
L 409.110005 288.024881 
L 410.291101 288.003054 
L 411.472196 287.798127 
L 415.015483 287.598322 
L 422.102056 287.041928 
L 424.464248 286.858635 
L 425.645343 286.696229 
L 428.007534 286.556439 
L 430.369725 286.286107 
L 431.550821 286.272623 
L 432.731916 286.140524 
L 433.913012 285.893515 
L 435.094108 285.981267 
L 436.275203 285.721402 
L 438.637394 285.670728 
L 448.086159 284.381873 
L 449.267254 284.458815 
L 451.629446 283.981545 
L 453.991637 283.745672 
L 455.172732 283.317906 
L 456.353828 283.026853 
L 458.716019 282.819208 
L 459.897115 282.265431 
L 461.07821 282.338394 
L 462.259306 282.133827 
L 463.440401 281.57441 
L 464.621497 281.495293 
L 466.983688 280.456694 
L 468.164784 280.275363 
L 469.345879 280.301215 
L 470.526975 279.565642 
L 471.70807 279.34941 
L 472.889166 278.746321 
L 474.070261 278.350293 
L 475.251357 278.278069 
L 476.432453 277.116768 
L 477.613548 276.908983 
L 478.794644 277.185753 
L 479.975739 275.579785 
L 481.156835 275.24352 
L 482.33793 275.070298 
L 483.519026 274.16938 
L 484.700122 274.15985 
L 485.881217 273.138427 
L 487.062313 273.048807 
L 488.243408 273.358694 
L 489.424504 271.458707 
L 490.605599 271.846381 
L 491.786695 272.596624 
L 492.967791 271.463595 
L 494.148886 271.445695 
L 496.511077 273.903308 
L 497.692173 275.749663 
L 498.873268 279.45742 
L 500.054364 281.233425 
L 501.23546 284.400617 
L 502.416555 286.769966 
L 503.597651 287.518655 
L 504.778746 292.764245 
L 505.959842 295.145247 
L 507.140937 298.159303 
L 508.322033 300.296695 
L 510.684224 305.745569 
L 511.86532 307.620674 
L 513.046415 308.109473 
L 514.227511 308.367377 
L 515.408606 309.560942 
L 516.589702 309.921751 
L 517.770797 310.075202 
L 518.951893 311.580732 
L 520.132989 310.09497 
L 521.314084 310.268733 
L 522.49518 310.071113 
L 523.676275 310.269307 
L 524.857371 309.889761 
L 526.038466 308.947264 
L 527.219562 309.268639 
L 528.400658 309.011027 
L 529.581753 308.630946 
L 530.762849 308.048636 
L 533.12504 308.063405 
L 534.306135 307.554352 
L 539.030518 306.368856 
L 540.211613 306.251689 
L 541.392709 305.72175 
L 542.573804 305.534593 
L 543.7549 305.202688 
L 546.117091 304.740935 
L 547.298187 304.500902 
L 548.479282 304.405797 
L 549.660378 304.07112 
L 550.841473 303.890877 
L 552.022569 303.51857 
L 553.203665 303.487211 
L 566.195716 301.677668 
L 568.557907 301.513549 
L 574.463385 300.93894 
L 576.825576 300.812966 
L 577 300.800019 
L 577 300.800019 
" clip-path="url(#pcaaf7b9078)" style="fill: none; stroke-dasharray: 7.4,3.2; stroke-dashoffset: 0; stroke: #000000; stroke-width: 2"/>
   </g>
   <g id="line2d_19">
    <path d="M -1 294.832134 
L 300.5568 294.64074 
L 302.44608 294.634383 
L 310.94784 294.608714 
L 311.89248 294.669178 
L 316.61568 294.533923 
L 321.33888 294.60731 
L 326.06208 294.499786 
L 327.95136 294.547133 
L 328.896 294.439601 
L 329.84064 294.522485 
L 332.67456 294.526178 
L 349.67808 294.340037 
L 352.512 294.175845 
L 353.45664 294.380544 
L 354.40128 294.382053 
L 359.12448 293.923801 
L 361.9584 294.090261 
L 362.90304 293.726297 
L 363.84768 293.742277 
L 366.6816 293.55556 
L 367.62624 293.706367 
L 368.57088 293.524799 
L 370.46016 293.711431 
L 371.4048 292.813757 
L 373.29408 293.100822 
L 375.18336 292.989191 
L 376.128 292.644745 
L 377.07264 292.453626 
L 378.01728 292.119204 
L 379.90656 291.838735 
L 380.8512 291.561861 
L 381.79584 290.181102 
L 382.74048 290.438634 
L 384.62976 290.184136 
L 385.5744 289.659021 
L 386.51904 287.916519 
L 387.46368 287.632297 
L 389.35296 287.280502 
L 390.2976 284.857472 
L 392.18688 280.763654 
L 394.07616 278.972923 
L 395.0208 275.449317 
L 395.96544 273.081941 
L 396.91008 267.603853 
L 398.79936 264.490574 
L 399.744 262.1092 
L 400.68864 249.873244 
L 401.63328 247.826269 
L 403.52256 241.434355 
L 404.4672 236.095159 
L 405.41184 233.340016 
L 406.35648 231.285955 
L 408.24576 239.979598 
L 409.1904 238.130854 
L 410.13504 237.778109 
L 411.07968 247.270221 
L 412.96896 250.546508 
L 413.9136 253.32605 
L 414.85824 257.900999 
L 415.80288 260.708995 
L 417.69216 263.451603 
L 419.58144 270.071723 
L 420.52608 271.145557 
L 422.41536 273.618994 
L 423.36 274.235931 
L 424.30464 276.736823 
L 425.24928 277.644465 
L 427.13856 277.975557 
L 428.0832 278.629075 
L 429.02784 280.267599 
L 429.97248 281.32213 
L 432.8064 282.322801 
L 433.75104 283.390981 
L 434.69568 283.116594 
L 436.58496 284.364842 
L 437.5296 284.70017 
L 439.41888 285.15666 
L 441.30816 286.016146 
L 442.2528 286.213306 
L 443.19744 286.789458 
L 444.14208 286.775107 
L 446.03136 287.130609 
L 446.976 287.447852 
L 447.92064 287.977584 
L 448.86528 287.980999 
L 450.75456 288.338911 
L 451.6992 288.761858 
L 452.64384 288.986831 
L 453.58848 289.061787 
L 455.47776 289.498593 
L 456.4224 290.088498 
L 457.36704 289.923795 
L 458.31168 290.077383 
L 460.20096 290.504828 
L 461.1456 290.350684 
L 462.09024 290.516282 
L 463.03488 290.979075 
L 464.92416 290.967849 
L 467.75808 291.407942 
L 469.64736 291.426531 
L 471.53664 291.828237 
L 472.48128 291.930226 
L 475.3152 292.07453 
L 477.20448 292.339271 
L 479.09376 292.213944 
L 480.0384 292.502061 
L 481.92768 292.549871 
L 496.09728 293.109087 
L 499.87584 293.160968 
L 502.70976 293.264179 
L 519.71328 293.501517 
L 550.8864 293.710932 
L 557.49888 293.713187 
L 577 293.724713 
L 577 293.724713 
" clip-path="url(#pcaaf7b9078)" style="fill: none; stroke: #000000; stroke-width: 2; stroke-linecap: square"/>
   </g>
   <g id="line2d_20">
    <path d="M -1 293.806174 
L 113.836113 292.982875 
L 172.890891 292.335953 
L 183.520751 292.1795 
L 207.142663 291.841114 
L 211.867045 291.739886 
L 218.953618 291.620022 
L 250.843199 290.937763 
L 259.110868 290.71592 
L 269.740728 290.398601 
L 287.457161 289.794038 
L 291.000448 289.56572 
L 295.72483 289.427086 
L 320.527837 288.054705 
L 338.244271 286.392567 
L 339.425366 286.177983 
L 341.787558 286.008375 
L 347.693036 284.982894 
L 348.874131 284.976577 
L 350.055227 284.661473 
L 351.236322 284.604032 
L 353.598513 284.025565 
L 354.779609 283.972081 
L 358.322896 283.086924 
L 359.503991 283.041452 
L 360.685087 282.476691 
L 364.228374 281.65296 
L 368.952756 280.12731 
L 370.133851 279.48863 
L 371.314947 279.202656 
L 372.496042 278.627571 
L 373.677138 278.467171 
L 374.858234 277.052001 
L 376.039329 276.929878 
L 377.220425 276.364598 
L 378.40152 276.115065 
L 379.582616 274.574276 
L 380.763711 274.244359 
L 381.944807 272.611022 
L 383.125903 271.855681 
L 384.306998 270.343031 
L 385.488094 270.085851 
L 386.669189 269.539398 
L 387.850285 267.111732 
L 389.03138 266.475094 
L 390.212476 264.599097 
L 391.393572 263.762855 
L 392.574667 260.131375 
L 393.755763 259.412906 
L 394.936858 258.53329 
L 396.117954 257.859776 
L 398.480145 255.316296 
L 399.661241 256.60894 
L 400.842336 253.857972 
L 402.023432 262.118834 
L 403.204527 267.571781 
L 404.385623 271.087644 
L 406.747814 287.415501 
L 407.92891 298.212233 
L 409.110005 303.91329 
L 410.291101 303.312128 
L 411.472196 314.809633 
L 415.015483 316.6449 
L 416.196579 318.086756 
L 417.377674 317.560522 
L 418.55877 317.884625 
L 419.739865 318.937225 
L 420.920961 317.352644 
L 422.102056 317.42445 
L 423.283152 316.227433 
L 424.464248 315.250396 
L 425.645343 314.924742 
L 426.826439 314.069328 
L 428.007534 314.293054 
L 429.18863 313.888552 
L 430.369725 313.853285 
L 431.550821 313.55005 
L 432.731916 313.107269 
L 433.913012 312.223529 
L 435.094108 311.756658 
L 436.275203 311.493031 
L 438.637394 310.463824 
L 439.81849 310.433647 
L 440.999586 309.788996 
L 442.180681 310.011974 
L 443.361777 309.040037 
L 445.723968 308.649916 
L 446.905063 308.229255 
L 448.086159 307.960587 
L 449.267254 308.020316 
L 450.44835 307.661678 
L 451.629446 307.585148 
L 452.810541 307.1019 
L 453.991637 307.067032 
L 455.172732 306.657182 
L 456.353828 306.795824 
L 457.534923 306.497974 
L 458.716019 306.367872 
L 459.897115 305.820086 
L 461.07821 305.752629 
L 466.983688 304.740615 
L 468.164784 304.290525 
L 469.345879 304.336404 
L 472.889166 303.763802 
L 474.070261 303.527953 
L 475.251357 303.490879 
L 476.432453 303.196388 
L 477.613548 303.111128 
L 478.794644 302.906636 
L 479.975739 302.843426 
L 482.33793 302.493333 
L 483.519026 302.435237 
L 484.700122 302.174248 
L 488.243408 301.891761 
L 492.967791 301.396851 
L 495.329982 301.149938 
L 503.597651 300.443589 
L 510.684224 299.957265 
L 527.219562 299.029707 
L 542.573804 298.3306 
L 553.203665 297.943284 
L 577 297.305918 
L 577 297.305918 
" clip-path="url(#pcaaf7b9078)" style="fill: none; stroke-dasharray: 7.4,3.2; stroke-dashoffset: 0; stroke: #000000; stroke-width: 2"/>
   </g>
   <g id="line2d_21">
    <path d="M -1 294.831242 
L 72.89856 294.831157 
L 96.51456 294.838275 
L 207.03744 294.75646 
L 209.87136 294.755951 
L 222.15168 294.714287 
L 230.65344 294.606592 
L 234.432 294.600603 
L 236.32128 294.579569 
L 273.16224 294.108426 
L 274.10688 294.028852 
L 281.664 293.862227 
L 283.55328 293.775642 
L 286.3872 293.777878 
L 288.27648 293.436624 
L 290.16576 293.434908 
L 291.1104 293.222892 
L 292.99968 293.438163 
L 294.88896 293.306672 
L 296.77824 292.794943 
L 297.72288 293.012059 
L 299.61216 292.848398 
L 301.50144 292.171622 
L 302.44608 292.494978 
L 304.33536 292.20278 
L 305.28 292.196722 
L 306.22464 291.927552 
L 307.16928 291.820409 
L 309.05856 291.264352 
L 310.94784 291.285614 
L 311.89248 291.327647 
L 314.7264 290.087845 
L 315.67104 289.491892 
L 316.61568 288.480999 
L 318.50496 288.957906 
L 319.4496 287.859186 
L 320.39424 288.535451 
L 321.33888 287.304136 
L 323.22816 285.949544 
L 324.1728 285.780597 
L 325.11744 282.170674 
L 326.06208 281.289128 
L 327.95136 277.569503 
L 328.896 274.323714 
L 329.84064 274.085506 
L 330.78528 272.614611 
L 332.67456 263.260583 
L 333.6192 260.764678 
L 334.56384 247.17765 
L 337.39776 200.049765 
L 338.3424 195.794564 
L 339.28704 150.429459 
L 340.23168 167.273457 
L 342.12096 172.486581 
L 344.01024 227.020999 
L 344.95488 240.232378 
L 346.84416 260.502579 
L 347.7888 266.017546 
L 348.73344 268.681001 
L 349.67808 274.870269 
L 351.56736 277.752599 
L 352.512 279.770934 
L 353.45664 283.319024 
L 354.40128 286.169243 
L 357.2352 286.826408 
L 358.17984 287.879505 
L 359.12448 287.419512 
L 361.01376 289.619317 
L 361.9584 289.365275 
L 362.90304 289.727062 
L 363.84768 290.283189 
L 365.73696 290.234413 
L 367.62624 291.587322 
L 368.57088 291.480978 
L 370.46016 292.170262 
L 371.4048 291.525086 
L 373.29408 292.191585 
L 375.18336 292.233342 
L 376.128 292.471572 
L 380.8512 292.955058 
L 381.79584 292.779355 
L 382.74048 293.005988 
L 384.62976 293.205151 
L 385.5744 292.999235 
L 386.51904 292.944208 
L 387.46368 293.260242 
L 391.24224 293.161091 
L 392.18688 293.390704 
L 395.0208 293.318849 
L 395.96544 293.424855 
L 396.91008 293.33913 
L 401.63328 293.378261 
L 403.52256 293.340033 
L 405.41184 293.447638 
L 434.69568 293.502616 
L 438.47424 293.547668 
L 450.75456 293.651675 
L 456.4224 293.801193 
L 461.1456 293.828797 
L 526.32576 294.169298 
L 561.27744 294.117795 
L 577 294.077217 
L 577 294.077217 
" clip-path="url(#pcaaf7b9078)" style="fill: none; stroke: #000000; stroke-width: 2; stroke-linecap: square"/>
   </g>
   <g id="line2d_22">
    <path d="M -1 293.549723 
L 98.48187 292.57441 
L 169.347604 291.298568 
L 188.245134 290.80089 
L 207.142663 290.19196 
L 209.504854 290.095232 
L 231.94567 289.027434 
L 242.57553 288.376098 
L 247.299912 288.092072 
L 249.662103 287.864244 
L 252.024294 287.692235 
L 255.567581 287.357599 
L 257.929772 287.223432 
L 259.110868 287.064696 
L 261.473059 286.890767 
L 263.83525 286.604645 
L 265.016346 286.539172 
L 266.197441 286.283065 
L 267.378537 286.251791 
L 269.740728 285.912047 
L 272.102919 285.70448 
L 275.646206 285.114473 
L 276.827301 285.102225 
L 279.189492 284.480961 
L 280.370588 284.495302 
L 281.551684 284.138867 
L 282.732779 284.192032 
L 285.09497 283.548186 
L 287.457161 283.271029 
L 288.638257 282.681518 
L 289.819353 282.720526 
L 291.000448 282.157808 
L 292.181544 281.889034 
L 293.362639 281.919903 
L 294.543735 281.67082 
L 295.72483 280.990902 
L 298.087022 280.436727 
L 300.449213 279.570659 
L 302.811404 279.011202 
L 303.992499 278.231706 
L 307.535786 277.001514 
L 309.897977 275.556269 
L 311.079073 275.03887 
L 312.260168 273.557547 
L 314.62236 272.75922 
L 316.984551 270.430036 
L 318.165646 269.749458 
L 319.346742 267.982057 
L 320.527837 267.614922 
L 321.708933 264.11519 
L 322.890029 264.032035 
L 324.071124 260.192573 
L 325.25222 258.340443 
L 326.433315 258.226371 
L 327.614411 255.021471 
L 328.795506 250.526808 
L 329.976602 245.159754 
L 331.157698 241.743842 
L 332.338793 240.576861 
L 333.519889 232.00089 
L 334.700984 231.221239 
L 335.88208 237.365869 
L 337.063175 236.084229 
L 338.244271 248.789163 
L 339.425366 303.136059 
L 340.606462 312.398895 
L 341.787558 333.597762 
L 342.968653 358.394823 
L 344.149749 365.295785 
L 345.330844 351.236468 
L 346.51194 351.963695 
L 347.693036 351.511599 
L 348.874131 345.026079 
L 351.236322 339.23903 
L 352.417418 335.011589 
L 353.598513 333.374121 
L 355.960704 328.027819 
L 357.1418 324.88993 
L 358.322896 323.074358 
L 360.685087 319.8688 
L 364.228374 316.841904 
L 365.409469 315.450529 
L 367.77166 313.723444 
L 370.133851 312.36606 
L 371.314947 311.453614 
L 373.677138 311.022968 
L 374.858234 309.902952 
L 378.40152 308.717215 
L 379.582616 308.015886 
L 380.763711 307.845358 
L 381.944807 306.98648 
L 383.125903 306.90554 
L 384.306998 306.340272 
L 385.488094 306.200699 
L 389.03138 305.501852 
L 390.212476 305.000186 
L 391.393572 304.829115 
L 392.574667 304.495668 
L 394.936858 304.112723 
L 403.204527 302.728052 
L 406.747814 302.338342 
L 407.92891 302.116093 
L 410.291101 301.989858 
L 412.653292 301.644549 
L 433.913012 300.115032 
L 437.456299 299.960413 
L 468.164784 298.757296 
L 472.889166 298.595265 
L 485.881217 298.145805 
L 507.140937 297.506083 
L 534.306135 296.861516 
L 562.652429 296.319499 
L 577 296.115794 
L 577 296.115794 
" clip-path="url(#pcaaf7b9078)" style="fill: none; stroke-dasharray: 7.4,3.2; stroke-dashoffset: 0; stroke: #000000; stroke-width: 2"/>
   </g>
   <g id="line2d_23">
    <path d="M -1 294.828601 
L 52.11648 294.829429 
L 170.19648 294.754864 
L 174.91968 294.755769 
L 181.53216 294.716006 
L 182.4768 294.626735 
L 184.36608 294.682552 
L 188.14464 294.640169 
L 189.08928 294.559574 
L 190.97856 294.646924 
L 191.9232 294.573982 
L 193.81248 294.639419 
L 195.70176 294.489573 
L 196.6464 294.668092 
L 200.42496 294.468973 
L 201.3696 294.591087 
L 202.31424 294.499979 
L 203.25888 294.578889 
L 206.0928 294.488883 
L 210.816 294.475136 
L 211.76064 294.331035 
L 212.70528 294.382075 
L 214.59456 294.286381 
L 215.5392 294.425176 
L 216.48384 294.308553 
L 217.42848 294.33145 
L 220.2624 294.20716 
L 221.20704 294.462041 
L 222.15168 294.210905 
L 224.9856 293.983617 
L 228.76416 293.941834 
L 229.7088 293.644043 
L 230.65344 293.483375 
L 231.59808 293.539518 
L 234.432 293.27422 
L 235.37664 293.351392 
L 236.32128 292.988234 
L 239.1552 292.974424 
L 240.09984 292.614716 
L 241.04448 292.761173 
L 242.93376 292.728956 
L 243.8784 292.388308 
L 245.76768 292.531103 
L 247.65696 291.976926 
L 248.6016 291.414341 
L 249.54624 291.282882 
L 250.49088 290.564181 
L 252.38016 290.032745 
L 253.3248 290.447227 
L 254.26944 289.427738 
L 255.21408 288.731128 
L 257.10336 288.812138 
L 258.048 288.579545 
L 258.99264 287.668307 
L 259.93728 286.268395 
L 261.82656 284.715313 
L 262.7712 282.991 
L 263.71584 282.456204 
L 264.66048 280.415365 
L 266.54976 278.055237 
L 267.4944 278.915939 
L 268.43904 273.990846 
L 269.38368 271.987544 
L 271.27296 267.231939 
L 272.2176 262.560509 
L 274.10688 246.928075 
L 275.99616 239.736333 
L 276.9408 233.863125 
L 277.88544 224.426472 
L 278.83008 208.271589 
L 280.71936 207.771502 
L 281.664 214.812256 
L 282.60864 217.960486 
L 283.55328 219.021919 
L 285.44256 227.537072 
L 286.3872 234.914859 
L 288.27648 256.200577 
L 290.16576 258.633172 
L 291.1104 267.752658 
L 292.05504 271.456934 
L 292.99968 270.968048 
L 294.88896 274.445715 
L 295.8336 278.005156 
L 296.77824 279.49253 
L 297.72288 281.427237 
L 299.61216 282.936854 
L 300.5568 283.360878 
L 301.50144 283.984495 
L 302.44608 285.543518 
L 305.28 287.227592 
L 306.22464 287.891025 
L 307.16928 288.056437 
L 310.0032 289.286787 
L 310.94784 289.936894 
L 311.89248 290.963023 
L 313.78176 290.796463 
L 314.7264 290.964162 
L 315.67104 291.315197 
L 316.61568 291.33334 
L 318.50496 291.649108 
L 319.4496 292.008871 
L 320.39424 291.997992 
L 321.33888 292.378578 
L 323.22816 292.511795 
L 324.1728 292.749504 
L 325.11744 292.668989 
L 326.06208 292.857274 
L 328.896 293.025795 
L 330.78528 293.358739 
L 332.67456 293.328123 
L 334.56384 293.574582 
L 335.50848 293.514762 
L 339.28704 293.856428 
L 342.12096 293.799946 
L 344.01024 293.99612 
L 344.95488 293.847732 
L 347.7888 294.074538 
L 348.73344 294.009957 
L 349.67808 294.085682 
L 353.45664 294.174536 
L 354.40128 294.276397 
L 359.12448 294.184665 
L 363.84768 294.245763 
L 366.6816 294.242688 
L 368.57088 294.283889 
L 370.46016 294.349132 
L 371.4048 294.2532 
L 373.29408 294.313301 
L 386.51904 294.315585 
L 389.35296 294.345598 
L 392.18688 294.326171 
L 415.80288 294.237157 
L 429.97248 294.203443 
L 450.75456 294.224789 
L 460.20096 294.287918 
L 577 294.214988 
L 577 294.214988 
" clip-path="url(#pcaaf7b9078)" style="fill: none; stroke: #000000; stroke-width: 2; stroke-linecap: square"/>
   </g>
   <g id="line2d_24">
    <path d="M -1 293.267256 
L 70.135577 292.379277 
L 109.11173 291.629161 
L 119.741591 291.348963 
L 131.552546 291.036688 
L 170.5287 289.437966 
L 171.709796 289.312134 
L 172.890891 289.314022 
L 174.071987 289.18884 
L 175.253082 289.203789 
L 177.615274 289.026339 
L 185.882942 288.499912 
L 188.245134 288.337267 
L 192.969516 287.963482 
L 196.512803 287.681927 
L 200.056089 287.446653 
L 201.237185 287.210683 
L 203.599376 287.041222 
L 207.142663 286.67616 
L 208.323758 286.341954 
L 209.504854 286.331073 
L 210.685949 286.181828 
L 211.867045 285.863448 
L 213.048141 285.866664 
L 214.229236 285.571821 
L 216.591427 285.262207 
L 217.772523 284.998269 
L 220.134714 284.694597 
L 221.31581 284.367168 
L 222.496905 284.204161 
L 223.678001 283.855947 
L 224.859096 283.736811 
L 227.221287 283.16073 
L 228.402383 283.089663 
L 231.94567 282.148111 
L 234.307861 281.721093 
L 235.488956 281.013158 
L 236.670052 280.98129 
L 237.851148 280.471181 
L 239.032243 280.247484 
L 240.213339 279.542859 
L 242.57553 279.126636 
L 243.756625 278.894215 
L 246.118816 277.677301 
L 247.299912 276.799939 
L 248.481008 276.37655 
L 249.662103 275.732021 
L 250.843199 275.385452 
L 252.024294 274.168848 
L 253.20539 273.258762 
L 254.386486 272.778538 
L 255.567581 271.441722 
L 256.748677 270.984093 
L 257.929772 270.351604 
L 260.291963 267.487844 
L 261.473059 266.964965 
L 262.654154 264.756048 
L 263.83525 263.491895 
L 265.016346 262.486968 
L 266.197441 258.611134 
L 267.378537 257.182731 
L 268.559632 256.198727 
L 269.740728 251.954941 
L 270.921824 251.311653 
L 272.102919 249.121495 
L 274.46511 250.62111 
L 275.646206 254.670923 
L 276.827301 253.240041 
L 278.008397 261.033586 
L 279.189492 278.00843 
L 280.370588 278.878588 
L 281.551684 305.653567 
L 282.732779 305.905842 
L 285.09497 335.610834 
L 286.276066 331.499755 
L 287.457161 335.650923 
L 288.638257 335.41761 
L 289.819353 335.054481 
L 291.000448 332.386314 
L 292.181544 335.217937 
L 293.362639 333.757238 
L 294.543735 330.04705 
L 295.72483 328.220991 
L 296.905926 325.21293 
L 298.087022 325.238358 
L 299.268117 323.273178 
L 300.449213 322.227851 
L 301.630308 320.550766 
L 302.811404 319.993665 
L 303.992499 318.820031 
L 305.173595 318.009569 
L 306.354691 317.002727 
L 307.535786 316.832462 
L 308.716882 315.254277 
L 309.897977 314.707457 
L 311.079073 314.44445 
L 312.260168 313.638938 
L 313.441264 312.65521 
L 315.803455 311.883649 
L 316.984551 311.183172 
L 318.165646 310.779244 
L 319.346742 310.161866 
L 320.527837 309.94873 
L 325.25222 307.901214 
L 326.433315 307.772081 
L 328.795506 306.945173 
L 329.976602 306.760014 
L 332.338793 306.134407 
L 333.519889 305.97319 
L 339.425366 304.53949 
L 341.787558 304.239386 
L 342.968653 303.949743 
L 345.330844 303.555346 
L 347.693036 303.198134 
L 348.874131 303.11518 
L 350.055227 302.860589 
L 352.417418 302.599789 
L 358.322896 301.881197 
L 364.228374 301.297793 
L 368.952756 300.85476 
L 373.677138 300.530786 
L 376.039329 300.310965 
L 380.763711 299.989931 
L 384.306998 299.725853 
L 389.03138 299.47379 
L 393.755763 299.20761 
L 416.196579 298.29502 
L 484.700122 296.816444 
L 563.833525 295.549512 
L 577 295.396391 
L 577 295.396391 
" clip-path="url(#pcaaf7b9078)" style="fill: none; stroke-dasharray: 7.4,3.2; stroke-dashoffset: 0; stroke: #000000; stroke-width: 2"/>
   </g>
   <g id="line2d_25">
    <path d="M -1 294.823244 
L 64.3968 294.817962 
L 70.06464 294.827774 
L 98.40384 294.847289 
L 101.23776 294.841267 
L 108.79488 294.821606 
L 146.58048 294.741575 
L 151.30368 294.655814 
L 153.19296 294.763425 
L 154.1376 294.659613 
L 156.02688 294.685231 
L 157.91616 294.615586 
L 158.8608 294.720461 
L 162.63936 294.575659 
L 165.47328 294.631513 
L 167.36256 294.524522 
L 168.3072 294.597624 
L 169.25184 294.431407 
L 177.7536 294.292311 
L 178.69824 294.138232 
L 179.64288 294.215781 
L 186.25536 294.001317 
L 187.2 294.009093 
L 189.08928 293.547329 
L 190.97856 293.539761 
L 191.9232 293.286173 
L 192.86784 293.449154 
L 193.81248 293.351448 
L 195.70176 292.765084 
L 196.6464 293.30741 
L 197.59104 292.933903 
L 198.53568 292.865745 
L 200.42496 292.427334 
L 201.3696 292.352474 
L 202.31424 292.069403 
L 203.25888 292.005635 
L 205.14816 291.483729 
L 206.0928 291.496631 
L 210.816 289.797003 
L 211.76064 288.491301 
L 212.70528 287.71972 
L 215.5392 285.207643 
L 217.42848 281.734468 
L 219.31776 278.282586 
L 220.2624 275.205639 
L 221.20704 273.992478 
L 222.15168 260.459319 
L 224.04096 247.193925 
L 224.9856 246.638515 
L 225.93024 231.300978 
L 226.87488 212.691931 
L 228.76416 212.200468 
L 230.65344 207.398762 
L 231.59808 202.766207 
L 234.432 220.369734 
L 235.37664 235.777348 
L 236.32128 240.540905 
L 238.21056 248.97385 
L 239.1552 257.982485 
L 241.04448 266.440282 
L 242.93376 269.6083 
L 243.8784 272.504518 
L 244.82304 276.096179 
L 245.76768 278.104056 
L 247.65696 279.60663 
L 248.6016 282.314612 
L 249.54624 283.081998 
L 250.49088 283.36008 
L 252.38016 285.311043 
L 253.3248 285.747996 
L 254.26944 286.495136 
L 255.21408 287.532157 
L 258.048 288.500903 
L 258.99264 289.236643 
L 259.93728 289.315885 
L 261.82656 289.708798 
L 262.7712 290.349981 
L 263.71584 290.274273 
L 264.66048 290.549878 
L 266.54976 291.326066 
L 267.4944 291.191861 
L 268.43904 291.426818 
L 269.38368 291.829371 
L 272.2176 291.897978 
L 274.10688 292.171686 
L 276.9408 292.287016 
L 278.83008 292.757189 
L 280.71936 292.639238 
L 281.664 292.872181 
L 282.60864 292.676266 
L 283.55328 292.859284 
L 286.3872 293.066979 
L 287.33184 293.019255 
L 288.27648 293.145591 
L 291.1104 293.269962 
L 292.05504 293.457481 
L 294.88896 293.420058 
L 295.8336 293.506718 
L 296.77824 293.419998 
L 299.61216 293.595073 
L 310.0032 293.867191 
L 315.67104 294.053421 
L 316.61568 294.026269 
L 327.95136 294.292806 
L 338.3424 294.421989 
L 340.23168 294.442448 
L 348.73344 294.467717 
L 357.2352 294.522975 
L 372.34944 294.521096 
L 377.07264 294.528314 
L 414.85824 294.411226 
L 485.70624 294.432303 
L 531.04896 294.395358 
L 577 294.238152 
L 577 294.238152 
" clip-path="url(#pcaaf7b9078)" style="fill: none; stroke: #000000; stroke-width: 2; stroke-linecap: square"/>
   </g>
   <g id="line2d_26">
    <path d="M -1 292.94557 
L 58.324621 291.977888 
L 78.403246 291.47641 
L 85.489819 291.284043 
L 91.395297 291.101518 
L 96.119679 290.927734 
L 122.103782 289.8592 
L 126.828164 289.597864 
L 129.190355 289.468507 
L 131.552546 289.364176 
L 133.914737 289.199913 
L 137.458024 288.996445 
L 138.63912 288.804205 
L 141.001311 288.768789 
L 143.363502 288.516587 
L 159.89884 286.983774 
L 161.079936 286.709622 
L 162.261031 286.650267 
L 163.442127 286.358242 
L 165.804318 286.172381 
L 170.5287 285.458116 
L 171.709796 285.077173 
L 172.890891 285.051114 
L 174.071987 284.64604 
L 175.253082 284.708775 
L 176.434178 284.382547 
L 178.796369 284.010478 
L 179.977465 283.50538 
L 181.15856 283.347375 
L 182.339656 283.07297 
L 183.520751 282.566733 
L 184.701847 282.635302 
L 185.882942 282.141939 
L 191.78842 280.423152 
L 192.969516 280.059212 
L 194.150611 279.536514 
L 195.331707 279.162769 
L 196.512803 278.282261 
L 197.693898 278.18626 
L 198.874994 277.277454 
L 200.056089 277.230941 
L 201.237185 275.898794 
L 202.41828 275.516804 
L 203.599376 274.874845 
L 204.780472 274.077654 
L 205.961567 272.88587 
L 207.142663 272.343969 
L 208.323758 269.585378 
L 209.504854 269.353514 
L 210.685949 267.88917 
L 211.867045 265.429445 
L 213.048141 265.496016 
L 215.410332 260.075485 
L 216.591427 259.041507 
L 217.772523 255.139142 
L 220.134714 248.826287 
L 221.31581 242.0017 
L 222.496905 241.222239 
L 223.678001 242.654534 
L 224.859096 242.466147 
L 226.040192 234.8288 
L 227.221287 245.587402 
L 228.402383 259.15022 
L 229.583479 276.741326 
L 230.764574 285.506114 
L 233.126765 317.132189 
L 234.307861 324.193567 
L 235.488956 340.012549 
L 236.670052 333.8956 
L 237.851148 337.832852 
L 239.032243 340.113529 
L 240.213339 335.062131 
L 241.394434 335.261497 
L 242.57553 333.262301 
L 243.756625 329.991991 
L 244.937721 331.137082 
L 246.118816 329.65582 
L 247.299912 327.311492 
L 248.481008 324.386267 
L 249.662103 323.071654 
L 250.843199 320.545569 
L 252.024294 320.349984 
L 254.386486 318.029283 
L 255.567581 317.054634 
L 256.748677 316.527 
L 257.929772 316.226447 
L 260.291963 314.126457 
L 261.473059 313.278641 
L 262.654154 312.845595 
L 263.83525 311.971566 
L 266.197441 310.818242 
L 267.378537 310.566515 
L 268.559632 310.031981 
L 273.284015 308.465388 
L 274.46511 307.897052 
L 275.646206 307.533846 
L 276.827301 307.411397 
L 278.008397 306.964425 
L 280.370588 306.524384 
L 281.551684 306.095673 
L 282.732779 306.0459 
L 287.457161 305.031464 
L 288.638257 304.63991 
L 289.819353 304.552918 
L 292.181544 304.096489 
L 293.362639 304.080094 
L 296.905926 303.425787 
L 298.087022 303.405183 
L 300.449213 302.9919 
L 319.346742 301.216663 
L 321.708933 301.073837 
L 325.25222 300.734822 
L 331.157698 300.33819 
L 346.51194 299.383478 
L 352.417418 299.104444 
L 370.133851 298.328694 
L 403.204527 297.30661 
L 457.534923 296.444059 
L 577 294.754108 
L 577 294.754108 
" clip-path="url(#pcaaf7b9078)" style="fill: none; stroke-dasharray: 7.4,3.2; stroke-dashoffset: 0; stroke: #000000; stroke-width: 2"/>
   </g>
   <g id="line2d_27">
    <path d="M -1 294.822533 
L 131.46624 294.724083 
L 132.41088 294.634713 
L 135.2448 294.654646 
L 136.18944 294.596782 
L 137.13408 294.735734 
L 139.02336 294.842191 
L 140.91264 294.636055 
L 141.85728 294.510992 
L 143.74656 294.677399 
L 144.6912 294.531915 
L 145.63584 294.629307 
L 146.58048 294.568314 
L 148.46976 294.270085 
L 149.4144 294.600529 
L 150.35904 294.57811 
L 151.30368 294.369065 
L 153.19296 294.532767 
L 154.1376 294.005006 
L 156.02688 294.159737 
L 157.91616 293.711935 
L 158.8608 294.066484 
L 159.80544 293.81078 
L 160.75008 292.932131 
L 162.63936 292.82101 
L 164.52864 293.107531 
L 165.47328 292.287354 
L 168.3072 292.033059 
L 169.25184 291.020418 
L 172.08576 286.321596 
L 173.0304 286.657404 
L 173.97504 284.662012 
L 174.91968 286.867566 
L 176.80896 280.276185 
L 177.7536 278.394232 
L 179.64288 260.625997 
L 181.53216 254.803448 
L 182.4768 230.415489 
L 183.42144 202.507339 
L 184.36608 192.119001 
L 186.25536 169.885602 
L 187.2 147.874258 
L 188.14464 172.138923 
L 189.08928 208.227755 
L 190.97856 215.172568 
L 193.81248 257.609279 
L 195.70176 262.767292 
L 196.6464 274.366063 
L 197.59104 272.182381 
L 198.53568 278.419309 
L 200.42496 277.001928 
L 201.3696 282.285739 
L 202.31424 283.00196 
L 203.25888 284.358152 
L 205.14816 285.823113 
L 206.0928 288.064722 
L 207.03744 287.785391 
L 207.98208 290.322733 
L 209.87136 289.490993 
L 210.816 289.68291 
L 211.76064 290.576751 
L 212.70528 290.379867 
L 214.59456 290.870553 
L 215.5392 291.501523 
L 216.48384 291.262098 
L 217.42848 291.951438 
L 219.31776 291.99341 
L 220.2624 292.183869 
L 221.20704 292.669198 
L 224.04096 292.041477 
L 225.93024 292.584934 
L 226.87488 292.671454 
L 228.76416 292.456051 
L 231.59808 292.711133 
L 234.432 292.847011 
L 235.37664 293.052819 
L 238.21056 293.027801 
L 239.1552 293.191244 
L 243.8784 293.162733 
L 245.76768 293.495637 
L 249.54624 293.467038 
L 250.49088 293.395425 
L 255.21408 293.669013 
L 261.82656 293.744144 
L 264.66048 293.838482 
L 273.16224 294.026352 
L 280.71936 294.107296 
L 283.55328 294.173333 
L 347.7888 294.622706 
L 356.29056 294.629929 
L 406.35648 294.560681 
L 452.64384 294.450209 
L 505.54368 294.470206 
L 565.056 294.284217 
L 577 294.223135 
L 577 294.223135 
" clip-path="url(#pcaaf7b9078)" style="fill: none; stroke: #000000; stroke-width: 2; stroke-linecap: square"/>
   </g>
   <g id="line2d_28">
    <path d="M -1 292.569308 
L 46.513665 291.561554 
L 61.867908 291.056533 
L 73.678863 290.577057 
L 77.22215 290.465454 
L 79.584341 290.338495 
L 94.938584 289.511942 
L 97.300775 289.31468 
L 105.568444 288.744798 
L 107.930635 288.504222 
L 109.11173 288.461755 
L 111.473922 288.139786 
L 112.655017 288.121872 
L 119.741591 287.33624 
L 120.922686 287.270245 
L 122.103782 286.996746 
L 130.371451 285.954925 
L 133.914737 285.214029 
L 135.095833 285.050385 
L 136.276929 284.72698 
L 137.458024 284.640457 
L 138.63912 284.123639 
L 139.820215 284.065928 
L 141.001311 283.873941 
L 142.182406 283.331993 
L 144.544598 282.940515 
L 145.725693 282.337603 
L 148.087884 281.854854 
L 149.26898 281.420381 
L 150.450075 280.692207 
L 151.631171 280.266191 
L 152.812266 279.580858 
L 153.993362 279.24698 
L 155.174458 278.453398 
L 157.536649 277.533221 
L 158.717744 276.665706 
L 159.89884 275.94312 
L 161.079936 274.725747 
L 162.261031 273.950577 
L 163.442127 272.317969 
L 164.623222 271.173578 
L 166.985413 269.183595 
L 168.166509 266.948384 
L 170.5287 263.457583 
L 171.709796 259.216182 
L 172.890891 258.882284 
L 174.071987 254.319881 
L 175.253082 253.472295 
L 176.434178 243.379982 
L 177.615274 243.488336 
L 178.796369 241.855559 
L 179.977465 232.206492 
L 181.15856 231.556456 
L 182.339656 234.45848 
L 183.520751 238.277209 
L 184.701847 231.86998 
L 185.882942 258.377302 
L 187.064038 297.264553 
L 188.245134 320.377202 
L 189.426229 327.212184 
L 190.607325 350.987738 
L 191.78842 343.415333 
L 192.969516 352.796536 
L 194.150611 351.88498 
L 195.331707 339.686913 
L 196.512803 345.136684 
L 197.693898 340.002174 
L 198.874994 334.175428 
L 200.056089 332.555251 
L 201.237185 329.93599 
L 202.41828 328.368124 
L 203.599376 325.873658 
L 204.780472 324.033311 
L 205.961567 322.972091 
L 207.142663 321.240861 
L 208.323758 318.892014 
L 209.504854 318.371275 
L 210.685949 317.170673 
L 211.867045 315.384843 
L 213.048141 315.008859 
L 214.229236 313.511269 
L 215.410332 313.219127 
L 216.591427 312.242559 
L 220.134714 310.361589 
L 221.31581 309.907382 
L 223.678001 308.635302 
L 224.859096 308.351415 
L 226.040192 307.926078 
L 227.221287 307.659589 
L 228.402383 307.233224 
L 236.670052 305.214405 
L 237.851148 305.072478 
L 240.213339 304.526488 
L 241.394434 304.354893 
L 242.57553 304.323449 
L 244.937721 303.987035 
L 249.662103 303.200481 
L 266.197441 301.39517 
L 267.378537 301.391124 
L 270.921824 301.097433 
L 275.646206 300.699534 
L 278.008397 300.58424 
L 279.189492 300.450369 
L 281.551684 300.312063 
L 283.913875 300.204853 
L 288.638257 299.878706 
L 293.362639 299.691808 
L 299.268117 299.374537 
L 331.157698 298.162568 
L 371.314947 297.029905 
L 432.731916 295.963603 
L 566.195716 294.206084 
L 577 294.0507 
L 577 294.0507 
" clip-path="url(#pcaaf7b9078)" style="fill: none; stroke-dasharray: 7.4,3.2; stroke-dashoffset: 0; stroke: #000000; stroke-width: 2"/>
   </g>
   <g id="line2d_29">
    <path d="M -1 294.815761 
L 25.66656 294.790869 
L 33.22368 294.820746 
L 51.17184 294.782745 
L 54.00576 294.8124 
L 56.83968 294.792906 
L 79.51104 294.859343 
L 82.34496 294.798729 
L 89.90208 294.837 
L 96.51456 294.885509 
L 97.4592 294.767952 
L 98.40384 294.934698 
L 99.34848 294.775965 
L 102.1824 294.887482 
L 104.07168 294.83462 
L 108.79488 294.679035 
L 110.68416 294.799518 
L 111.6288 294.483855 
L 113.51808 294.661699 
L 118.24128 294.403072 
L 120.13056 294.68522 
L 121.0752 294.265979 
L 122.01984 294.488036 
L 122.96448 294.387324 
L 124.85376 294.647328 
L 125.7984 294.089343 
L 126.74304 294.52319 
L 127.68768 294.467257 
L 132.41088 293.755397 
L 134.30016 294.253636 
L 135.2448 293.190307 
L 136.18944 293.303814 
L 137.13408 294.193715 
L 139.02336 294.336706 
L 139.968 294.024654 
L 141.85728 291.527233 
L 143.74656 292.444458 
L 144.6912 289.749602 
L 145.63584 290.001946 
L 146.58048 288.59111 
L 148.46976 287.207573 
L 149.4144 284.092275 
L 150.35904 276.412707 
L 151.30368 247.258608 
L 153.19296 183.635393 
L 154.1376 134.837968 
L 155.08224 48.717643 
L 156.02688 115.78873 
L 157.91616 147.133586 
L 158.8608 244.62656 
L 159.80544 244.600775 
L 160.75008 264.874617 
L 162.63936 268.827945 
L 163.584 282.468877 
L 164.52864 281.989002 
L 165.47328 284.275811 
L 167.36256 286.408711 
L 168.3072 287.922467 
L 170.19648 288.616525 
L 172.08576 288.181947 
L 173.0304 289.921077 
L 173.97504 290.225779 
L 174.91968 290.879238 
L 176.80896 291.793127 
L 177.7536 291.244942 
L 178.69824 290.999089 
L 179.64288 291.710965 
L 181.53216 291.53398 
L 182.4768 291.609613 
L 183.42144 292.016823 
L 186.25536 292.625108 
L 187.2 292.416944 
L 188.14464 292.478474 
L 189.08928 292.166608 
L 190.97856 292.700064 
L 191.9232 292.575403 
L 193.81248 293.028625 
L 195.70176 292.837461 
L 196.6464 293.404771 
L 198.53568 293.216099 
L 200.42496 293.214942 
L 201.3696 293.429133 
L 205.14816 293.504626 
L 206.0928 293.721887 
L 207.03744 293.663531 
L 207.98208 293.840394 
L 214.59456 293.837129 
L 216.48384 293.959725 
L 220.2624 293.984405 
L 221.20704 294.087529 
L 224.04096 293.950814 
L 226.87488 294.053852 
L 234.432 293.99314 
L 235.37664 294.074885 
L 238.21056 294.058293 
L 242.93376 294.103056 
L 244.82304 294.137725 
L 248.6016 294.168618 
L 254.26944 294.170391 
L 258.048 294.24107 
L 271.27296 294.32443 
L 277.88544 294.368666 
L 309.05856 294.49428 
L 320.39424 294.558835 
L 327.95136 294.59316 
L 363.84768 294.657842 
L 463.03488 294.46667 
L 521.60256 294.407214 
L 577 294.058508 
L 577 294.058508 
" clip-path="url(#pcaaf7b9078)" style="fill: none; stroke: #000000; stroke-width: 2; stroke-linecap: square"/>
   </g>
   <g id="line2d_30">
    <path d="M -1 292.140651 
L 11.080798 291.834639 
L 16.986276 291.706044 
L 38.245996 291.049258 
L 46.513665 290.72648 
L 53.600239 290.411962 
L 67.773386 289.538615 
L 80.765437 288.565621 
L 84.308724 288.279854 
L 86.670915 287.875437 
L 87.85201 287.869294 
L 89.033106 287.673619 
L 90.214201 287.631899 
L 92.576392 287.3346 
L 94.938584 287.024643 
L 96.119679 286.711336 
L 98.48187 286.570835 
L 100.844061 286.068622 
L 102.025157 285.979018 
L 106.749539 284.915323 
L 107.930635 284.655157 
L 109.11173 284.636766 
L 111.473922 283.73406 
L 113.836113 283.344108 
L 116.198304 282.577028 
L 117.379399 282.123326 
L 118.560495 281.937327 
L 119.741591 281.413339 
L 120.922686 281.200725 
L 122.103782 280.382779 
L 124.465973 279.48193 
L 125.647068 278.763116 
L 126.828164 277.868601 
L 128.00926 277.819703 
L 129.190355 276.93738 
L 130.371451 276.211188 
L 132.733642 273.86441 
L 135.095833 271.620851 
L 137.458024 269.138301 
L 138.63912 264.323088 
L 141.001311 263.680562 
L 142.182406 257.474359 
L 143.363502 254.813126 
L 144.544598 250.952871 
L 145.725693 245.762621 
L 146.906789 237.590899 
L 148.087884 235.104606 
L 149.26898 223.727139 
L 150.450075 195.878884 
L 151.631171 195.4906 
L 152.812266 121.281825 
L 153.993362 224.990973 
L 155.174458 308.995937 
L 156.355553 366.303912 
L 157.536649 400.977231 
L 158.717744 416.623942 
L 159.89884 399.710907 
L 161.079936 358.317793 
L 162.261031 354.967553 
L 163.442127 347.419508 
L 164.623222 343.986905 
L 165.804318 339.425302 
L 166.985413 333.371112 
L 168.166509 330.362993 
L 169.347604 326.771327 
L 171.709796 321.554027 
L 172.890891 321.084923 
L 174.071987 319.117236 
L 175.253082 318.953771 
L 176.434178 316.675428 
L 177.615274 316.130495 
L 179.977465 313.743965 
L 181.15856 313.405063 
L 182.339656 312.079065 
L 183.520751 311.274186 
L 184.701847 311.216426 
L 189.426229 308.978181 
L 194.150611 307.468754 
L 195.331707 307.024935 
L 197.693898 306.661509 
L 198.874994 306.057729 
L 200.056089 305.916889 
L 202.41828 305.327397 
L 203.599376 305.286188 
L 204.780472 304.806003 
L 207.142663 304.481614 
L 208.323758 304.024003 
L 210.685949 303.724311 
L 211.867045 303.396611 
L 213.048141 303.344419 
L 215.410332 302.928792 
L 222.496905 301.957998 
L 227.221287 301.48085 
L 233.126765 300.957405 
L 235.488956 300.798398 
L 240.213339 300.458539 
L 255.567581 299.562167 
L 259.110868 299.417749 
L 292.181544 298.141706 
L 298.087022 297.977509 
L 305.173595 297.790278 
L 352.417418 296.678482 
L 402.023432 295.774602 
L 440.999586 295.27952 
L 483.519026 294.76414 
L 531.943944 293.960124 
L 577 292.97426 
L 577 292.97426 
" clip-path="url(#pcaaf7b9078)" style="fill: none; stroke-dasharray: 7.4,3.2; stroke-dashoffset: 0; stroke: #000000; stroke-width: 2"/>
   </g>
   <g id="line2d_31">
    <path d="M -1 294.669105 
L 224.859096 294.494087 
L 311.079073 294.230812 
L 355.960704 293.894506 
L 384.306998 293.475947 
L 403.204527 292.994884 
L 417.377674 292.42619 
L 428.007534 291.79465 
L 436.275203 291.106938 
L 443.361777 290.309164 
L 449.267254 289.430807 
L 453.991637 288.533168 
L 458.716019 287.400268 
L 462.259306 286.348627 
L 465.802592 285.074696 
L 469.345879 283.52157 
L 471.70807 282.296998 
L 474.070261 280.893636 
L 476.432453 279.286029 
L 478.794644 277.44894 
L 481.156835 275.360866 
L 483.519026 273.010139 
L 485.881217 270.404605 
L 489.424504 266.121972 
L 494.148886 260.368387 
L 496.511077 257.962702 
L 497.692173 257.000436 
L 498.873268 256.244961 
L 500.054364 255.725466 
L 501.23546 255.463537 
L 502.416555 255.471076 
L 503.597651 255.74908 
L 504.778746 256.287496 
L 505.959842 257.066184 
L 507.140937 258.056816 
L 509.503129 260.53495 
L 513.046415 264.946746 
L 517.770797 270.888091 
L 520.132989 273.567493 
L 522.49518 275.977014 
L 524.857371 278.108937 
L 527.219562 279.976376 
L 529.581753 281.60285 
L 531.943944 283.015703 
L 534.306135 284.24234 
L 537.849422 285.788249 
L 541.392709 287.046467 
L 544.935996 288.07711 
L 549.660378 289.17751 
L 554.38476 290.04046 
L 560.290238 290.875197 
L 567.376811 291.622587 
L 575.64448 292.255678 
L 577 292.340973 
L 577 292.340973 
" clip-path="url(#pcaaf7b9078)" style="fill: none; stroke: #e41a1c; stroke-width: 1.5; stroke-linecap: square"/>
   </g>
   <g id="line2d_32">
    <path d="M -1 294.669105 
L 224.859096 294.494087 
L 311.079073 294.230812 
L 355.960704 293.894506 
L 384.306998 293.475947 
L 403.204527 292.994884 
L 417.377674 292.42619 
L 428.007534 291.79465 
L 436.275203 291.106938 
L 443.361777 290.309164 
L 449.267254 289.430807 
L 453.991637 288.533168 
L 458.716019 287.400268 
L 462.259306 286.348627 
L 465.802592 285.074696 
L 469.345879 283.52157 
L 471.70807 282.296998 
L 474.070261 280.893636 
L 476.432453 279.286029 
L 478.794644 277.44894 
L 481.156835 275.360866 
L 483.519026 273.010139 
L 485.881217 270.404605 
L 489.424504 266.121972 
L 494.148886 260.368387 
L 496.511077 257.962702 
L 497.692173 257.000436 
L 498.873268 256.244961 
L 500.054364 255.725466 
L 501.23546 255.463537 
L 502.416555 255.471076 
L 503.597651 255.74908 
L 504.778746 256.287496 
L 505.959842 257.066184 
L 507.140937 258.056816 
L 509.503129 260.53495 
L 513.046415 264.946746 
L 517.770797 270.888091 
L 520.132989 273.567493 
L 522.49518 275.977014 
L 524.857371 278.108937 
L 527.219562 279.976376 
L 529.581753 281.60285 
L 531.943944 283.015703 
L 534.306135 284.24234 
L 537.849422 285.788249 
L 541.392709 287.046467 
L 544.935996 288.07711 
L 549.660378 289.17751 
L 554.38476 290.04046 
L 560.290238 290.875197 
L 567.376811 291.622587 
L 575.64448 292.255678 
L 577 292.340973 
L 577 292.340973 
" clip-path="url(#pcaaf7b9078)" style="fill: none; stroke: #e41a1c; stroke-width: 1.5; stroke-linecap: square"/>
   </g>
   <g id="line2d_33">
    <path d="M -1 294.009451 
L 118.560495 293.352266 
L 198.874994 292.699854 
L 255.567581 292.028846 
L 298.087022 291.313569 
L 331.157698 290.539423 
L 357.1418 289.710506 
L 377.220425 288.86068 
L 393.755763 287.95443 
L 407.92891 286.96216 
L 419.739865 285.921373 
L 430.369725 284.757013 
L 439.81849 283.482353 
L 448.086159 282.132983 
L 455.172732 280.773227 
L 463.440401 278.952136 
L 475.251357 276.30627 
L 478.794644 275.786108 
L 481.156835 275.640031 
L 483.519026 275.742474 
L 485.881217 276.192513 
L 487.062313 276.584313 
L 488.243408 277.108517 
L 489.424504 277.781326 
L 490.605599 278.618243 
L 491.786695 279.633014 
L 492.967791 280.836319 
L 494.148886 282.234288 
L 495.329982 283.826955 
L 497.692173 287.557918 
L 500.054364 291.864996 
L 505.959842 303.067434 
L 508.322033 306.821488 
L 509.503129 308.422615 
L 510.684224 309.82502 
L 511.86532 311.027745 
L 513.046415 312.036374 
L 514.227511 312.861449 
L 515.408606 313.516927 
L 516.589702 314.018774 
L 517.770797 314.383821 
L 520.132989 314.77006 
L 522.49518 314.799765 
L 524.857371 314.576993 
L 528.400658 313.942215 
L 533.12504 312.812436 
L 547.298187 309.267161 
L 554.38476 307.76954 
L 561.471334 306.48466 
L 569.739003 305.217806 
L 577 304.274935 
L 577 304.274935 
" clip-path="url(#pcaaf7b9078)" style="fill: none; stroke-dasharray: 5.55,2.4; stroke-dashoffset: 0; stroke: #e41a1c; stroke-width: 1.5"/>
   </g>
   <g id="line2d_34">
    <path d="M -1 294.707617 
L 197.693898 294.539419 
L 266.197441 294.288855 
L 301.630308 293.95788 
L 322.890029 293.558732 
L 337.063175 293.098438 
L 347.693036 292.552019 
L 355.960704 291.914659 
L 361.866182 291.273224 
L 366.590565 290.590216 
L 371.314947 289.686756 
L 374.858234 288.804608 
L 378.40152 287.676527 
L 380.763711 286.742282 
L 383.125903 285.618042 
L 385.488094 284.252322 
L 387.850285 282.576953 
L 390.212476 280.501525 
L 392.574667 277.906816 
L 393.755763 276.36802 
L 394.936858 274.638668 
L 396.117954 272.693846 
L 397.299049 270.507142 
L 398.480145 268.051932 
L 399.661241 265.303688 
L 400.842336 262.243773 
L 403.204527 255.18156 
L 409.110005 235.523702 
L 410.291101 232.771911 
L 411.472196 231.048924 
L 412.653292 230.55235 
L 413.834387 231.347394 
L 415.015483 233.347978 
L 416.196579 236.340106 
L 417.377674 240.036195 
L 423.283152 260.220672 
L 425.645343 266.627707 
L 426.826439 269.346321 
L 428.007534 271.766875 
L 429.18863 273.916042 
L 430.369725 275.821969 
L 432.731916 279.012166 
L 435.094108 281.53238 
L 437.456299 283.538796 
L 439.81849 285.1512 
L 442.180681 286.459871 
L 444.542872 287.532551 
L 448.086159 288.80706 
L 451.629446 289.785439 
L 455.172732 290.550158 
L 459.897115 291.332303 
L 465.802592 292.046706 
L 472.889166 292.651933 
L 482.33793 293.195638 
L 494.148886 293.629396 
L 510.684224 293.991392 
L 534.306135 294.267371 
L 572.101194 294.459266 
L 577 294.47226 
L 577 294.47226 
" clip-path="url(#pcaaf7b9078)" style="fill: none; stroke: #e41a1c; stroke-width: 1.5; stroke-linecap: square"/>
   </g>
   <g id="line2d_35">
    <path d="M -1 293.764896 
L 90.214201 293.087911 
L 152.812266 292.417695 
L 198.874994 291.715308 
L 233.126765 290.987402 
L 260.291963 290.199463 
L 281.551684 289.373504 
L 299.268117 288.466293 
L 313.441264 287.524467 
L 325.25222 286.524361 
L 334.700984 285.524583 
L 342.968653 284.448764 
L 350.055227 283.325628 
L 355.960704 282.203052 
L 361.866182 280.859866 
L 366.590565 279.582981 
L 371.314947 278.079155 
L 376.039329 276.293518 
L 379.582616 274.731085 
L 383.125903 272.94762 
L 386.669189 270.926786 
L 391.393572 267.906053 
L 396.117954 264.869725 
L 398.480145 263.712547 
L 399.661241 263.362944 
L 400.842336 263.253874 
L 402.023432 263.473342 
L 403.204527 264.128367 
L 404.385623 265.342676 
L 405.566718 267.248825 
L 406.747814 269.972034 
L 407.92891 273.60411 
L 409.110005 278.169284 
L 410.291101 283.589915 
L 412.653292 296.087441 
L 415.015483 308.456917 
L 416.196579 313.733133 
L 417.377674 318.1207 
L 418.55877 321.558471 
L 419.739865 324.084506 
L 420.920961 325.800553 
L 422.102056 326.837947 
L 423.283152 327.332274 
L 424.464248 327.408129 
L 425.645343 327.172045 
L 426.826439 326.710806 
L 429.18863 325.370218 
L 432.731916 322.921574 
L 437.456299 319.66793 
L 440.999586 317.482877 
L 444.542872 315.557521 
L 448.086159 313.875766 
L 451.629446 312.408144 
L 456.353828 310.731484 
L 461.07821 309.316338 
L 465.802592 308.110406 
L 471.70807 306.835704 
L 478.794644 305.569982 
L 487.062313 304.365564 
L 496.511077 303.251423 
L 507.140937 302.238634 
L 520.132989 301.244688 
L 535.487231 300.307897 
L 554.38476 299.388521 
L 577 298.500228 
L 577 298.500228 
" clip-path="url(#pcaaf7b9078)" style="fill: none; stroke-dasharray: 5.55,2.4; stroke-dashoffset: 0; stroke: #e41a1c; stroke-width: 1.5"/>
   </g>
   <g id="line2d_36">
    <path d="M -1 294.755268 
L 183.520751 294.598199 
L 236.670052 294.356324 
L 262.654154 294.030995 
L 278.008397 293.627901 
L 287.457161 293.19302 
L 294.543735 292.680944 
L 300.449213 292.03654 
L 305.173595 291.279273 
L 308.716882 290.484343 
L 311.079073 289.794008 
L 313.441264 288.923634 
L 315.803455 287.80582 
L 318.165646 286.339315 
L 319.346742 285.429347 
L 320.527837 284.367245 
L 321.708933 283.118374 
L 322.890029 281.63816 
L 324.071124 279.868727 
L 325.25222 277.734267 
L 326.433315 275.134736 
L 327.614411 271.937396 
L 328.795506 267.965922 
L 329.976602 262.987646 
L 331.157698 256.702167 
L 332.338793 248.74161 
L 333.519889 238.709524 
L 334.700984 226.318621 
L 338.244271 182.570124 
L 339.425366 175.114189 
L 340.606462 176.853352 
L 341.787558 187.090576 
L 345.330844 231.676392 
L 346.51194 243.314673 
L 347.693036 252.622592 
L 348.874131 259.963762 
L 350.055227 265.744482 
L 351.236322 270.31875 
L 352.417418 273.967871 
L 353.598513 276.906868 
L 354.779609 279.297651 
L 355.960704 281.261748 
L 357.1418 282.890666 
L 358.322896 284.253748 
L 359.503991 285.403975 
L 361.866182 287.220158 
L 364.228374 288.569977 
L 366.590565 289.597733 
L 368.952756 290.396759 
L 372.496042 291.297016 
L 376.039329 291.952817 
L 380.763711 292.58102 
L 386.669189 293.117566 
L 394.936858 293.599748 
L 405.566718 293.9718 
L 420.920961 294.270517 
L 445.723968 294.501813 
L 489.424504 294.65402 
L 575.64448 294.70151 
L 577 294.700901 
L 577 294.700901 
" clip-path="url(#pcaaf7b9078)" style="fill: none; stroke: #e41a1c; stroke-width: 1.5; stroke-linecap: square"/>
   </g>
   <g id="line2d_37">
    <path d="M -1 293.503318 
L 70.135577 292.808625 
L 119.741591 292.118414 
L 157.536649 291.378198 
L 185.882942 290.609968 
L 208.323758 289.785743 
L 226.040192 288.919969 
L 240.213339 288.017313 
L 252.024294 287.052783 
L 261.473059 286.080712 
L 269.740728 285.024035 
L 276.827301 283.906846 
L 282.732779 282.773361 
L 288.638257 281.391042 
L 293.362639 280.045917 
L 296.905926 278.854537 
L 300.449213 277.463565 
L 303.992499 275.819536 
L 307.535786 273.848965 
L 309.897977 272.304553 
L 312.260168 270.529424 
L 314.62236 268.471619 
L 316.984551 266.064531 
L 319.346742 263.22316 
L 321.708933 259.841479 
L 324.071124 255.796227 
L 326.433315 250.97449 
L 328.795506 245.381048 
L 331.157698 239.503954 
L 332.338793 236.993718 
L 333.519889 235.463248 
L 334.700984 235.916167 
L 335.88208 239.891908 
L 337.063175 249.304713 
L 338.244271 265.535771 
L 341.787558 332.059383 
L 342.968653 345.81944 
L 344.149749 353.01912 
L 345.330844 355.412588 
L 346.51194 354.867099 
L 347.693036 352.751649 
L 350.055227 346.843588 
L 352.417418 340.875723 
L 354.779609 335.660339 
L 357.1418 331.279946 
L 359.503991 327.628931 
L 361.866182 324.574162 
L 364.228374 321.997701 
L 366.590565 319.80437 
L 368.952756 317.919647 
L 371.314947 316.285602 
L 373.677138 314.857095 
L 377.220425 313.024332 
L 380.763711 311.485921 
L 384.306998 310.177132 
L 389.03138 308.709095 
L 393.755763 307.485433 
L 399.661241 306.215092 
L 405.566718 305.162813 
L 412.653292 304.115202 
L 420.920961 303.113337 
L 431.550821 302.076317 
L 443.361777 301.157509 
L 457.534923 300.277769 
L 475.251357 299.407139 
L 497.692173 298.537293 
L 528.400658 297.590389 
L 577 296.324482 
L 577 296.324482 
" clip-path="url(#pcaaf7b9078)" style="fill: none; stroke-dasharray: 5.55,2.4; stroke-dashoffset: 0; stroke: #e41a1c; stroke-width: 1.5"/>
   </g>
   <g id="line2d_38">
    <path d="M -1 294.706366 
L 130.371451 294.528026 
L 176.434178 294.273507 
L 201.237185 293.931853 
L 216.591427 293.505642 
L 227.221287 292.983321 
L 234.307861 292.429179 
L 240.213339 291.741362 
L 244.937721 290.945159 
L 248.481008 290.122009 
L 250.843199 289.41681 
L 253.20539 288.539536 
L 255.567581 287.43085 
L 257.929772 286.004575 
L 260.291963 284.132668 
L 261.473059 282.972344 
L 262.654154 281.62047 
L 263.83525 280.035646 
L 265.016346 278.16595 
L 266.197441 275.946234 
L 267.378537 273.295037 
L 268.559632 270.111516 
L 269.740728 266.273464 
L 270.921824 261.638933 
L 272.102919 256.056685 
L 273.284015 249.395373 
L 274.46511 241.607546 
L 278.008397 215.051475 
L 279.189492 208.623056 
L 280.370588 205.92065 
L 281.551684 207.730848 
L 282.732779 213.565204 
L 283.913875 221.96717 
L 286.276066 240.372298 
L 287.457161 248.513363 
L 288.638257 255.505021 
L 289.819353 261.365824 
L 291.000448 266.221927 
L 292.181544 270.230006 
L 293.362639 273.540854 
L 294.543735 276.285585 
L 295.72483 278.572759 
L 296.905926 280.490073 
L 298.087022 282.10754 
L 299.268117 283.480807 
L 300.449213 284.654097 
L 302.811404 286.534651 
L 305.173595 287.955357 
L 307.535786 289.050812 
L 309.897977 289.910952 
L 313.441264 290.88924 
L 316.984551 291.608192 
L 321.708933 292.302022 
L 327.614411 292.898697 
L 334.700984 293.375861 
L 344.149749 293.781516 
L 358.322896 294.133671 
L 379.582616 294.40129 
L 415.015483 294.588871 
L 482.33793 294.687189 
L 577 294.621616 
L 577 294.621616 
" clip-path="url(#pcaaf7b9078)" style="fill: none; stroke: #e41a1c; stroke-width: 1.5; stroke-linecap: square"/>
   </g>
   <g id="line2d_39">
    <path d="M -1 293.221327 
L 54.781334 292.516413 
L 94.938584 291.799631 
L 125.647068 291.035573 
L 149.26898 290.22945 
L 168.166509 289.360063 
L 182.339656 288.503052 
L 194.150611 287.586819 
L 204.780472 286.531845 
L 213.048141 285.494703 
L 220.134714 284.393416 
L 226.040192 283.271378 
L 231.94567 281.897242 
L 236.670052 280.554823 
L 240.213339 279.362327 
L 243.756625 277.96698 
L 247.299912 276.315371 
L 250.843199 274.335818 
L 253.20539 272.787585 
L 255.567581 271.015506 
L 257.929772 268.977307 
L 260.291963 266.626102 
L 262.654154 263.917464 
L 265.016346 260.830483 
L 270.921824 252.49194 
L 272.102919 251.398838 
L 273.284015 251.037621 
L 274.46511 251.891836 
L 275.646206 254.61071 
L 276.827301 259.933942 
L 278.008397 268.445024 
L 279.189492 280.132953 
L 282.732779 320.411227 
L 283.913875 329.660434 
L 285.09497 335.611379 
L 286.276066 338.758853 
L 287.457161 339.851179 
L 288.638257 339.585258 
L 289.819353 338.494666 
L 291.000448 336.9471 
L 298.087022 326.50483 
L 300.449213 323.6632 
L 302.811404 321.20415 
L 305.173595 319.07877 
L 307.535786 317.235891 
L 309.897977 315.629694 
L 312.260168 314.221455 
L 315.803455 312.411984 
L 319.346742 310.892976 
L 322.890029 309.601998 
L 327.614411 308.156656 
L 332.338793 306.954992 
L 338.244271 305.711222 
L 344.149749 304.684323 
L 351.236322 303.665401 
L 359.503991 302.694483 
L 370.133851 301.693438 
L 381.944807 300.810167 
L 397.299049 299.906102 
L 416.196579 299.042126 
L 439.81849 298.202284 
L 471.70807 297.309838 
L 528.400658 295.994311 
L 575.64448 294.80795 
L 577 294.768051 
L 577 294.768051 
" clip-path="url(#pcaaf7b9078)" style="fill: none; stroke-dasharray: 5.55,2.4; stroke-dashoffset: 0; stroke: #e41a1c; stroke-width: 1.5"/>
   </g>
   <g id="line2d_40">
    <path d="M -1 294.691977 
L 102.025157 294.504233 
L 141.001311 294.233019 
L 161.079936 293.89744 
L 174.071987 293.477482 
L 182.339656 293.027364 
L 189.426229 292.421063 
L 194.150611 291.820146 
L 197.693898 291.202944 
L 201.237185 290.369037 
L 203.599376 289.639602 
L 205.961567 288.71382 
L 208.323758 287.516144 
L 210.685949 285.932393 
L 211.867045 284.94371 
L 213.048141 283.784905 
L 214.229236 282.41674 
L 215.410332 280.788898 
L 216.591427 278.836485 
L 217.772523 276.47552 
L 218.953618 273.597356 
L 220.134714 270.062431 
L 221.31581 265.694895 
L 222.496905 260.282541 
L 223.678001 253.592599 
L 224.859096 245.42585 
L 226.040192 235.748434 
L 228.402383 214.170727 
L 229.583479 205.520941 
L 230.764574 201.484332 
L 231.94567 203.514127 
L 233.126765 210.917661 
L 236.670052 242.857765 
L 237.851148 251.682159 
L 239.032243 258.945732 
L 240.213339 264.818191 
L 241.394434 269.539219 
L 242.57553 273.339583 
L 243.756625 276.414578 
L 244.937721 278.920408 
L 246.118816 280.97883 
L 247.299912 282.683777 
L 248.481008 284.107555 
L 249.662103 285.305971 
L 250.843199 286.322313 
L 253.20539 287.936765 
L 255.567581 289.144505 
L 257.929772 290.068667 
L 260.291963 290.789928 
L 263.83525 291.605485 
L 267.378537 292.201513 
L 272.102919 292.773928 
L 278.008397 293.263875 
L 286.276066 293.704851 
L 298.087022 294.073393 
L 315.803455 294.361024 
L 344.149749 294.56493 
L 397.299049 294.69097 
L 504.778746 294.697333 
L 572.101194 294.524441 
L 577 294.492305 
L 577 294.492305 
" clip-path="url(#pcaaf7b9078)" style="fill: none; stroke: #e41a1c; stroke-width: 1.5; stroke-linecap: square"/>
   </g>
   <g id="line2d_41">
    <path d="M -1 292.89793 
L 41.789283 292.19744 
L 73.678863 291.471213 
L 98.48187 290.694892 
L 117.379399 289.897227 
L 132.733642 289.04008 
L 145.725693 288.088992 
L 156.355553 287.078644 
L 164.623222 286.0813 
L 171.709796 285.017315 
L 177.615274 283.927567 
L 182.339656 282.877513 
L 187.064038 281.617941 
L 190.607325 280.495645 
L 194.150611 279.177748 
L 197.693898 277.610284 
L 201.237185 275.719023 
L 203.599376 274.22875 
L 205.961567 272.509123 
L 208.323758 270.509907 
L 210.685949 268.169724 
L 213.048141 265.417615 
L 215.410332 262.183753 
L 217.772523 258.43778 
L 222.496905 250.431115 
L 223.678001 249.134361 
L 224.859096 248.882769 
L 226.040192 250.464718 
L 227.221287 254.940882 
L 228.402383 263.40093 
L 229.583479 276.296217 
L 233.126765 323.75437 
L 234.307861 333.800895 
L 235.488956 339.520553 
L 236.670052 341.885422 
L 237.851148 342.038587 
L 239.032243 340.895107 
L 240.213339 339.072872 
L 246.118816 328.612559 
L 248.481008 325.178357 
L 250.843199 322.26431 
L 253.20539 319.795095 
L 255.567581 317.692959 
L 257.929772 315.89063 
L 260.291963 314.33323 
L 262.654154 312.976921 
L 266.197441 311.245302 
L 269.740728 309.800201 
L 273.284015 308.577443 
L 278.008397 307.213674 
L 282.732779 306.083496 
L 288.638257 304.91673 
L 295.72483 303.782988 
L 303.992499 302.724208 
L 313.441264 301.760059 
L 325.25222 300.80995 
L 339.425366 299.922428 
L 355.960704 299.1161 
L 377.220425 298.309918 
L 405.566718 297.475924 
L 446.905063 296.510192 
L 535.487231 294.502901 
L 560.290238 293.693205 
L 577 292.956713 
L 577 292.956713 
" clip-path="url(#pcaaf7b9078)" style="fill: none; stroke-dasharray: 5.55,2.4; stroke-dashoffset: 0; stroke: #e41a1c; stroke-width: 1.5"/>
   </g>
   <g id="line2d_42">
    <path d="M -1 294.712415 
L 85.489819 294.531806 
L 117.379399 294.269375 
L 133.914737 293.935942 
L 144.544598 293.513048 
L 151.631171 293.02396 
L 156.355553 292.519785 
L 159.89884 291.982723 
L 163.442127 291.227217 
L 165.804318 290.538919 
L 168.166509 289.629172 
L 170.5287 288.392984 
L 171.709796 287.602158 
L 172.890891 286.65651 
L 174.071987 285.513841 
L 175.253082 284.117055 
L 176.434178 282.387696 
L 177.615274 280.21621 
L 178.796369 277.447145 
L 179.977465 273.856648 
L 181.15856 269.118824 
L 182.339656 262.758515 
L 183.520751 254.096905 
L 184.701847 242.234349 
L 185.882942 226.239661 
L 188.245134 184.491018 
L 189.426229 169.839599 
L 190.607325 171.10223 
L 191.78842 187.510564 
L 194.150611 229.434782 
L 195.331707 244.953355 
L 196.512803 256.37011 
L 197.693898 264.669894 
L 198.874994 270.748117 
L 200.056089 275.266882 
L 201.237185 278.685544 
L 202.41828 281.317763 
L 203.599376 283.378482 
L 204.780472 285.016756 
L 205.961567 286.337538 
L 207.142663 287.415942 
L 208.323758 288.306602 
L 210.685949 289.676013 
L 213.048141 290.663529 
L 215.410332 291.397366 
L 218.953618 292.187352 
L 222.496905 292.737172 
L 227.221287 293.24238 
L 233.126765 293.656044 
L 241.394434 294.012418 
L 254.386486 294.317485 
L 274.46511 294.537411 
L 312.260168 294.689148 
L 398.480145 294.759802 
L 522.49518 294.664768 
L 559.109142 294.453486 
L 574.463385 294.181602 
L 577 294.106335 
L 577 294.106335 
" clip-path="url(#pcaaf7b9078)" style="fill: none; stroke: #e41a1c; stroke-width: 1.5; stroke-linecap: square"/>
   </g>
   <g id="line2d_43">
    <path d="M -1 292.526498 
L 32.340518 291.811975 
L 58.324621 291.041179 
L 78.403246 290.225582 
L 93.757488 289.390276 
L 106.749539 288.457646 
L 117.379399 287.459003 
L 125.647068 286.464236 
L 132.733642 285.392235 
L 138.63912 284.281849 
L 143.363502 283.199182 
L 148.087884 281.882891 
L 151.631171 280.692846 
L 155.174458 279.273294 
L 158.717744 277.551633 
L 161.079936 276.185682 
L 163.442127 274.596187 
L 165.804318 272.72542 
L 168.166509 270.495218 
L 170.5287 267.798152 
L 172.890891 264.48498 
L 174.071987 262.535402 
L 175.253082 260.348934 
L 176.434178 257.888915 
L 177.615274 255.115683 
L 178.796369 251.990798 
L 179.977465 248.487641 
L 182.339656 240.477931 
L 183.520751 236.388298 
L 184.701847 233.1296 
L 185.882942 232.425471 
L 187.064038 237.554096 
L 188.245134 253.085168 
L 189.426229 281.058799 
L 190.607325 314.572131 
L 191.78842 341.070273 
L 192.969516 354.885449 
L 194.150611 358.792612 
L 195.331707 357.37404 
L 196.512803 353.725132 
L 200.056089 341.235773 
L 201.237185 337.696309 
L 202.41828 334.550616 
L 203.599376 331.765414 
L 204.780472 329.298566 
L 205.961567 327.108307 
L 208.323758 323.410865 
L 210.685949 320.427456 
L 213.048141 317.980229 
L 215.410332 315.941949 
L 217.772523 314.220864 
L 220.134714 312.74984 
L 222.496905 311.47894 
L 226.040192 309.867702 
L 229.583479 308.530914 
L 233.126765 307.404157 
L 237.851148 306.151004 
L 242.57553 305.114485 
L 248.481008 304.045504 
L 255.567581 303.007082 
L 263.83525 302.036863 
L 273.284015 301.15231 
L 285.09497 300.278942 
L 299.268117 299.460785 
L 316.984551 298.667731 
L 339.425366 297.891934 
L 370.133851 297.069187 
L 417.377674 296.053947 
L 489.424504 294.49696 
L 516.589702 293.688031 
L 535.487231 292.922118 
L 549.660378 292.139871 
L 560.290238 291.349603 
L 568.557907 290.536667 
L 575.64448 289.621323 
L 577 289.413793 
L 577 289.413793 
" clip-path="url(#pcaaf7b9078)" style="fill: none; stroke-dasharray: 5.55,2.4; stroke-dashoffset: 0; stroke: #e41a1c; stroke-width: 1.5"/>
   </g>
   <g id="line2d_44">
    <path d="M -1 294.763847 
L 79.584341 294.605738 
L 104.387348 294.368371 
L 116.198304 294.075162 
L 123.284877 293.729907 
L 128.00926 293.34134 
L 131.552546 292.891039 
L 135.095833 292.192993 
L 137.458024 291.489218 
L 139.820215 290.454854 
L 141.001311 289.745049 
L 142.182406 288.845714 
L 143.363502 287.683289 
L 144.544598 286.145174 
L 145.725693 284.052404 
L 146.906789 281.107685 
L 148.087884 276.79073 
L 149.26898 270.133477 
L 150.450075 259.20412 
L 151.631171 239.864849 
L 152.812266 202.986733 
L 153.993362 132.988959 
L 155.174458 50.387439 
L 156.355553 79.756421 
L 157.536649 167.930392 
L 158.717744 222.410904 
L 159.89884 250.306448 
L 161.079936 265.297076 
L 162.261031 274.012198 
L 163.442127 279.448181 
L 164.623222 283.039563 
L 165.804318 285.525069 
L 166.985413 287.311436 
L 168.166509 288.635874 
L 169.347604 289.643643 
L 170.5287 290.427452 
L 172.890891 291.548874 
L 175.253082 292.295465 
L 177.615274 292.816631 
L 181.15856 293.345209 
L 185.882942 293.782254 
L 192.969516 294.152469 
L 203.599376 294.42901 
L 221.31581 294.624063 
L 256.748677 294.747816 
L 355.960704 294.8031 
L 511.86532 294.705284 
L 540.211613 294.506956 
L 552.022569 294.228976 
L 557.928047 293.923268 
L 562.652429 293.465865 
L 565.01462 293.092103 
L 567.376811 292.538292 
L 569.739003 291.667814 
L 570.920098 291.033189 
L 572.101194 290.186926 
L 573.282289 289.024911 
L 574.463385 287.371819 
L 575.64448 284.915883 
L 576.825576 281.066167 
L 577 280.114104 
L 577 280.114104 
" clip-path="url(#pcaaf7b9078)" style="fill: none; stroke: #e41a1c; stroke-width: 1.5; stroke-linecap: square"/>
   </g>
   <g id="line2d_45">
    <path d="M -1 292.089398 
L 24.072849 291.379887 
L 44.151474 290.609077 
L 59.505717 289.82115 
L 72.497768 288.941753 
L 83.127628 287.99935 
L 91.395297 287.058975 
L 98.48187 286.04303 
L 104.387348 284.987234 
L 109.11173 283.953801 
L 113.836113 282.691286 
L 117.379399 281.543402 
L 120.922686 280.165173 
L 124.465973 278.478985 
L 126.828164 277.12847 
L 129.190355 275.541225 
L 131.552546 273.649098 
L 133.914737 271.355286 
L 136.276929 268.517721 
L 137.458024 266.83145 
L 138.63912 264.919642 
L 139.820215 262.734595 
L 141.001311 260.214491 
L 142.182406 257.277946 
L 143.363502 253.815985 
L 144.544598 249.680004 
L 145.725693 244.663597 
L 146.906789 238.475269 
L 148.087884 230.699641 
L 149.26898 220.753983 
L 150.450075 207.901425 
L 152.812266 174.530908 
L 153.993362 175.218035 
L 155.174458 254.602372 
L 156.355553 383.795888 
L 157.536649 421.167787 
L 158.717744 409.33658 
L 159.89884 391.464217 
L 161.079936 376.437444 
L 162.261031 364.772157 
L 163.442127 355.738203 
L 164.623222 348.633467 
L 165.804318 342.940039 
L 166.985413 338.294232 
L 168.166509 334.44083 
L 169.347604 331.198227 
L 170.5287 328.434831 
L 171.709796 326.053488 
L 172.890891 323.981174 
L 174.071987 322.16208 
L 176.434178 319.11956 
L 178.796369 316.677077 
L 181.15856 314.67371 
L 183.520751 313.001036 
L 185.882942 311.583438 
L 188.245134 310.366627 
L 191.78842 308.833273 
L 195.331707 307.567988 
L 198.874994 306.50567 
L 203.599376 305.327988 
L 209.504854 304.139402 
L 215.410332 303.179199 
L 222.496905 302.243542 
L 230.764574 301.366206 
L 241.394434 300.474429 
L 254.386486 299.628271 
L 269.740728 298.85459 
L 289.819353 298.076193 
L 315.803455 297.303432 
L 352.417418 296.452476 
L 469.345879 293.897687 
L 491.786695 293.110878 
L 508.322033 292.310244 
L 520.132989 291.529455 
L 529.581753 290.690868 
L 536.668327 289.861213 
L 542.573804 288.96603 
L 547.298187 288.050892 
L 550.841473 287.197838 
L 554.38476 286.143673 
L 557.928047 284.80451 
L 560.290238 283.688854 
L 562.652429 282.324318 
L 565.01462 280.61616 
L 566.195716 279.589808 
L 567.376811 278.415618 
L 568.557907 277.059516 
L 569.739003 275.47644 
L 570.920098 273.605748 
L 572.101194 271.364317 
L 573.282289 268.636104 
L 574.463385 265.25656 
L 575.64448 260.991152 
L 577 254.470598 
L 577 254.470598 
" clip-path="url(#pcaaf7b9078)" style="fill: none; stroke-dasharray: 5.55,2.4; stroke-dashoffset: 0; stroke: #e41a1c; stroke-width: 1.5"/>
   </g>
   <g id="patch_3">
    <path d="M 69.12 453.6 
L 69.12 30.24 
" style="fill: none; stroke: #000000; stroke-width: 0.8; stroke-linejoin: miter; stroke-linecap: square"/>
   </g>
   <g id="patch_4">
    <path d="M 541.44 453.6 
L 541.44 30.24 
" style="fill: none; stroke: #000000; stroke-width: 0.8; stroke-linejoin: miter; stroke-linecap: square"/>
   </g>
   <g id="patch_5">
    <path d="M 69.12 453.6 
L 541.44 453.6 
" style="fill: none; stroke: #000000; stroke-width: 0.8; stroke-linejoin: miter; stroke-linecap: square"/>
   </g>
   <g id="patch_6">
    <path d="M 69.12 30.24 
L 541.44 30.24 
" style="fill: none; stroke: #000000; stroke-width: 0.8; stroke-linejoin: miter; stroke-linecap: square"/>
   </g>
   <g id="legend_1">
    <g id="patch_7">
     <path d="M 379.969687 86.274375 
L 530.94 86.274375 
Q 533.94 86.274375 533.94 83.274375 
L 533.94 40.74 
Q 533.94 37.74 530.94 37.74 
L 379.969687 37.74 
Q 376.969687 37.74 376.969687 40.74 
L 376.969687 83.274375 
Q 376.969687 86.274375 379.969687 86.274375 
z
" style="fill: #ffffff; opacity: 0.8; stroke: #cccccc; stroke-linejoin: miter"/>
    </g>
    <g id="line2d_46">
     <path d="M 382.969687 49.887656 
L 397.969687 49.887656 
L 412.969687 49.887656 
" style="fill: none; stroke: #000000; stroke-width: 2; stroke-linecap: square"/>
    </g>
    <g id="text_18">
     <!-- Measurement -->
     <g transform="translate(424.969687 55.137656)scale(0.15 -0.15)">
      <defs>
       <path id="DejaVuSans-73" d="M 2834 3397 
L 2834 2853 
Q 2591 2978 2328 3040 
Q 2066 3103 1784 3103 
Q 1356 3103 1142 2972 
Q 928 2841 928 2578 
Q 928 2378 1081 2264 
Q 1234 2150 1697 2047 
L 1894 2003 
Q 2506 1872 2764 1633 
Q 3022 1394 3022 966 
Q 3022 478 2636 193 
Q 2250 -91 1575 -91 
Q 1294 -91 989 -36 
Q 684 19 347 128 
L 347 722 
Q 666 556 975 473 
Q 1284 391 1588 391 
Q 1994 391 2212 530 
Q 2431 669 2431 922 
Q 2431 1156 2273 1281 
Q 2116 1406 1581 1522 
L 1381 1569 
Q 847 1681 609 1914 
Q 372 2147 372 2553 
Q 372 3047 722 3315 
Q 1072 3584 1716 3584 
Q 2034 3584 2315 3537 
Q 2597 3491 2834 3397 
z
" transform="scale(0.015625)"/>
       <path id="DejaVuSans-74" d="M 1172 4494 
L 1172 3500 
L 2356 3500 
L 2356 3053 
L 1172 3053 
L 1172 1153 
Q 1172 725 1289 603 
Q 1406 481 1766 481 
L 2356 481 
L 2356 0 
L 1766 0 
Q 1100 0 847 248 
Q 594 497 594 1153 
L 594 3053 
L 172 3053 
L 172 3500 
L 594 3500 
L 594 4494 
L 1172 4494 
z
" transform="scale(0.015625)"/>
      </defs>
      <use xlink:href="#DejaVuSans-4d"/>
      <use xlink:href="#DejaVuSans-65" x="86.279297"/>
      <use xlink:href="#DejaVuSans-61" x="147.802734"/>
      <use xlink:href="#DejaVuSans-73" x="209.082031"/>
      <use xlink:href="#DejaVuSans-75" x="261.181641"/>
      <use xlink:href="#DejaVuSans-72" x="324.560547"/>
      <use xlink:href="#DejaVuSans-65" x="363.423828"/>
      <use xlink:href="#DejaVuSans-6d" x="424.947266"/>
      <use xlink:href="#DejaVuSans-65" x="522.359375"/>
      <use xlink:href="#DejaVuSans-6e" x="583.882812"/>
      <use xlink:href="#DejaVuSans-74" x="647.261719"/>
     </g>
    </g>
    <g id="line2d_47">
     <path d="M 382.969687 71.904844 
L 397.969687 71.904844 
L 412.969687 71.904844 
" style="fill: none; stroke: #e41a1c; stroke-width: 1.5; stroke-linecap: square"/>
    </g>
    <g id="text_19">
     <!-- Simulation -->
     <g transform="translate(424.969687 77.154844)scale(0.15 -0.15)">
      <defs>
       <path id="DejaVuSans-53" d="M 3425 4513 
L 3425 3897 
Q 3066 4069 2747 4153 
Q 2428 4238 2131 4238 
Q 1616 4238 1336 4038 
Q 1056 3838 1056 3469 
Q 1056 3159 1242 3001 
Q 1428 2844 1947 2747 
L 2328 2669 
Q 3034 2534 3370 2195 
Q 3706 1856 3706 1288 
Q 3706 609 3251 259 
Q 2797 -91 1919 -91 
Q 1588 -91 1214 -16 
Q 841 59 441 206 
L 441 856 
Q 825 641 1194 531 
Q 1563 422 1919 422 
Q 2459 422 2753 634 
Q 3047 847 3047 1241 
Q 3047 1584 2836 1778 
Q 2625 1972 2144 2069 
L 1759 2144 
Q 1053 2284 737 2584 
Q 422 2884 422 3419 
Q 422 4038 858 4394 
Q 1294 4750 2059 4750 
Q 2388 4750 2728 4690 
Q 3069 4631 3425 4513 
z
" transform="scale(0.015625)"/>
       <path id="DejaVuSans-69" d="M 603 3500 
L 1178 3500 
L 1178 0 
L 603 0 
L 603 3500 
z
M 603 4863 
L 1178 4863 
L 1178 4134 
L 603 4134 
L 603 4863 
z
" transform="scale(0.015625)"/>
       <path id="DejaVuSans-6c" d="M 603 4863 
L 1178 4863 
L 1178 0 
L 603 0 
L 603 4863 
z
" transform="scale(0.015625)"/>
       <path id="DejaVuSans-6f" d="M 1959 3097 
Q 1497 3097 1228 2736 
Q 959 2375 959 1747 
Q 959 1119 1226 758 
Q 1494 397 1959 397 
Q 2419 397 2687 759 
Q 2956 1122 2956 1747 
Q 2956 2369 2687 2733 
Q 2419 3097 1959 3097 
z
M 1959 3584 
Q 2709 3584 3137 3096 
Q 3566 2609 3566 1747 
Q 3566 888 3137 398 
Q 2709 -91 1959 -91 
Q 1206 -91 779 398 
Q 353 888 353 1747 
Q 353 2609 779 3096 
Q 1206 3584 1959 3584 
z
" transform="scale(0.015625)"/>
      </defs>
      <use xlink:href="#DejaVuSans-53"/>
      <use xlink:href="#DejaVuSans-69" x="63.476562"/>
      <use xlink:href="#DejaVuSans-6d" x="91.259766"/>
      <use xlink:href="#DejaVuSans-75" x="188.671875"/>
      <use xlink:href="#DejaVuSans-6c" x="252.050781"/>
      <use xlink:href="#DejaVuSans-61" x="279.833984"/>
      <use xlink:href="#DejaVuSans-74" x="341.113281"/>
      <use xlink:href="#DejaVuSans-69" x="380.322266"/>
      <use xlink:href="#DejaVuSans-6f" x="408.105469"/>
      <use xlink:href="#DejaVuSans-6e" x="469.287109"/>
     </g>
    </g>
   </g>
  </g>
 </g>
 <defs>
  <clipPath id="pcaaf7b9078">
   <rect x="69.12" y="30.24" width="472.32" height="423.36"/>
  </clipPath>
 </defs>
</svg>
